{"glyphs":{"0":{"ha":833,"x_min":111,"x_max":722,"o":"m 417 -14 q 255 23 324 -14 q 149 127 186 60 q 111 285 111 194 l 111 729 q 149 888 111 821 q 255 991 186 954 q 417 1028 324 1028 q 579 991 511 1028 q 685 888 647 954 q 722 729 722 821 l 722 285 q 685 127 722 194 q 578 23 647 60 q 417 -14 510 -14 m 417 93 q 551 147 500 93 q 601 285 601 200 l 601 729 q 551 867 601 814 q 417 921 500 921 q 283 867 333 921 q 232 729 232 814 l 232 285 q 283 147 232 200 q 417 93 333 93 m 417 431 q 356 451 379 431 q 333 511 333 472 q 356 569 333 549 q 417 589 379 589 q 477 569 454 589 q 500 511 500 549 q 477 451 500 472 q 417 431 454 431 z "},"1":{"ha":833,"x_min":125,"x_max":750,"o":"m 125 0 l 125 114 l 400 114 l 400 906 l 125 700 l 125 843 l 354 1014 l 525 1014 l 525 114 l 750 114 l 750 0 l 125 0 z "},"2":{"ha":833,"x_min":106,"x_max":732,"o":"m 119 0 l 119 115 l 457 476 q 561 615 531 554 q 592 735 592 676 q 544 867 592 818 q 414 917 496 917 q 280 866 329 917 q 231 729 231 815 l 106 729 q 147 888 108 821 q 254 992 186 956 q 414 1028 322 1028 q 576 992 508 1028 q 682 890 644 956 q 719 733 719 824 q 680 581 719 661 q 544 400 640 500 l 271 114 l 732 114 l 732 0 l 119 0 z "},"3":{"ha":833,"x_min":97,"x_max":708,"o":"m 401 -14 q 179 65 261 -14 q 97 278 97 143 l 222 278 q 271 146 222 194 q 403 97 319 97 q 535 146 486 97 q 583 278 583 194 l 583 347 q 535 479 583 431 q 403 528 486 528 l 293 528 l 293 636 l 542 900 l 125 900 l 125 1014 l 683 1014 l 683 897 l 406 601 l 406 639 q 627 560 546 639 q 708 347 708 482 l 708 278 q 626 65 708 143 q 401 -14 543 -14 z "},"4":{"ha":833,"x_min":97,"x_max":681,"o":"m 556 0 l 556 222 l 97 222 l 97 418 l 467 1014 l 608 1014 l 222 390 l 222 336 l 556 336 l 556 583 l 681 583 l 681 0 l 556 0 z "},"5":{"ha":833,"x_min":104,"x_max":715,"o":"m 408 -14 q 186 65 268 -14 q 104 278 104 143 l 229 278 q 278 146 229 194 q 410 97 326 97 q 542 146 493 97 q 590 278 590 194 l 590 340 q 543 472 590 424 q 415 521 496 521 l 139 521 l 139 1014 l 679 1014 l 679 900 l 256 900 l 258 635 l 422 635 q 639 558 563 635 q 715 340 715 481 l 715 278 q 633 65 715 143 q 408 -14 550 -14 z "},"6":{"ha":833,"x_min":89,"x_max":744,"o":"m 418 -14 q 247 27 321 -14 q 131 141 172 68 q 89 310 89 214 q 114 447 89 376 q 182 593 139 517 l 417 1014 l 556 1014 l 306 579 l 310 576 q 364 613 328 600 q 443 625 400 625 q 601 585 533 625 q 706 476 668 546 q 744 315 744 407 q 703 144 744 218 q 588 28 661 69 q 418 -14 515 -14 m 417 97 q 523 124 478 97 q 594 200 568 151 q 619 313 619 249 q 594 425 619 376 q 523 501 568 474 q 417 528 478 528 q 311 501 357 528 q 240 425 265 474 q 214 313 214 376 q 240 200 214 249 q 311 124 265 151 q 417 97 357 97 z "},"7":{"ha":833,"x_min":114,"x_max":758,"o":"m 264 0 l 625 900 l 239 900 l 239 736 l 114 736 l 114 1014 l 758 1014 l 758 897 l 400 0 l 264 0 z "},"8":{"ha":833,"x_min":92,"x_max":742,"o":"m 417 -14 q 247 24 321 -14 q 133 128 174 61 q 92 283 92 196 q 117 400 92 347 q 187 488 142 453 q 293 533 232 524 l 293 538 q 167 617 214 556 q 119 760 119 679 q 157 899 119 839 q 262 994 194 960 q 417 1028 329 1028 q 572 994 506 1028 q 676 899 639 960 q 714 760 714 839 q 667 617 714 679 q 540 538 619 556 l 540 533 q 647 488 601 524 q 717 400 692 453 q 742 283 742 347 q 701 128 742 196 q 587 24 660 61 q 417 -14 514 -14 m 417 99 q 561 151 506 99 q 617 286 617 203 q 561 423 617 371 q 417 475 506 475 q 272 423 328 475 q 217 286 217 371 q 272 151 217 203 q 417 99 328 99 m 417 586 q 542 632 494 586 q 589 751 589 678 q 542 871 589 825 q 417 917 494 917 q 292 871 340 917 q 244 751 244 825 q 292 632 244 678 q 417 586 340 586 z "},"9":{"ha":833,"x_min":89,"x_max":744,"o":"m 271 0 l 521 435 l 517 438 q 487 413 507 424 q 440 395 467 401 q 383 389 414 389 q 230 428 296 389 q 126 538 164 468 q 89 699 89 607 q 131 871 89 797 q 246 986 172 944 q 415 1028 319 1028 q 588 987 514 1028 q 703 873 661 946 q 744 704 744 800 q 719 567 744 638 q 651 421 694 497 l 417 0 l 271 0 m 417 486 q 563 546 507 486 q 619 701 619 606 q 594 814 619 765 q 523 890 568 863 q 417 917 478 917 q 311 890 357 917 q 240 814 265 863 q 214 701 214 765 q 240 589 214 638 q 311 513 265 540 q 417 486 357 486 z "},"A":{"ha":833,"x_min":69,"x_max":764,"o":"m 69 0 l 333 1014 l 501 1014 l 764 0 l 638 0 l 571 269 l 264 269 l 197 0 l 69 0 m 289 375 l 544 375 l 467 688 q 432 836 444 776 q 417 914 419 896 q 401 836 414 896 q 367 689 389 776 l 289 375 z "},"Á":{"ha":833,"x_min":69,"x_max":764,"o":"m 69 0 l 333 1014 l 501 1014 l 764 0 l 638 0 l 571 269 l 264 269 l 197 0 l 69 0 m 289 375 l 544 375 l 467 688 q 432 836 444 776 q 417 914 419 896 q 401 836 414 896 q 367 689 389 776 l 289 375 m 336 1125 l 483 1319 l 618 1319 l 464 1125 l 336 1125 z "},"Ă":{"ha":833,"x_min":69,"x_max":764,"o":"m 69 0 l 333 1014 l 501 1014 l 764 0 l 638 0 l 571 269 l 264 269 l 197 0 l 69 0 m 289 375 l 544 375 l 467 688 q 432 836 444 776 q 417 914 419 896 q 401 836 414 896 q 367 689 389 776 l 289 375 m 417 1118 q 256 1174 317 1118 q 194 1319 194 1229 l 293 1319 q 326 1232 293 1265 q 415 1199 360 1199 q 506 1232 472 1199 q 540 1319 540 1265 l 639 1319 q 578 1174 639 1229 q 417 1118 517 1118 z "},"Ắ":{"ha":833,"x_min":69,"x_max":764,"o":"m 329 1250 l 475 1417 l 608 1417 l 456 1250 l 329 1250 m 382 1083 q 240 1132 293 1083 q 188 1264 188 1181 l 285 1264 q 311 1193 285 1219 q 382 1167 338 1167 l 450 1167 q 522 1193 496 1167 q 549 1264 549 1219 l 646 1264 q 593 1132 646 1181 q 450 1083 540 1083 l 382 1083 m 69 0 l 333 1014 l 501 1014 l 764 0 l 638 0 l 571 269 l 264 269 l 197 0 l 69 0 m 289 375 l 544 375 l 467 688 q 432 836 444 776 q 417 914 419 896 q 401 836 414 896 q 367 689 389 776 l 289 375 z "},"Ặ":{"ha":833,"x_min":69,"x_max":764,"o":"m 417 1118 q 256 1174 317 1118 q 194 1319 194 1229 l 293 1319 q 326 1232 293 1265 q 415 1199 360 1199 q 506 1232 472 1199 q 540 1319 540 1265 l 639 1319 q 578 1174 639 1229 q 417 1118 517 1118 m 69 0 l 333 1014 l 501 1014 l 764 0 l 638 0 l 571 269 l 264 269 l 197 0 l 69 0 m 289 375 l 544 375 l 467 688 q 432 836 444 776 q 417 914 419 896 q 401 836 414 896 q 367 689 389 776 l 289 375 m 417 -296 q 344 -272 371 -296 q 318 -208 318 -249 q 344 -142 318 -167 q 417 -118 371 -118 q 489 -142 463 -118 q 515 -208 515 -167 q 489 -272 515 -249 q 417 -296 463 -296 z "},"Ằ":{"ha":833,"x_min":69,"x_max":764,"o":"m 69 0 l 333 1014 l 501 1014 l 764 0 l 638 0 l 571 269 l 264 269 l 197 0 l 69 0 m 289 375 l 544 375 l 467 688 q 432 836 444 776 q 417 914 419 896 q 401 836 414 896 q 367 689 389 776 l 289 375 m 382 1083 q 240 1132 293 1083 q 188 1264 188 1181 l 285 1264 q 311 1193 285 1219 q 382 1167 338 1167 l 450 1167 q 522 1193 496 1167 q 549 1264 549 1219 l 646 1264 q 593 1132 646 1181 q 450 1083 540 1083 l 382 1083 m 378 1250 l 239 1417 l 372 1417 l 504 1250 l 378 1250 z "},"Ẳ":{"ha":833,"x_min":69,"x_max":764,"o":"m 69 0 l 333 1014 l 501 1014 l 764 0 l 638 0 l 571 269 l 264 269 l 197 0 l 69 0 m 289 375 l 544 375 l 467 688 q 432 836 444 776 q 417 914 419 896 q 401 836 414 896 q 367 689 389 776 l 289 375 m 353 1222 l 418 1300 q 428 1322 428 1311 q 414 1333 428 1333 l 313 1333 l 313 1417 l 447 1417 q 503 1399 483 1417 q 524 1350 524 1382 q 518 1313 524 1332 q 501 1278 513 1293 l 457 1222 l 353 1222 m 382 1083 q 240 1132 293 1083 q 188 1264 188 1181 l 285 1264 q 311 1193 285 1219 q 382 1167 338 1167 l 450 1167 q 522 1193 496 1167 q 549 1264 549 1219 l 646 1264 q 593 1132 646 1181 q 450 1083 540 1083 l 382 1083 z "},"Ẵ":{"ha":833,"x_min":69,"x_max":764,"o":"m 69 0 l 333 1014 l 501 1014 l 764 0 l 638 0 l 571 269 l 264 269 l 197 0 l 69 0 m 289 375 l 544 375 l 467 688 q 432 836 444 776 q 417 914 419 896 q 401 836 414 896 q 367 689 389 776 l 289 375 m 382 1083 q 240 1125 293 1083 q 188 1250 188 1167 l 285 1250 q 311 1186 285 1206 q 382 1167 338 1167 l 450 1167 q 522 1186 496 1167 q 549 1250 549 1206 l 646 1250 q 593 1125 646 1167 q 450 1083 540 1083 l 382 1083 m 524 1278 q 451 1288 481 1278 q 401 1310 422 1297 q 362 1333 381 1324 q 319 1343 343 1343 q 290 1332 301 1343 q 278 1301 278 1321 l 278 1292 l 188 1292 l 188 1301 q 222 1385 188 1354 q 313 1417 256 1417 q 385 1407 357 1417 q 434 1384 414 1397 q 472 1361 454 1371 q 514 1351 490 1351 q 544 1363 533 1351 q 556 1393 556 1375 l 556 1403 l 646 1403 l 646 1393 q 613 1309 646 1340 q 524 1278 581 1278 z "},"Ǎ":{"ha":833,"x_min":69,"x_max":764,"o":"m 69 0 l 333 1014 l 501 1014 l 764 0 l 638 0 l 571 269 l 264 269 l 197 0 l 69 0 m 289 375 l 544 375 l 467 688 q 432 836 444 776 q 417 914 419 896 q 401 836 414 896 q 367 689 389 776 l 289 375 m 360 1125 l 165 1319 l 303 1319 l 417 1211 l 528 1319 l 668 1319 l 475 1125 l 360 1125 z "},"Â":{"ha":833,"x_min":69,"x_max":764,"o":"m 69 0 l 333 1014 l 501 1014 l 764 0 l 638 0 l 571 269 l 264 269 l 197 0 l 69 0 m 289 375 l 544 375 l 467 688 q 432 836 444 776 q 417 914 419 896 q 401 836 414 896 q 367 689 389 776 l 289 375 m 165 1125 l 358 1319 l 474 1319 l 668 1125 l 531 1125 l 417 1233 l 306 1125 l 165 1125 z "},"Ấ":{"ha":833,"x_min":69,"x_max":854,"o":"m 69 0 l 333 1014 l 501 1014 l 764 0 l 638 0 l 571 269 l 264 269 l 197 0 l 69 0 m 289 375 l 544 375 l 467 688 q 432 836 444 776 q 417 914 419 896 q 401 836 414 896 q 367 689 389 776 l 289 375 m 567 1250 l 713 1417 l 854 1417 l 701 1250 l 567 1250 m 167 1083 l 358 1278 l 475 1278 l 668 1083 l 528 1083 l 417 1192 l 304 1083 l 167 1083 z "},"Ậ":{"ha":833,"x_min":69,"x_max":764,"o":"m 165 1125 l 358 1319 l 474 1319 l 668 1125 l 531 1125 l 417 1233 l 306 1125 l 165 1125 m 69 0 l 333 1014 l 501 1014 l 764 0 l 638 0 l 571 269 l 264 269 l 197 0 l 69 0 m 289 375 l 544 375 l 467 688 q 432 836 444 776 q 417 914 419 896 q 401 836 414 896 q 367 689 389 776 l 289 375 m 417 -296 q 344 -272 371 -296 q 318 -208 318 -249 q 344 -142 318 -167 q 417 -118 371 -118 q 489 -142 463 -118 q 515 -208 515 -167 q 489 -272 515 -249 q 417 -296 463 -296 z "},"Ầ":{"ha":833,"x_min":69,"x_max":764,"o":"m 69 0 l 333 1014 l 501 1014 l 764 0 l 638 0 l 571 269 l 264 269 l 197 0 l 69 0 m 289 375 l 544 375 l 467 688 q 432 836 444 776 q 417 914 419 896 q 401 836 414 896 q 367 689 389 776 l 289 375 m 618 1250 l 451 1417 l 590 1417 l 750 1250 l 618 1250 m 167 1083 l 358 1278 l 475 1278 l 668 1083 l 528 1083 l 417 1192 l 304 1083 l 167 1083 z "},"Ẩ":{"ha":833,"x_min":69,"x_max":764,"o":"m 69 0 l 333 1014 l 501 1014 l 764 0 l 638 0 l 571 269 l 264 269 l 197 0 l 69 0 m 289 375 l 544 375 l 467 688 q 432 836 444 776 q 417 914 419 896 q 401 836 414 896 q 367 689 389 776 l 289 375 m 583 1222 l 650 1288 q 661 1314 661 1299 q 640 1336 661 1336 l 549 1336 l 549 1417 l 667 1417 q 738 1393 711 1417 q 764 1331 764 1369 q 758 1297 764 1313 q 742 1269 753 1281 l 692 1222 l 583 1222 m 167 1083 l 358 1278 l 475 1278 l 668 1083 l 528 1083 l 417 1192 l 304 1083 l 167 1083 z "},"Ẫ":{"ha":833,"x_min":69,"x_max":764,"o":"m 69 0 l 333 1014 l 501 1014 l 764 0 l 638 0 l 571 269 l 264 269 l 197 0 l 69 0 m 289 375 l 544 375 l 467 688 q 432 836 444 776 q 417 914 419 896 q 401 836 414 896 q 367 689 389 776 l 289 375 m 524 1278 q 451 1288 481 1278 q 401 1310 422 1297 q 362 1333 381 1324 q 319 1343 343 1343 q 290 1332 301 1343 q 278 1301 278 1321 l 278 1292 l 188 1292 l 188 1301 q 222 1385 188 1354 q 313 1417 256 1417 q 385 1407 357 1417 q 434 1384 414 1397 q 472 1361 454 1371 q 514 1351 490 1351 q 544 1363 533 1351 q 556 1393 556 1375 l 556 1403 l 646 1403 l 646 1393 q 613 1309 646 1340 q 524 1278 581 1278 m 167 1083 l 328 1236 l 506 1236 l 667 1083 l 526 1083 l 417 1185 l 304 1083 l 167 1083 z "},"Ä":{"ha":833,"x_min":69,"x_max":764,"o":"m 69 0 l 333 1014 l 501 1014 l 764 0 l 638 0 l 571 269 l 264 269 l 197 0 l 69 0 m 289 375 l 544 375 l 467 688 q 432 836 444 776 q 417 914 419 896 q 401 836 414 896 q 367 689 389 776 l 289 375 m 571 1135 q 506 1158 531 1135 q 482 1222 482 1182 q 506 1288 482 1264 q 571 1313 531 1313 q 635 1288 611 1313 q 660 1222 660 1264 q 635 1158 660 1182 q 571 1135 611 1135 m 263 1135 q 198 1158 222 1135 q 174 1222 174 1182 q 198 1288 174 1264 q 263 1313 222 1313 q 327 1288 303 1313 q 351 1222 351 1264 q 327 1158 351 1182 q 263 1135 303 1135 z "},"Ạ":{"ha":833,"x_min":69,"x_max":764,"o":"m 69 0 l 333 1014 l 501 1014 l 764 0 l 638 0 l 571 269 l 264 269 l 197 0 l 69 0 m 289 375 l 544 375 l 467 688 q 432 836 444 776 q 417 914 419 896 q 401 836 414 896 q 367 689 389 776 l 289 375 m 417 -296 q 344 -272 371 -296 q 318 -208 318 -249 q 344 -142 318 -167 q 417 -118 371 -118 q 489 -142 463 -118 q 515 -208 515 -167 q 489 -272 515 -249 q 417 -296 463 -296 z "},"À":{"ha":833,"x_min":69,"x_max":764,"o":"m 69 0 l 333 1014 l 501 1014 l 764 0 l 638 0 l 571 269 l 264 269 l 197 0 l 69 0 m 289 375 l 544 375 l 467 688 q 432 836 444 776 q 417 914 419 896 q 401 836 414 896 q 367 689 389 776 l 289 375 m 371 1125 l 211 1319 l 350 1319 l 503 1125 l 371 1125 z "},"Ả":{"ha":833,"x_min":69,"x_max":764,"o":"m 69 0 l 333 1014 l 501 1014 l 764 0 l 638 0 l 571 269 l 264 269 l 197 0 l 69 0 m 289 375 l 544 375 l 467 688 q 432 836 444 776 q 417 914 419 896 q 401 836 414 896 q 367 689 389 776 l 289 375 m 358 1111 l 421 1199 q 440 1243 440 1226 q 396 1271 440 1271 l 292 1271 l 292 1361 l 403 1361 q 508 1333 468 1361 q 549 1257 549 1304 q 525 1183 549 1218 l 476 1111 l 358 1111 z "},"Ā":{"ha":833,"x_min":69,"x_max":764,"o":"m 69 0 l 333 1014 l 501 1014 l 764 0 l 638 0 l 571 269 l 264 269 l 197 0 l 69 0 m 289 375 l 544 375 l 467 688 q 432 836 444 776 q 417 914 419 896 q 401 836 414 896 q 367 689 389 776 l 289 375 m 194 1167 l 194 1271 l 639 1271 l 639 1167 l 194 1167 z "},"Ą":{"ha":833,"x_min":69,"x_max":813,"o":"m 704 -282 q 581 -245 628 -282 q 535 -153 535 -208 q 561 -72 535 -112 q 653 14 588 -32 l 757 14 l 742 1 q 674 -69 694 -37 q 653 -129 653 -100 q 674 -179 653 -160 q 729 -199 694 -199 l 813 -199 l 813 -282 l 704 -282 m 69 0 l 333 1014 l 501 1014 l 764 0 l 638 0 l 571 269 l 264 269 l 197 0 l 69 0 m 289 375 l 544 375 l 467 688 q 432 836 444 776 q 417 914 419 896 q 401 836 414 896 q 367 689 389 776 l 289 375 z "},"Å":{"ha":833,"x_min":69,"x_max":764,"o":"m 69 0 l 333 1014 l 501 1014 l 764 0 l 638 0 l 571 269 l 264 269 l 197 0 l 69 0 m 289 375 l 544 375 l 467 688 q 432 836 444 776 q 417 914 419 896 q 401 836 414 896 q 367 689 389 776 l 289 375 m 417 1064 q 296 1108 342 1064 q 250 1222 250 1151 q 296 1337 250 1293 q 417 1381 342 1381 q 538 1337 492 1381 q 583 1222 583 1293 q 538 1108 583 1151 q 417 1064 492 1064 m 417 1138 q 477 1160 454 1138 q 500 1222 500 1183 q 477 1285 500 1261 q 417 1308 454 1308 q 356 1285 379 1308 q 333 1222 333 1261 q 356 1160 333 1183 q 417 1138 379 1138 z "},"Ã":{"ha":833,"x_min":69,"x_max":764,"o":"m 69 0 l 333 1014 l 501 1014 l 764 0 l 638 0 l 571 269 l 264 269 l 197 0 l 69 0 m 289 375 l 544 375 l 467 688 q 432 836 444 776 q 417 914 419 896 q 401 836 414 896 q 367 689 389 776 l 289 375 m 514 1132 q 446 1147 472 1132 q 401 1181 419 1161 q 367 1215 383 1200 q 326 1229 350 1229 q 297 1217 308 1229 q 285 1181 285 1206 l 285 1139 l 194 1139 l 194 1181 q 229 1278 194 1243 q 319 1313 264 1313 q 388 1298 361 1313 q 432 1264 414 1283 q 467 1230 450 1244 q 507 1215 483 1215 q 538 1227 526 1215 q 549 1264 549 1239 l 549 1306 l 639 1306 l 639 1264 q 605 1167 639 1201 q 514 1132 571 1132 z "},"Æ":{"ha":833,"x_min":42,"x_max":792,"o":"m 42 0 l 243 1014 l 792 1014 l 792 900 l 539 900 l 539 583 l 757 583 l 757 469 l 539 469 l 539 114 l 792 114 l 792 0 l 419 0 l 419 282 l 224 282 l 168 0 l 42 0 m 243 386 l 419 386 l 419 900 l 342 900 l 243 386 z "},"Ǽ":{"ha":833,"x_min":42,"x_max":792,"o":"m 42 0 l 243 1014 l 792 1014 l 792 900 l 539 900 l 539 583 l 757 583 l 757 469 l 539 469 l 539 114 l 792 114 l 792 0 l 419 0 l 419 282 l 224 282 l 168 0 l 42 0 m 243 386 l 419 386 l 419 900 l 342 900 l 243 386 m 336 1125 l 483 1319 l 618 1319 l 464 1125 l 336 1125 z "},"B":{"ha":833,"x_min":129,"x_max":736,"o":"m 129 0 l 129 1014 l 417 1014 q 576 983 510 1014 q 677 892 642 951 q 713 751 713 833 q 690 654 713 700 q 628 576 668 608 q 535 533 588 544 l 535 529 q 640 488 594 522 q 710 399 685 453 q 736 282 736 346 q 700 132 736 196 q 597 34 664 68 q 438 0 531 0 l 129 0 m 251 113 l 424 113 q 562 159 511 113 q 613 286 613 206 q 562 422 613 369 q 424 474 511 474 l 251 474 l 251 113 m 251 582 l 415 582 q 542 625 496 582 q 589 742 589 668 q 543 858 589 815 q 417 901 497 901 l 251 901 l 251 582 z "},"C":{"ha":833,"x_min":128,"x_max":725,"o":"m 428 -14 q 269 21 336 -14 q 165 122 201 56 q 128 278 128 188 l 128 736 q 165 893 128 828 q 269 993 201 958 q 428 1028 336 1028 q 586 992 519 1028 q 689 892 653 957 q 725 736 725 826 l 600 736 q 555 869 600 822 q 428 915 510 915 q 299 869 346 915 q 253 736 253 822 l 253 278 q 299 145 253 192 q 428 99 346 99 q 555 145 510 99 q 600 278 600 192 l 725 278 q 689 123 725 189 q 586 22 653 57 q 428 -14 519 -14 z "},"Ć":{"ha":833,"x_min":128,"x_max":725,"o":"m 428 -14 q 269 21 336 -14 q 165 122 201 56 q 128 278 128 188 l 128 736 q 165 893 128 828 q 269 993 201 958 q 428 1028 336 1028 q 586 992 519 1028 q 689 892 653 957 q 725 736 725 826 l 600 736 q 555 869 600 822 q 428 915 510 915 q 299 869 346 915 q 253 736 253 822 l 253 278 q 299 145 253 192 q 428 99 346 99 q 555 145 510 99 q 600 278 600 192 l 725 278 q 689 123 725 189 q 586 22 653 57 q 428 -14 519 -14 m 343 1125 l 490 1319 l 625 1319 l 471 1125 l 343 1125 z "},"Č":{"ha":833,"x_min":128,"x_max":725,"o":"m 428 -14 q 269 21 336 -14 q 165 122 201 56 q 128 278 128 188 l 128 736 q 165 893 128 828 q 269 993 201 958 q 428 1028 336 1028 q 586 992 519 1028 q 689 892 653 957 q 725 736 725 826 l 600 736 q 555 869 600 822 q 428 915 510 915 q 299 869 346 915 q 253 736 253 822 l 253 278 q 299 145 253 192 q 428 99 346 99 q 555 145 510 99 q 600 278 600 192 l 725 278 q 689 123 725 189 q 586 22 653 57 q 428 -14 519 -14 m 367 1125 l 172 1319 l 310 1319 l 424 1211 l 535 1319 l 675 1319 l 482 1125 l 367 1125 z "},"Ç":{"ha":833,"x_min":128,"x_max":725,"o":"m 292 -282 l 292 -206 l 389 -206 q 438 -190 419 -206 q 457 -156 457 -174 q 419 -114 457 -132 q 311 -96 381 -96 l 360 36 l 439 36 l 410 -49 q 485 -67 446 -53 q 550 -106 524 -81 q 576 -167 576 -131 q 531 -248 576 -214 q 410 -282 485 -282 l 292 -282 m 428 -14 q 269 21 336 -14 q 165 122 201 56 q 128 278 128 188 l 128 736 q 165 893 128 828 q 269 993 201 958 q 428 1028 336 1028 q 586 992 519 1028 q 689 892 653 957 q 725 736 725 826 l 600 736 q 555 869 600 822 q 428 915 510 915 q 299 869 346 915 q 253 736 253 822 l 253 278 q 299 145 253 192 q 428 99 346 99 q 555 145 510 99 q 600 278 600 192 l 725 278 q 689 123 725 189 q 586 22 653 57 q 428 -14 519 -14 z "},"Ĉ":{"ha":833,"x_min":128,"x_max":725,"o":"m 428 -14 q 269 21 336 -14 q 165 122 201 56 q 128 278 128 188 l 128 736 q 165 893 128 828 q 269 993 201 958 q 428 1028 336 1028 q 586 992 519 1028 q 689 892 653 957 q 725 736 725 826 l 600 736 q 555 869 600 822 q 428 915 510 915 q 299 869 346 915 q 253 736 253 822 l 253 278 q 299 145 253 192 q 428 99 346 99 q 555 145 510 99 q 600 278 600 192 l 725 278 q 689 123 725 189 q 586 22 653 57 q 428 -14 519 -14 m 172 1125 l 365 1319 l 481 1319 l 675 1125 l 538 1125 l 424 1233 l 313 1125 l 172 1125 z "},"Ċ":{"ha":833,"x_min":128,"x_max":725,"o":"m 428 -14 q 269 21 336 -14 q 165 122 201 56 q 128 278 128 188 l 128 736 q 165 893 128 828 q 269 993 201 958 q 428 1028 336 1028 q 586 992 519 1028 q 689 892 653 957 q 725 736 725 826 l 600 736 q 555 869 600 822 q 428 915 510 915 q 299 869 346 915 q 253 736 253 822 l 253 278 q 299 145 253 192 q 428 99 346 99 q 555 145 510 99 q 600 278 600 192 l 725 278 q 689 123 725 189 q 586 22 653 57 q 428 -14 519 -14 m 424 1133 q 351 1158 378 1133 q 325 1222 325 1182 q 351 1287 325 1263 q 424 1311 378 1311 q 496 1287 469 1311 q 522 1222 522 1263 q 496 1158 522 1182 q 424 1133 469 1133 z "},"D":{"ha":833,"x_min":128,"x_max":711,"o":"m 128 0 l 128 1014 l 390 1014 q 560 976 489 1014 q 672 871 632 939 q 711 710 711 803 l 711 306 q 672 144 711 213 q 560 38 632 75 q 390 0 489 0 l 128 0 m 253 111 l 390 111 q 534 163 482 111 q 586 306 586 214 l 586 710 q 534 851 586 800 q 390 903 482 903 l 253 903 l 253 111 z "},"Ð":{"ha":833,"x_min":14,"x_max":711,"o":"m 14 465 l 14 569 l 403 569 l 403 465 l 14 465 m 128 0 l 128 1014 l 390 1014 q 560 976 489 1014 q 672 871 632 939 q 711 710 711 803 l 711 306 q 672 144 711 213 q 560 38 632 75 q 390 0 489 0 l 128 0 m 253 111 l 390 111 q 534 163 482 111 q 586 306 586 214 l 586 710 q 534 851 586 800 q 390 903 482 903 l 253 903 l 253 111 z "},"Ď":{"ha":833,"x_min":128,"x_max":711,"o":"m 128 0 l 128 1014 l 390 1014 q 560 976 489 1014 q 672 871 632 939 q 711 710 711 803 l 711 306 q 672 144 711 213 q 560 38 632 75 q 390 0 489 0 l 128 0 m 253 111 l 390 111 q 534 163 482 111 q 586 306 586 214 l 586 710 q 534 851 586 800 q 390 903 482 903 l 253 903 l 253 111 m 360 1125 l 165 1319 l 303 1319 l 417 1211 l 528 1319 l 668 1319 l 475 1125 l 360 1125 z "},"Đ":{"ha":833,"x_min":14,"x_max":711,"o":"m 14 465 l 14 569 l 403 569 l 403 465 l 14 465 m 128 0 l 128 1014 l 390 1014 q 560 976 489 1014 q 672 871 632 939 q 711 710 711 803 l 711 306 q 672 144 711 213 q 560 38 632 75 q 390 0 489 0 l 128 0 m 253 111 l 390 111 q 534 163 482 111 q 586 306 586 214 l 586 710 q 534 851 586 800 q 390 903 482 903 l 253 903 l 253 111 z "},"E":{"ha":833,"x_min":139,"x_max":722,"o":"m 139 0 l 139 1014 l 722 1014 l 722 900 l 263 900 l 263 586 l 674 586 l 674 475 l 263 475 l 263 114 l 722 114 l 722 0 l 139 0 z "},"É":{"ha":833,"x_min":139,"x_max":722,"o":"m 139 0 l 139 1014 l 722 1014 l 722 900 l 263 900 l 263 586 l 674 586 l 674 475 l 263 475 l 263 114 l 722 114 l 722 0 l 139 0 m 350 1125 l 497 1319 l 632 1319 l 478 1125 l 350 1125 z "},"Ĕ":{"ha":833,"x_min":139,"x_max":722,"o":"m 139 0 l 139 1014 l 722 1014 l 722 900 l 263 900 l 263 586 l 674 586 l 674 475 l 263 475 l 263 114 l 722 114 l 722 0 l 139 0 m 431 1118 q 269 1174 331 1118 q 208 1319 208 1229 l 307 1319 q 340 1232 307 1265 q 429 1199 374 1199 q 520 1232 486 1199 q 554 1319 554 1265 l 653 1319 q 592 1174 653 1229 q 431 1118 531 1118 z "},"Ě":{"ha":833,"x_min":139,"x_max":722,"o":"m 139 0 l 139 1014 l 722 1014 l 722 900 l 263 900 l 263 586 l 674 586 l 674 475 l 263 475 l 263 114 l 722 114 l 722 0 l 139 0 m 374 1125 l 179 1319 l 317 1319 l 431 1211 l 542 1319 l 682 1319 l 489 1125 l 374 1125 z "},"Ê":{"ha":833,"x_min":139,"x_max":722,"o":"m 139 0 l 139 1014 l 722 1014 l 722 900 l 263 900 l 263 586 l 674 586 l 674 475 l 263 475 l 263 114 l 722 114 l 722 0 l 139 0 m 179 1125 l 372 1319 l 488 1319 l 682 1125 l 544 1125 l 431 1233 l 319 1125 l 179 1125 z "},"Ế":{"ha":833,"x_min":139,"x_max":868,"o":"m 139 0 l 139 1014 l 722 1014 l 722 900 l 263 900 l 263 586 l 674 586 l 674 475 l 263 475 l 263 114 l 722 114 l 722 0 l 139 0 m 581 1250 l 726 1417 l 868 1417 l 715 1250 l 581 1250 m 181 1083 l 372 1278 l 489 1278 l 682 1083 l 542 1083 l 431 1192 l 318 1083 l 181 1083 z "},"Ệ":{"ha":833,"x_min":139,"x_max":722,"o":"m 139 0 l 139 1014 l 722 1014 l 722 900 l 263 900 l 263 586 l 674 586 l 674 475 l 263 475 l 263 114 l 722 114 l 722 0 l 139 0 m 431 -296 q 358 -272 385 -296 q 332 -208 332 -249 q 358 -142 332 -167 q 431 -118 385 -118 q 503 -142 476 -118 q 529 -208 529 -167 q 503 -272 529 -249 q 431 -296 476 -296 m 179 1125 l 372 1319 l 488 1319 l 682 1125 l 544 1125 l 431 1233 l 319 1125 l 179 1125 z "},"Ề":{"ha":833,"x_min":139,"x_max":764,"o":"m 139 0 l 139 1014 l 722 1014 l 722 900 l 263 900 l 263 586 l 674 586 l 674 475 l 263 475 l 263 114 l 722 114 l 722 0 l 139 0 m 632 1250 l 465 1417 l 604 1417 l 764 1250 l 632 1250 m 181 1083 l 372 1278 l 489 1278 l 682 1083 l 542 1083 l 431 1192 l 318 1083 l 181 1083 z "},"Ể":{"ha":833,"x_min":139,"x_max":778,"o":"m 139 0 l 139 1014 l 722 1014 l 722 900 l 263 900 l 263 586 l 674 586 l 674 475 l 263 475 l 263 114 l 722 114 l 722 0 l 139 0 m 597 1222 l 664 1288 q 675 1314 675 1299 q 654 1336 675 1336 l 563 1336 l 563 1417 l 681 1417 q 751 1393 725 1417 q 778 1331 778 1369 q 772 1297 778 1313 q 756 1269 767 1281 l 706 1222 l 597 1222 m 181 1083 l 372 1278 l 489 1278 l 682 1083 l 542 1083 l 431 1192 l 318 1083 l 181 1083 z "},"Ễ":{"ha":833,"x_min":139,"x_max":722,"o":"m 139 0 l 139 1014 l 722 1014 l 722 900 l 263 900 l 263 586 l 674 586 l 674 475 l 263 475 l 263 114 l 722 114 l 722 0 l 139 0 m 538 1278 q 465 1288 494 1278 q 415 1310 436 1297 q 376 1333 394 1324 q 333 1343 357 1343 q 303 1332 315 1343 q 292 1301 292 1321 l 292 1292 l 201 1292 l 201 1301 q 235 1385 201 1354 q 326 1417 269 1417 q 399 1407 371 1417 q 448 1384 428 1397 q 486 1361 468 1371 q 528 1351 504 1351 q 558 1363 547 1351 q 569 1393 569 1375 l 569 1403 l 660 1403 l 660 1393 q 627 1309 660 1340 q 538 1278 594 1278 m 181 1083 l 342 1236 l 519 1236 l 681 1083 l 540 1083 l 431 1185 l 318 1083 l 181 1083 z "},"Ë":{"ha":833,"x_min":139,"x_max":722,"o":"m 139 0 l 139 1014 l 722 1014 l 722 900 l 263 900 l 263 586 l 674 586 l 674 475 l 263 475 l 263 114 l 722 114 l 722 0 l 139 0 m 585 1135 q 520 1158 544 1135 q 496 1222 496 1182 q 520 1288 496 1264 q 585 1313 544 1313 q 649 1288 625 1313 q 674 1222 674 1264 q 649 1158 674 1182 q 585 1135 625 1135 m 276 1135 q 212 1158 236 1135 q 188 1222 188 1182 q 212 1288 188 1264 q 276 1313 236 1313 q 341 1288 317 1313 q 365 1222 365 1264 q 341 1158 365 1182 q 276 1135 317 1135 z "},"Ė":{"ha":833,"x_min":139,"x_max":722,"o":"m 139 0 l 139 1014 l 722 1014 l 722 900 l 263 900 l 263 586 l 674 586 l 674 475 l 263 475 l 263 114 l 722 114 l 722 0 l 139 0 m 431 1133 q 358 1158 385 1133 q 332 1222 332 1182 q 358 1287 332 1263 q 431 1311 385 1311 q 503 1287 476 1311 q 529 1222 529 1263 q 503 1158 529 1182 q 431 1133 476 1133 z "},"Ẹ":{"ha":833,"x_min":139,"x_max":722,"o":"m 139 0 l 139 1014 l 722 1014 l 722 900 l 263 900 l 263 586 l 674 586 l 674 475 l 263 475 l 263 114 l 722 114 l 722 0 l 139 0 m 431 -296 q 358 -272 385 -296 q 332 -208 332 -249 q 358 -142 332 -167 q 431 -118 385 -118 q 503 -142 476 -118 q 529 -208 529 -167 q 503 -272 529 -249 q 431 -296 476 -296 z "},"È":{"ha":833,"x_min":139,"x_max":722,"o":"m 139 0 l 139 1014 l 722 1014 l 722 900 l 263 900 l 263 586 l 674 586 l 674 475 l 263 475 l 263 114 l 722 114 l 722 0 l 139 0 m 385 1125 l 225 1319 l 364 1319 l 517 1125 l 385 1125 z "},"Ẻ":{"ha":833,"x_min":139,"x_max":722,"o":"m 139 0 l 139 1014 l 722 1014 l 722 900 l 263 900 l 263 586 l 674 586 l 674 475 l 263 475 l 263 114 l 722 114 l 722 0 l 139 0 m 372 1111 l 435 1199 q 454 1243 454 1226 q 410 1271 454 1271 l 306 1271 l 306 1361 l 417 1361 q 522 1333 482 1361 q 563 1257 563 1304 q 539 1183 563 1218 l 490 1111 l 372 1111 z "},"Ē":{"ha":833,"x_min":139,"x_max":722,"o":"m 139 0 l 139 1014 l 722 1014 l 722 900 l 263 900 l 263 586 l 674 586 l 674 475 l 263 475 l 263 114 l 722 114 l 722 0 l 139 0 m 208 1167 l 208 1271 l 653 1271 l 653 1167 l 208 1167 z "},"Ę":{"ha":833,"x_min":139,"x_max":729,"o":"m 621 -282 q 498 -245 544 -282 q 451 -153 451 -208 q 478 -72 451 -112 q 569 14 504 -32 l 674 14 l 658 1 q 590 -69 611 -37 q 569 -129 569 -100 q 590 -179 569 -160 q 646 -199 611 -199 l 729 -199 l 729 -282 l 621 -282 m 139 0 l 139 1014 l 722 1014 l 722 900 l 263 900 l 263 586 l 674 586 l 674 475 l 263 475 l 263 114 l 722 114 l 722 0 l 139 0 z "},"Ɛ":{"ha":833,"x_min":92,"x_max":761,"o":"m 429 -14 q 253 23 329 -14 q 135 125 178 60 q 92 276 92 190 q 146 447 92 375 q 286 533 200 518 l 286 538 q 169 619 214 556 q 124 765 124 682 q 162 902 124 843 q 267 994 200 961 q 424 1028 335 1028 q 585 991 515 1028 q 694 889 656 954 q 733 736 733 824 l 608 736 q 557 867 608 817 q 424 917 506 917 q 297 872 346 917 q 249 753 249 826 q 298 631 249 678 q 426 583 347 583 l 547 583 l 547 472 l 428 472 q 277 420 335 472 q 219 285 219 368 q 277 149 219 201 q 428 97 335 97 q 576 147 518 97 q 636 278 635 197 l 761 278 q 717 126 760 192 q 601 23 675 60 q 429 -14 526 -14 z "},"Ẽ":{"ha":833,"x_min":139,"x_max":722,"o":"m 139 0 l 139 1014 l 722 1014 l 722 900 l 263 900 l 263 586 l 674 586 l 674 475 l 263 475 l 263 114 l 722 114 l 722 0 l 139 0 m 528 1132 q 460 1147 486 1132 q 415 1181 433 1161 q 381 1215 397 1200 q 340 1229 364 1229 q 310 1217 322 1229 q 299 1181 299 1206 l 299 1139 l 208 1139 l 208 1181 q 243 1278 208 1243 q 333 1313 278 1313 q 401 1298 375 1313 q 446 1264 428 1283 q 481 1230 464 1244 q 521 1215 497 1215 q 551 1227 540 1215 q 563 1264 563 1239 l 563 1306 l 653 1306 l 653 1264 q 619 1167 653 1201 q 528 1132 585 1132 z "},"F":{"ha":833,"x_min":132,"x_max":729,"o":"m 132 0 l 132 1014 l 729 1014 l 729 900 l 254 900 l 254 564 l 693 564 l 693 450 l 257 450 l 257 0 l 132 0 z "},"G":{"ha":833,"x_min":122,"x_max":719,"o":"m 422 -14 q 263 21 331 -14 q 159 122 196 56 q 122 278 122 188 l 122 736 q 159 893 122 828 q 263 993 196 958 q 422 1028 331 1028 q 581 992 514 1028 q 683 892 647 957 q 719 736 719 826 l 594 736 q 549 869 594 822 q 422 915 504 915 q 294 869 340 915 q 247 738 247 824 l 247 278 q 294 144 247 192 q 422 97 340 97 q 549 144 504 97 q 594 278 594 192 l 594 417 l 389 417 l 389 531 l 719 531 l 719 278 q 683 123 719 189 q 581 22 647 57 q 422 -14 514 -14 z "},"Ǵ":{"ha":833,"x_min":122,"x_max":719,"o":"m 422 -14 q 263 21 331 -14 q 159 122 196 56 q 122 278 122 188 l 122 736 q 159 893 122 828 q 263 993 196 958 q 422 1028 331 1028 q 581 992 514 1028 q 683 892 647 957 q 719 736 719 826 l 594 736 q 549 869 594 822 q 422 915 504 915 q 294 869 340 915 q 247 738 247 824 l 247 278 q 294 144 247 192 q 422 97 340 97 q 549 144 504 97 q 594 278 594 192 l 594 417 l 389 417 l 389 531 l 719 531 l 719 278 q 683 123 719 189 q 581 22 647 57 q 422 -14 514 -14 m 336 1125 l 483 1319 l 618 1319 l 464 1125 l 336 1125 z "},"Ğ":{"ha":833,"x_min":122,"x_max":719,"o":"m 422 -14 q 263 21 331 -14 q 159 122 196 56 q 122 278 122 188 l 122 736 q 159 893 122 828 q 263 993 196 958 q 422 1028 331 1028 q 581 992 514 1028 q 683 892 647 957 q 719 736 719 826 l 594 736 q 549 869 594 822 q 422 915 504 915 q 294 869 340 915 q 247 738 247 824 l 247 278 q 294 144 247 192 q 422 97 340 97 q 549 144 504 97 q 594 278 594 192 l 594 417 l 389 417 l 389 531 l 719 531 l 719 278 q 683 123 719 189 q 581 22 647 57 q 422 -14 514 -14 m 417 1118 q 256 1174 317 1118 q 194 1319 194 1229 l 293 1319 q 326 1232 293 1265 q 415 1199 360 1199 q 506 1232 472 1199 q 540 1319 540 1265 l 639 1319 q 578 1174 639 1229 q 417 1118 517 1118 z "},"Ǧ":{"ha":833,"x_min":122,"x_max":719,"o":"m 422 -14 q 263 21 331 -14 q 159 122 196 56 q 122 278 122 188 l 122 736 q 159 893 122 828 q 263 993 196 958 q 422 1028 331 1028 q 581 992 514 1028 q 683 892 647 957 q 719 736 719 826 l 594 736 q 549 869 594 822 q 422 915 504 915 q 294 869 340 915 q 247 738 247 824 l 247 278 q 294 144 247 192 q 422 97 340 97 q 549 144 504 97 q 594 278 594 192 l 594 417 l 389 417 l 389 531 l 719 531 l 719 278 q 683 123 719 189 q 581 22 647 57 q 422 -14 514 -14 m 360 1125 l 165 1319 l 303 1319 l 417 1211 l 528 1319 l 668 1319 l 475 1125 l 360 1125 z "},"Ĝ":{"ha":833,"x_min":122,"x_max":719,"o":"m 422 -14 q 263 21 331 -14 q 159 122 196 56 q 122 278 122 188 l 122 736 q 159 893 122 828 q 263 993 196 958 q 422 1028 331 1028 q 581 992 514 1028 q 683 892 647 957 q 719 736 719 826 l 594 736 q 549 869 594 822 q 422 915 504 915 q 294 869 340 915 q 247 738 247 824 l 247 278 q 294 144 247 192 q 422 97 340 97 q 549 144 504 97 q 594 278 594 192 l 594 417 l 389 417 l 389 531 l 719 531 l 719 278 q 683 123 719 189 q 581 22 647 57 q 422 -14 514 -14 m 165 1125 l 358 1319 l 474 1319 l 668 1125 l 531 1125 l 417 1233 l 306 1125 l 165 1125 z "},"Ģ":{"ha":833,"x_min":122,"x_max":719,"o":"m 422 -14 q 263 21 331 -14 q 159 122 196 56 q 122 278 122 188 l 122 736 q 159 893 122 828 q 263 993 196 958 q 422 1028 331 1028 q 581 992 514 1028 q 683 892 647 957 q 719 736 719 826 l 594 736 q 549 869 594 822 q 422 915 504 915 q 294 869 340 915 q 247 738 247 824 l 247 278 q 294 144 247 192 q 422 97 340 97 q 549 144 504 97 q 594 278 594 192 l 594 417 l 389 417 l 389 531 l 719 531 l 719 278 q 683 123 719 189 q 581 22 647 57 q 422 -14 514 -14 m 269 -333 l 401 -132 l 547 -132 l 401 -333 l 269 -333 z "},"Ġ":{"ha":833,"x_min":122,"x_max":719,"o":"m 422 -14 q 263 21 331 -14 q 159 122 196 56 q 122 278 122 188 l 122 736 q 159 893 122 828 q 263 993 196 958 q 422 1028 331 1028 q 581 992 514 1028 q 683 892 647 957 q 719 736 719 826 l 594 736 q 549 869 594 822 q 422 915 504 915 q 294 869 340 915 q 247 738 247 824 l 247 278 q 294 144 247 192 q 422 97 340 97 q 549 144 504 97 q 594 278 594 192 l 594 417 l 389 417 l 389 531 l 719 531 l 719 278 q 683 123 719 189 q 581 22 647 57 q 422 -14 514 -14 m 417 1133 q 344 1158 371 1133 q 318 1222 318 1182 q 344 1287 318 1263 q 417 1311 371 1311 q 489 1287 463 1311 q 515 1222 515 1263 q 489 1158 515 1182 q 417 1133 463 1133 z "},"H":{"ha":833,"x_min":129,"x_max":704,"o":"m 129 0 l 129 1014 l 254 1014 l 254 581 l 579 581 l 579 1014 l 704 1014 l 704 0 l 579 0 l 579 467 l 254 467 l 254 0 l 129 0 z "},"Ħ":{"ha":833,"x_min":14,"x_max":819,"o":"m 14 729 l 14 833 l 819 833 l 819 729 l 14 729 m 129 0 l 129 1014 l 254 1014 l 254 581 l 579 581 l 579 1014 l 704 1014 l 704 0 l 579 0 l 579 467 l 254 467 l 254 0 l 129 0 z "},"Ĥ":{"ha":833,"x_min":129,"x_max":704,"o":"m 129 0 l 129 1014 l 254 1014 l 254 581 l 579 581 l 579 1014 l 704 1014 l 704 0 l 579 0 l 579 467 l 254 467 l 254 0 l 129 0 m 165 1125 l 358 1319 l 474 1319 l 668 1125 l 531 1125 l 417 1233 l 306 1125 l 165 1125 z "},"I":{"ha":833,"x_min":146,"x_max":688,"o":"m 146 0 l 146 114 l 353 114 l 353 900 l 146 900 l 146 1014 l 688 1014 l 688 900 l 481 900 l 481 114 l 688 114 l 688 0 l 146 0 z "},"Í":{"ha":833,"x_min":146,"x_max":688,"o":"m 146 0 l 146 114 l 353 114 l 353 900 l 146 900 l 146 1014 l 688 1014 l 688 900 l 481 900 l 481 114 l 688 114 l 688 0 l 146 0 m 336 1125 l 483 1319 l 618 1319 l 464 1125 l 336 1125 z "},"Ĭ":{"ha":833,"x_min":146,"x_max":688,"o":"m 146 0 l 146 114 l 353 114 l 353 900 l 146 900 l 146 1014 l 688 1014 l 688 900 l 481 900 l 481 114 l 688 114 l 688 0 l 146 0 m 417 1118 q 256 1174 317 1118 q 194 1319 194 1229 l 293 1319 q 326 1232 293 1265 q 415 1199 360 1199 q 506 1232 472 1199 q 540 1319 540 1265 l 639 1319 q 578 1174 639 1229 q 417 1118 517 1118 z "},"Î":{"ha":833,"x_min":146,"x_max":688,"o":"m 146 0 l 146 114 l 353 114 l 353 900 l 146 900 l 146 1014 l 688 1014 l 688 900 l 481 900 l 481 114 l 688 114 l 688 0 l 146 0 m 165 1125 l 358 1319 l 474 1319 l 668 1125 l 531 1125 l 417 1233 l 306 1125 l 165 1125 z "},"Ï":{"ha":833,"x_min":146,"x_max":688,"o":"m 146 0 l 146 114 l 353 114 l 353 900 l 146 900 l 146 1014 l 688 1014 l 688 900 l 481 900 l 481 114 l 688 114 l 688 0 l 146 0 m 571 1135 q 506 1158 531 1135 q 482 1222 482 1182 q 506 1288 482 1264 q 571 1313 531 1313 q 635 1288 611 1313 q 660 1222 660 1264 q 635 1158 660 1182 q 571 1135 611 1135 m 263 1135 q 198 1158 222 1135 q 174 1222 174 1182 q 198 1288 174 1264 q 263 1313 222 1313 q 327 1288 303 1313 q 351 1222 351 1264 q 327 1158 351 1182 q 263 1135 303 1135 z "},"İ":{"ha":833,"x_min":146,"x_max":688,"o":"m 146 0 l 146 114 l 353 114 l 353 900 l 146 900 l 146 1014 l 688 1014 l 688 900 l 481 900 l 481 114 l 688 114 l 688 0 l 146 0 m 417 1133 q 344 1158 371 1133 q 318 1222 318 1182 q 344 1287 318 1263 q 417 1311 371 1311 q 489 1287 463 1311 q 515 1222 515 1263 q 489 1158 515 1182 q 417 1133 463 1133 z "},"Ị":{"ha":833,"x_min":146,"x_max":688,"o":"m 146 0 l 146 114 l 353 114 l 353 900 l 146 900 l 146 1014 l 688 1014 l 688 900 l 481 900 l 481 114 l 688 114 l 688 0 l 146 0 m 417 -296 q 344 -272 371 -296 q 318 -208 318 -249 q 344 -142 318 -167 q 417 -118 371 -118 q 489 -142 463 -118 q 515 -208 515 -167 q 489 -272 515 -249 q 417 -296 463 -296 z "},"Ì":{"ha":833,"x_min":146,"x_max":688,"o":"m 146 0 l 146 114 l 353 114 l 353 900 l 146 900 l 146 1014 l 688 1014 l 688 900 l 481 900 l 481 114 l 688 114 l 688 0 l 146 0 m 371 1125 l 211 1319 l 350 1319 l 503 1125 l 371 1125 z "},"Ỉ":{"ha":833,"x_min":146,"x_max":688,"o":"m 146 0 l 146 114 l 353 114 l 353 900 l 146 900 l 146 1014 l 688 1014 l 688 900 l 481 900 l 481 114 l 688 114 l 688 0 l 146 0 m 358 1111 l 421 1199 q 440 1243 440 1226 q 396 1271 440 1271 l 292 1271 l 292 1361 l 403 1361 q 508 1333 468 1361 q 549 1257 549 1304 q 525 1183 549 1218 l 476 1111 l 358 1111 z "},"Ī":{"ha":833,"x_min":146,"x_max":688,"o":"m 146 0 l 146 114 l 353 114 l 353 900 l 146 900 l 146 1014 l 688 1014 l 688 900 l 481 900 l 481 114 l 688 114 l 688 0 l 146 0 m 194 1167 l 194 1271 l 639 1271 l 639 1167 l 194 1167 z "},"Į":{"ha":833,"x_min":146,"x_max":688,"o":"m 426 -282 q 303 -245 350 -282 q 257 -153 257 -208 q 283 -72 257 -112 q 375 14 310 -32 l 479 14 l 464 1 q 396 -69 417 -37 q 375 -129 375 -100 q 396 -179 375 -160 q 451 -199 417 -199 l 535 -199 l 535 -282 l 426 -282 m 146 0 l 146 114 l 353 114 l 353 900 l 146 900 l 146 1014 l 688 1014 l 688 900 l 481 900 l 481 114 l 688 114 l 688 0 l 146 0 z "},"Ĩ":{"ha":833,"x_min":146,"x_max":688,"o":"m 146 0 l 146 114 l 353 114 l 353 900 l 146 900 l 146 1014 l 688 1014 l 688 900 l 481 900 l 481 114 l 688 114 l 688 0 l 146 0 m 514 1132 q 446 1147 472 1132 q 401 1181 419 1161 q 367 1215 383 1200 q 326 1229 350 1229 q 297 1217 308 1229 q 285 1181 285 1206 l 285 1139 l 194 1139 l 194 1181 q 229 1278 194 1243 q 319 1313 264 1313 q 388 1298 361 1313 q 432 1264 414 1283 q 467 1230 450 1244 q 507 1215 483 1215 q 538 1227 526 1215 q 549 1264 549 1239 l 549 1306 l 639 1306 l 639 1264 q 605 1167 639 1201 q 514 1132 571 1132 z "},"J":{"ha":833,"x_min":63,"x_max":688,"o":"m 375 -14 q 146 68 229 -14 q 63 292 63 150 l 188 292 q 237 148 188 199 q 375 97 286 97 q 513 148 464 97 q 563 292 563 199 l 563 1014 l 688 1014 l 688 292 q 603 68 688 150 q 375 -14 519 -14 z "},"Ĵ":{"ha":833,"x_min":63,"x_max":876,"o":"m 375 -14 q 146 68 229 -14 q 63 292 63 150 l 188 292 q 237 148 188 199 q 375 97 286 97 q 513 148 464 97 q 563 292 563 199 l 563 1014 l 688 1014 l 688 292 q 603 68 688 150 q 375 -14 519 -14 m 374 1125 l 567 1319 l 682 1319 l 876 1125 l 739 1125 l 625 1233 l 514 1125 l 374 1125 z "},"K":{"ha":833,"x_min":128,"x_max":778,"o":"m 128 0 l 128 1014 l 253 1014 l 253 578 l 403 578 l 628 1014 l 764 1014 l 513 525 l 778 0 l 635 0 l 399 468 l 253 468 l 253 0 l 128 0 z "},"Ķ":{"ha":833,"x_min":128,"x_max":778,"o":"m 128 0 l 128 1014 l 253 1014 l 253 578 l 403 578 l 628 1014 l 764 1014 l 513 525 l 778 0 l 635 0 l 399 468 l 253 468 l 253 0 l 128 0 m 264 -333 l 396 -132 l 542 -132 l 396 -333 l 264 -333 z "},"L":{"ha":833,"x_min":181,"x_max":764,"o":"m 181 0 l 181 1014 l 306 1014 l 306 114 l 764 114 l 764 0 l 181 0 z "},"Ĺ":{"ha":833,"x_min":163,"x_max":764,"o":"m 181 0 l 181 1014 l 306 1014 l 306 114 l 764 114 l 764 0 l 181 0 m 163 1125 l 310 1319 l 444 1319 l 290 1125 l 163 1125 z "},"Ľ":{"ha":833,"x_min":181,"x_max":764,"o":"m 181 0 l 181 1014 l 306 1014 l 306 114 l 764 114 l 764 0 l 181 0 m 479 764 l 500 1014 l 617 1014 l 583 764 l 479 764 z "},"Ļ":{"ha":833,"x_min":181,"x_max":764,"o":"m 181 0 l 181 1014 l 306 1014 l 306 114 l 764 114 l 764 0 l 181 0 m 319 -333 l 451 -132 l 597 -132 l 451 -333 l 319 -333 z "},"Ŀ":{"ha":833,"x_min":181,"x_max":764,"o":"m 181 0 l 181 1014 l 306 1014 l 306 114 l 764 114 l 764 0 l 181 0 m 646 368 q 563 399 594 368 q 532 478 532 429 q 563 561 532 529 q 646 593 594 593 q 728 561 697 593 q 760 478 760 529 q 728 399 760 429 q 646 368 697 368 z "},"Ł":{"ha":833,"x_min":28,"x_max":764,"o":"m 28 319 l 28 431 l 542 778 l 542 667 l 28 319 m 181 0 l 181 1014 l 306 1014 l 306 114 l 764 114 l 764 0 l 181 0 z "},"M":{"ha":833,"x_min":100,"x_max":733,"o":"m 100 0 l 100 1014 l 285 1014 l 414 575 l 549 1014 l 733 1014 l 733 0 l 613 0 l 613 479 q 615 635 613 547 q 621 814 617 724 q 631 976 625 904 l 467 453 l 358 453 l 201 964 q 214 818 210 896 q 219 656 218 740 q 221 479 221 571 l 221 0 l 100 0 z "},"N":{"ha":833,"x_min":125,"x_max":708,"o":"m 125 0 l 125 1014 l 292 1014 l 601 146 q 595 231 599 181 q 590 338 592 282 q 588 444 588 394 l 588 1014 l 708 1014 l 708 0 l 542 0 l 233 868 q 239 784 236 835 q 244 677 242 733 q 246 569 246 621 l 246 0 l 125 0 z "},"Ń":{"ha":833,"x_min":125,"x_max":708,"o":"m 125 0 l 125 1014 l 292 1014 l 601 146 q 595 231 599 181 q 590 338 592 282 q 588 444 588 394 l 588 1014 l 708 1014 l 708 0 l 542 0 l 233 868 q 239 784 236 835 q 244 677 242 733 q 246 569 246 621 l 246 0 l 125 0 m 336 1125 l 483 1319 l 618 1319 l 464 1125 l 336 1125 z "},"Ň":{"ha":833,"x_min":125,"x_max":708,"o":"m 125 0 l 125 1014 l 292 1014 l 601 146 q 595 231 599 181 q 590 338 592 282 q 588 444 588 394 l 588 1014 l 708 1014 l 708 0 l 542 0 l 233 868 q 239 784 236 835 q 244 677 242 733 q 246 569 246 621 l 246 0 l 125 0 m 360 1125 l 165 1319 l 303 1319 l 417 1211 l 528 1319 l 668 1319 l 475 1125 l 360 1125 z "},"Ņ":{"ha":833,"x_min":125,"x_max":708,"o":"m 125 0 l 125 1014 l 292 1014 l 601 146 q 595 231 599 181 q 590 338 592 282 q 588 444 588 394 l 588 1014 l 708 1014 l 708 0 l 542 0 l 233 868 q 239 784 236 835 q 244 677 242 733 q 246 569 246 621 l 246 0 l 125 0 m 264 -333 l 396 -132 l 542 -132 l 396 -333 l 264 -333 z "},"Ŋ":{"ha":833,"x_min":125,"x_max":708,"o":"m 333 -250 l 333 -136 l 424 -136 q 540 -94 497 -136 q 583 21 583 -51 l 233 868 q 239 784 236 835 q 244 677 242 733 q 246 569 246 621 l 246 0 l 125 0 l 125 1014 l 292 1014 l 601 251 q 595 337 599 286 q 590 444 592 388 q 588 551 588 501 l 588 1014 l 708 1014 l 708 21 q 673 -122 708 -61 q 574 -217 638 -183 q 424 -250 510 -250 l 333 -250 z "},"Ñ":{"ha":833,"x_min":125,"x_max":708,"o":"m 125 0 l 125 1014 l 292 1014 l 601 146 q 595 231 599 181 q 590 338 592 282 q 588 444 588 394 l 588 1014 l 708 1014 l 708 0 l 542 0 l 233 868 q 239 784 236 835 q 244 677 242 733 q 246 569 246 621 l 246 0 l 125 0 m 514 1132 q 446 1147 472 1132 q 401 1181 419 1161 q 367 1215 383 1200 q 326 1229 350 1229 q 297 1217 308 1229 q 285 1181 285 1206 l 285 1139 l 194 1139 l 194 1181 q 229 1278 194 1243 q 319 1313 264 1313 q 388 1298 361 1313 q 432 1264 414 1283 q 467 1230 450 1244 q 507 1215 483 1215 q 538 1227 526 1215 q 549 1264 549 1239 l 549 1306 l 639 1306 l 639 1264 q 605 1167 639 1201 q 514 1132 571 1132 z "},"O":{"ha":833,"x_min":122,"x_max":711,"o":"m 417 -14 q 201 65 281 -14 q 122 292 122 144 l 122 722 q 201 949 122 869 q 417 1028 281 1028 q 632 949 553 1028 q 711 724 711 869 l 711 292 q 632 65 711 144 q 417 -14 553 -14 m 417 99 q 542 145 499 99 q 586 278 586 192 l 586 736 q 542 869 586 822 q 417 915 499 915 q 292 869 336 915 q 247 736 247 822 l 247 278 q 292 145 247 192 q 417 99 336 99 z "},"Ó":{"ha":833,"x_min":122,"x_max":711,"o":"m 417 -14 q 201 65 281 -14 q 122 292 122 144 l 122 722 q 201 949 122 869 q 417 1028 281 1028 q 632 949 553 1028 q 711 724 711 869 l 711 292 q 632 65 711 144 q 417 -14 553 -14 m 417 99 q 542 145 499 99 q 586 278 586 192 l 586 736 q 542 869 586 822 q 417 915 499 915 q 292 869 336 915 q 247 736 247 822 l 247 278 q 292 145 247 192 q 417 99 336 99 m 336 1125 l 483 1319 l 618 1319 l 464 1125 l 336 1125 z "},"Ŏ":{"ha":833,"x_min":122,"x_max":711,"o":"m 417 -14 q 201 65 281 -14 q 122 292 122 144 l 122 722 q 201 949 122 869 q 417 1028 281 1028 q 632 949 553 1028 q 711 724 711 869 l 711 292 q 632 65 711 144 q 417 -14 553 -14 m 417 99 q 542 145 499 99 q 586 278 586 192 l 586 736 q 542 869 586 822 q 417 915 499 915 q 292 869 336 915 q 247 736 247 822 l 247 278 q 292 145 247 192 q 417 99 336 99 m 417 1118 q 256 1174 317 1118 q 194 1319 194 1229 l 293 1319 q 326 1232 293 1265 q 415 1199 360 1199 q 506 1232 472 1199 q 540 1319 540 1265 l 639 1319 q 578 1174 639 1229 q 417 1118 517 1118 z "},"Ô":{"ha":833,"x_min":122,"x_max":711,"o":"m 417 -14 q 201 65 281 -14 q 122 292 122 144 l 122 722 q 201 949 122 869 q 417 1028 281 1028 q 632 949 553 1028 q 711 724 711 869 l 711 292 q 632 65 711 144 q 417 -14 553 -14 m 417 99 q 542 145 499 99 q 586 278 586 192 l 586 736 q 542 869 586 822 q 417 915 499 915 q 292 869 336 915 q 247 736 247 822 l 247 278 q 292 145 247 192 q 417 99 336 99 m 165 1125 l 358 1319 l 474 1319 l 668 1125 l 531 1125 l 417 1233 l 306 1125 l 165 1125 z "},"Ố":{"ha":833,"x_min":122,"x_max":854,"o":"m 417 -14 q 201 65 281 -14 q 122 292 122 144 l 122 722 q 201 949 122 869 q 417 1028 281 1028 q 632 949 553 1028 q 711 724 711 869 l 711 292 q 632 65 711 144 q 417 -14 553 -14 m 417 99 q 542 145 499 99 q 586 278 586 192 l 586 736 q 542 869 586 822 q 417 915 499 915 q 292 869 336 915 q 247 736 247 822 l 247 278 q 292 145 247 192 q 417 99 336 99 m 567 1250 l 713 1417 l 854 1417 l 701 1250 l 567 1250 m 167 1083 l 358 1278 l 475 1278 l 668 1083 l 528 1083 l 417 1192 l 304 1083 l 167 1083 z "},"Ộ":{"ha":833,"x_min":122,"x_max":711,"o":"m 417 -14 q 201 65 281 -14 q 122 292 122 144 l 122 722 q 201 949 122 869 q 417 1028 281 1028 q 632 949 553 1028 q 711 724 711 869 l 711 292 q 632 65 711 144 q 417 -14 553 -14 m 417 99 q 542 145 499 99 q 586 278 586 192 l 586 736 q 542 869 586 822 q 417 915 499 915 q 292 869 336 915 q 247 736 247 822 l 247 278 q 292 145 247 192 q 417 99 336 99 m 417 -296 q 344 -272 371 -296 q 318 -208 318 -249 q 344 -142 318 -167 q 417 -118 371 -118 q 489 -142 463 -118 q 515 -208 515 -167 q 489 -272 515 -249 q 417 -296 463 -296 m 165 1125 l 358 1319 l 474 1319 l 668 1125 l 531 1125 l 417 1233 l 306 1125 l 165 1125 z "},"Ồ":{"ha":833,"x_min":122,"x_max":750,"o":"m 417 -14 q 201 65 281 -14 q 122 292 122 144 l 122 722 q 201 949 122 869 q 417 1028 281 1028 q 632 949 553 1028 q 711 724 711 869 l 711 292 q 632 65 711 144 q 417 -14 553 -14 m 417 99 q 542 145 499 99 q 586 278 586 192 l 586 736 q 542 869 586 822 q 417 915 499 915 q 292 869 336 915 q 247 736 247 822 l 247 278 q 292 145 247 192 q 417 99 336 99 m 618 1250 l 451 1417 l 590 1417 l 750 1250 l 618 1250 m 167 1083 l 358 1278 l 475 1278 l 668 1083 l 528 1083 l 417 1192 l 304 1083 l 167 1083 z "},"Ổ":{"ha":833,"x_min":122,"x_max":764,"o":"m 417 -14 q 201 65 281 -14 q 122 292 122 144 l 122 722 q 201 949 122 869 q 417 1028 281 1028 q 632 949 553 1028 q 711 724 711 869 l 711 292 q 632 65 711 144 q 417 -14 553 -14 m 417 99 q 542 145 499 99 q 586 278 586 192 l 586 736 q 542 869 586 822 q 417 915 499 915 q 292 869 336 915 q 247 736 247 822 l 247 278 q 292 145 247 192 q 417 99 336 99 m 583 1222 l 650 1288 q 661 1314 661 1299 q 640 1336 661 1336 l 549 1336 l 549 1417 l 667 1417 q 738 1393 711 1417 q 764 1331 764 1369 q 758 1297 764 1313 q 742 1269 753 1281 l 692 1222 l 583 1222 m 167 1083 l 358 1278 l 475 1278 l 668 1083 l 528 1083 l 417 1192 l 304 1083 l 167 1083 z "},"Ỗ":{"ha":833,"x_min":122,"x_max":711,"o":"m 417 -14 q 201 65 281 -14 q 122 292 122 144 l 122 722 q 201 949 122 869 q 417 1028 281 1028 q 632 949 553 1028 q 711 724 711 869 l 711 292 q 632 65 711 144 q 417 -14 553 -14 m 417 99 q 542 145 499 99 q 586 278 586 192 l 586 736 q 542 869 586 822 q 417 915 499 915 q 292 869 336 915 q 247 736 247 822 l 247 278 q 292 145 247 192 q 417 99 336 99 m 524 1278 q 451 1288 481 1278 q 401 1310 422 1297 q 362 1333 381 1324 q 319 1343 343 1343 q 290 1332 301 1343 q 278 1301 278 1321 l 278 1292 l 188 1292 l 188 1301 q 222 1385 188 1354 q 313 1417 256 1417 q 385 1407 357 1417 q 434 1384 414 1397 q 472 1361 454 1371 q 514 1351 490 1351 q 544 1363 533 1351 q 556 1393 556 1375 l 556 1403 l 646 1403 l 646 1393 q 613 1309 646 1340 q 524 1278 581 1278 m 167 1083 l 328 1236 l 506 1236 l 667 1083 l 526 1083 l 417 1185 l 304 1083 l 167 1083 z "},"Ö":{"ha":833,"x_min":122,"x_max":711,"o":"m 417 -14 q 201 65 281 -14 q 122 292 122 144 l 122 722 q 201 949 122 869 q 417 1028 281 1028 q 632 949 553 1028 q 711 724 711 869 l 711 292 q 632 65 711 144 q 417 -14 553 -14 m 417 99 q 542 145 499 99 q 586 278 586 192 l 586 736 q 542 869 586 822 q 417 915 499 915 q 292 869 336 915 q 247 736 247 822 l 247 278 q 292 145 247 192 q 417 99 336 99 m 571 1135 q 506 1158 531 1135 q 482 1222 482 1182 q 506 1288 482 1264 q 571 1313 531 1313 q 635 1288 611 1313 q 660 1222 660 1264 q 635 1158 660 1182 q 571 1135 611 1135 m 263 1135 q 198 1158 222 1135 q 174 1222 174 1182 q 198 1288 174 1264 q 263 1313 222 1313 q 327 1288 303 1313 q 351 1222 351 1264 q 327 1158 351 1182 q 263 1135 303 1135 z "},"Ọ":{"ha":833,"x_min":122,"x_max":711,"o":"m 417 -14 q 201 65 281 -14 q 122 292 122 144 l 122 722 q 201 949 122 869 q 417 1028 281 1028 q 632 949 553 1028 q 711 724 711 869 l 711 292 q 632 65 711 144 q 417 -14 553 -14 m 417 99 q 542 145 499 99 q 586 278 586 192 l 586 736 q 542 869 586 822 q 417 915 499 915 q 292 869 336 915 q 247 736 247 822 l 247 278 q 292 145 247 192 q 417 99 336 99 m 417 -296 q 344 -272 371 -296 q 318 -208 318 -249 q 344 -142 318 -167 q 417 -118 371 -118 q 489 -142 463 -118 q 515 -208 515 -167 q 489 -272 515 -249 q 417 -296 463 -296 z "},"Ò":{"ha":833,"x_min":122,"x_max":711,"o":"m 417 -14 q 201 65 281 -14 q 122 292 122 144 l 122 722 q 201 949 122 869 q 417 1028 281 1028 q 632 949 553 1028 q 711 724 711 869 l 711 292 q 632 65 711 144 q 417 -14 553 -14 m 417 99 q 542 145 499 99 q 586 278 586 192 l 586 736 q 542 869 586 822 q 417 915 499 915 q 292 869 336 915 q 247 736 247 822 l 247 278 q 292 145 247 192 q 417 99 336 99 m 371 1125 l 211 1319 l 350 1319 l 503 1125 l 371 1125 z "},"Ỏ":{"ha":833,"x_min":122,"x_max":711,"o":"m 417 -14 q 201 65 281 -14 q 122 292 122 144 l 122 722 q 201 949 122 869 q 417 1028 281 1028 q 632 949 553 1028 q 711 724 711 869 l 711 292 q 632 65 711 144 q 417 -14 553 -14 m 417 99 q 542 145 499 99 q 586 278 586 192 l 586 736 q 542 869 586 822 q 417 915 499 915 q 292 869 336 915 q 247 736 247 822 l 247 278 q 292 145 247 192 q 417 99 336 99 m 358 1111 l 421 1199 q 440 1243 440 1226 q 396 1271 440 1271 l 292 1271 l 292 1361 l 403 1361 q 508 1333 468 1361 q 549 1257 549 1304 q 525 1183 549 1218 l 476 1111 l 358 1111 z "},"Ơ":{"ha":833,"x_min":122,"x_max":736,"o":"m 556 882 l 556 972 l 583 972 q 619 985 606 972 q 632 1021 632 999 l 632 1125 l 736 1125 l 736 1014 q 697 918 736 954 q 590 882 657 882 l 556 882 m 417 -14 q 201 65 281 -14 q 122 292 122 144 l 122 722 q 201 949 122 869 q 417 1028 281 1028 q 632 949 553 1028 q 711 724 711 869 l 711 292 q 632 65 711 144 q 417 -14 553 -14 m 417 99 q 542 145 499 99 q 586 278 586 192 l 586 736 q 542 869 586 822 q 417 915 499 915 q 292 869 336 915 q 247 736 247 822 l 247 278 q 292 145 247 192 q 417 99 336 99 z "},"Ớ":{"ha":833,"x_min":122,"x_max":736,"o":"m 556 882 l 556 972 l 583 972 q 619 985 606 972 q 632 1021 632 999 l 632 1125 l 736 1125 l 736 1014 q 697 918 736 954 q 590 882 657 882 l 556 882 m 417 -14 q 201 65 281 -14 q 122 292 122 144 l 122 722 q 201 949 122 869 q 417 1028 281 1028 q 632 949 553 1028 q 711 724 711 869 l 711 292 q 632 65 711 144 q 417 -14 553 -14 m 417 99 q 542 145 499 99 q 586 278 586 192 l 586 736 q 542 869 586 822 q 417 915 499 915 q 292 869 336 915 q 247 736 247 822 l 247 278 q 292 145 247 192 q 417 99 336 99 m 322 1125 l 469 1319 l 604 1319 l 450 1125 l 322 1125 z "},"Ợ":{"ha":833,"x_min":122,"x_max":736,"o":"m 556 882 l 556 972 l 583 972 q 619 985 606 972 q 632 1021 632 999 l 632 1125 l 736 1125 l 736 1014 q 697 918 736 954 q 590 882 657 882 l 556 882 m 417 -14 q 201 65 281 -14 q 122 292 122 144 l 122 722 q 201 949 122 869 q 417 1028 281 1028 q 632 949 553 1028 q 711 724 711 869 l 711 292 q 632 65 711 144 q 417 -14 553 -14 m 417 99 q 542 145 499 99 q 586 278 586 192 l 586 736 q 542 869 586 822 q 417 915 499 915 q 292 869 336 915 q 247 736 247 822 l 247 278 q 292 145 247 192 q 417 99 336 99 m 417 -296 q 344 -272 371 -296 q 318 -208 318 -249 q 344 -142 318 -167 q 417 -118 371 -118 q 489 -142 463 -118 q 515 -208 515 -167 q 489 -272 515 -249 q 417 -296 463 -296 z "},"Ờ":{"ha":833,"x_min":122,"x_max":736,"o":"m 556 882 l 556 972 l 583 972 q 619 985 606 972 q 632 1021 632 999 l 632 1125 l 736 1125 l 736 1014 q 697 918 736 954 q 590 882 657 882 l 556 882 m 417 -14 q 201 65 281 -14 q 122 292 122 144 l 122 722 q 201 949 122 869 q 417 1028 281 1028 q 632 949 553 1028 q 711 724 711 869 l 711 292 q 632 65 711 144 q 417 -14 553 -14 m 417 99 q 542 145 499 99 q 586 278 586 192 l 586 736 q 542 869 586 822 q 417 915 499 915 q 292 869 336 915 q 247 736 247 822 l 247 278 q 292 145 247 192 q 417 99 336 99 m 357 1125 l 197 1319 l 336 1319 l 489 1125 l 357 1125 z "},"Ở":{"ha":833,"x_min":122,"x_max":736,"o":"m 556 882 l 556 972 l 583 972 q 619 985 606 972 q 632 1021 632 999 l 632 1125 l 736 1125 l 736 1014 q 697 918 736 954 q 590 882 657 882 l 556 882 m 417 -14 q 201 65 281 -14 q 122 292 122 144 l 122 722 q 201 949 122 869 q 417 1028 281 1028 q 632 949 553 1028 q 711 724 711 869 l 711 292 q 632 65 711 144 q 417 -14 553 -14 m 417 99 q 542 145 499 99 q 586 278 586 192 l 586 736 q 542 869 586 822 q 417 915 499 915 q 292 869 336 915 q 247 736 247 822 l 247 278 q 292 145 247 192 q 417 99 336 99 m 344 1111 l 407 1199 q 426 1243 426 1226 q 382 1271 426 1271 l 278 1271 l 278 1361 l 389 1361 q 494 1333 454 1361 q 535 1257 535 1304 q 511 1183 535 1218 l 463 1111 l 344 1111 z "},"Ỡ":{"ha":833,"x_min":122,"x_max":736,"o":"m 556 882 l 556 972 l 583 972 q 619 985 606 972 q 632 1021 632 999 l 632 1125 l 736 1125 l 736 1014 q 697 918 736 954 q 590 882 657 882 l 556 882 m 417 -14 q 201 65 281 -14 q 122 292 122 144 l 122 722 q 201 949 122 869 q 417 1028 281 1028 q 632 949 553 1028 q 711 724 711 869 l 711 292 q 632 65 711 144 q 417 -14 553 -14 m 417 99 q 542 145 499 99 q 586 278 586 192 l 586 736 q 542 869 586 822 q 417 915 499 915 q 292 869 336 915 q 247 736 247 822 l 247 278 q 292 145 247 192 q 417 99 336 99 m 500 1132 q 432 1147 458 1132 q 388 1181 406 1161 q 353 1215 369 1200 q 313 1229 336 1229 q 283 1217 294 1229 q 271 1181 271 1206 l 271 1139 l 181 1139 l 181 1181 q 215 1278 181 1243 q 306 1313 250 1313 q 374 1298 347 1313 q 418 1264 400 1283 q 453 1230 436 1244 q 493 1215 469 1215 q 524 1227 513 1215 q 535 1264 535 1239 l 535 1306 l 625 1306 l 625 1264 q 591 1167 625 1201 q 500 1132 557 1132 z "},"Ő":{"ha":833,"x_min":122,"x_max":733,"o":"m 417 -14 q 201 65 281 -14 q 122 292 122 144 l 122 722 q 201 949 122 869 q 417 1028 281 1028 q 632 949 553 1028 q 711 724 711 869 l 711 292 q 632 65 711 144 q 417 -14 553 -14 m 417 99 q 542 145 499 99 q 586 278 586 192 l 586 736 q 542 869 586 822 q 417 915 499 915 q 292 869 336 915 q 247 736 247 822 l 247 278 q 292 145 247 192 q 417 99 336 99 m 453 1125 l 606 1319 l 733 1319 l 574 1125 l 453 1125 m 204 1125 l 357 1319 l 485 1319 l 325 1125 l 204 1125 z "},"Ō":{"ha":833,"x_min":122,"x_max":711,"o":"m 417 -14 q 201 65 281 -14 q 122 292 122 144 l 122 722 q 201 949 122 869 q 417 1028 281 1028 q 632 949 553 1028 q 711 724 711 869 l 711 292 q 632 65 711 144 q 417 -14 553 -14 m 417 99 q 542 145 499 99 q 586 278 586 192 l 586 736 q 542 869 586 822 q 417 915 499 915 q 292 869 336 915 q 247 736 247 822 l 247 278 q 292 145 247 192 q 417 99 336 99 m 194 1167 l 194 1271 l 639 1271 l 639 1167 l 194 1167 z "},"Ǫ":{"ha":833,"x_min":122,"x_max":711,"o":"m 526 -282 q 403 -245 450 -282 q 357 -153 357 -208 q 366 -110 357 -133 q 392 -62 375 -87 q 435 -14 410 -37 q 426 -14 431 -14 q 417 -14 421 -14 q 259 21 325 -14 q 158 122 193 56 q 122 278 122 188 l 122 736 q 158 893 122 828 q 259 993 193 958 q 417 1028 325 1028 q 574 993 508 1028 q 676 893 640 958 q 711 738 711 828 l 711 278 q 681 133 711 196 q 597 35 651 71 l 557 1 q 493 -69 511 -37 q 475 -129 475 -100 q 496 -179 475 -160 q 551 -199 517 -199 l 635 -199 l 635 -282 l 526 -282 m 417 99 q 542 145 499 99 q 586 278 586 192 l 586 736 q 542 869 586 822 q 417 915 499 915 q 292 869 336 915 q 247 736 247 822 l 247 278 q 292 145 247 192 q 417 99 336 99 z "},"Ø":{"ha":833,"x_min":49,"x_max":785,"o":"m 49 -56 l 668 1042 l 785 1042 l 165 -56 l 49 -56 m 417 -14 q 259 21 325 -14 q 158 122 193 56 q 122 278 122 188 l 122 736 q 158 893 122 828 q 259 993 193 958 q 417 1028 325 1028 q 574 993 508 1028 q 676 893 640 958 q 711 738 711 828 l 711 278 q 676 122 711 188 q 574 21 640 56 q 417 -14 508 -14 m 417 99 q 542 145 499 99 q 586 278 586 192 l 586 736 q 542 869 586 822 q 417 915 499 915 q 292 869 336 915 q 247 736 247 822 l 247 278 q 292 145 247 192 q 417 99 336 99 z "},"Ǿ":{"ha":833,"x_min":49,"x_max":785,"o":"m 49 -56 l 668 1042 l 785 1042 l 165 -56 l 49 -56 m 417 -14 q 259 21 325 -14 q 158 122 193 56 q 122 278 122 188 l 122 736 q 158 893 122 828 q 259 993 193 958 q 417 1028 325 1028 q 574 993 508 1028 q 676 893 640 958 q 711 738 711 828 l 711 278 q 676 122 711 188 q 574 21 640 56 q 417 -14 508 -14 m 417 99 q 542 145 499 99 q 586 278 586 192 l 586 736 q 542 869 586 822 q 417 915 499 915 q 292 869 336 915 q 247 736 247 822 l 247 278 q 292 145 247 192 q 417 99 336 99 m 336 1125 l 483 1319 l 618 1319 l 464 1125 l 336 1125 z "},"Õ":{"ha":833,"x_min":122,"x_max":711,"o":"m 417 -14 q 201 65 281 -14 q 122 292 122 144 l 122 722 q 201 949 122 869 q 417 1028 281 1028 q 632 949 553 1028 q 711 724 711 869 l 711 292 q 632 65 711 144 q 417 -14 553 -14 m 417 99 q 542 145 499 99 q 586 278 586 192 l 586 736 q 542 869 586 822 q 417 915 499 915 q 292 869 336 915 q 247 736 247 822 l 247 278 q 292 145 247 192 q 417 99 336 99 m 514 1132 q 446 1147 472 1132 q 401 1181 419 1161 q 367 1215 383 1200 q 326 1229 350 1229 q 297 1217 308 1229 q 285 1181 285 1206 l 285 1139 l 194 1139 l 194 1181 q 229 1278 194 1243 q 319 1313 264 1313 q 388 1298 361 1313 q 432 1264 414 1283 q 467 1230 450 1244 q 507 1215 483 1215 q 538 1227 526 1215 q 549 1264 549 1239 l 549 1306 l 639 1306 l 639 1264 q 605 1167 639 1201 q 514 1132 571 1132 z "},"Œ":{"ha":833,"x_min":56,"x_max":799,"o":"m 271 -14 q 156 18 204 -14 q 81 110 107 50 q 56 250 56 169 l 56 764 q 81 905 56 846 q 156 996 107 964 q 271 1028 204 1028 q 351 1008 319 1028 q 401 959 383 988 q 424 903 419 931 l 431 903 l 431 1014 l 799 1014 l 799 900 l 553 900 l 553 581 l 764 581 l 764 467 l 553 467 l 553 114 l 799 114 l 799 0 l 431 0 l 431 111 l 424 111 q 401 56 419 85 q 351 6 383 26 q 271 -14 319 -14 m 306 97 q 397 138 364 97 q 431 250 431 179 l 431 764 q 397 876 431 835 q 306 917 364 917 q 214 876 247 917 q 181 764 181 835 l 181 250 q 214 138 181 179 q 306 97 247 97 z "},"P":{"ha":833,"x_min":128,"x_max":764,"o":"m 128 0 l 128 1014 l 454 1014 q 618 977 549 1014 q 726 874 688 940 q 764 715 764 807 q 726 558 764 625 q 618 453 688 490 q 454 417 549 417 l 253 417 l 253 0 l 128 0 m 253 529 l 454 529 q 585 580 536 529 q 635 715 635 631 q 585 851 635 801 q 454 901 536 901 l 253 901 l 253 529 z "},"Þ":{"ha":833,"x_min":125,"x_max":764,"o":"m 125 0 l 125 1014 l 250 1014 l 250 806 l 463 806 q 622 771 554 806 q 726 674 689 736 q 764 528 764 611 q 682 326 764 401 q 463 250 600 250 l 250 250 l 250 0 l 125 0 m 250 361 l 463 361 q 589 406 543 361 q 635 528 635 451 q 588 650 635 606 q 463 694 542 694 l 250 694 l 250 361 z "},"Q":{"ha":833,"x_min":111,"x_max":731,"o":"m 586 -250 l 438 -4 l 451 -12 q 437 -13 446 -12 q 417 -14 428 -14 q 255 23 324 -14 q 149 127 186 60 q 111 285 111 194 l 111 729 q 149 888 111 821 q 255 991 186 954 q 417 1028 324 1028 q 579 991 511 1028 q 685 888 647 954 q 722 729 722 821 l 722 285 q 682 122 722 192 q 568 18 642 53 l 731 -250 l 586 -250 m 417 97 q 548 149 499 97 q 597 285 597 200 l 597 729 q 548 866 597 815 q 417 917 499 917 q 285 866 335 917 q 236 729 236 815 l 236 285 q 285 149 236 200 q 417 97 335 97 z "},"R":{"ha":833,"x_min":129,"x_max":757,"o":"m 129 0 l 129 1014 l 442 1014 q 600 977 532 1014 q 706 875 668 940 q 743 722 743 810 q 690 546 743 619 q 550 443 638 472 l 757 0 l 619 0 l 421 431 l 253 431 l 253 0 l 129 0 m 253 543 l 442 543 q 567 592 519 543 q 614 722 614 642 q 567 853 614 804 q 442 901 519 901 l 253 901 l 253 543 z "},"Ŕ":{"ha":833,"x_min":129,"x_max":757,"o":"m 129 0 l 129 1014 l 442 1014 q 600 977 532 1014 q 706 875 668 940 q 743 722 743 810 q 690 546 743 619 q 550 443 638 472 l 757 0 l 619 0 l 421 431 l 253 431 l 253 0 l 129 0 m 253 543 l 442 543 q 567 592 519 543 q 614 722 614 642 q 567 853 614 804 q 442 901 519 901 l 253 901 l 253 543 m 336 1125 l 483 1319 l 618 1319 l 464 1125 l 336 1125 z "},"Ř":{"ha":833,"x_min":129,"x_max":757,"o":"m 129 0 l 129 1014 l 442 1014 q 600 977 532 1014 q 706 875 668 940 q 743 722 743 810 q 690 546 743 619 q 550 443 638 472 l 757 0 l 619 0 l 421 431 l 253 431 l 253 0 l 129 0 m 253 543 l 442 543 q 567 592 519 543 q 614 722 614 642 q 567 853 614 804 q 442 901 519 901 l 253 901 l 253 543 m 360 1125 l 165 1319 l 303 1319 l 417 1211 l 528 1319 l 668 1319 l 475 1125 l 360 1125 z "},"Ŗ":{"ha":833,"x_min":129,"x_max":757,"o":"m 129 0 l 129 1014 l 442 1014 q 600 977 532 1014 q 706 875 668 940 q 743 722 743 810 q 690 546 743 619 q 550 443 638 472 l 757 0 l 619 0 l 421 431 l 253 431 l 253 0 l 129 0 m 253 543 l 442 543 q 567 592 519 543 q 614 722 614 642 q 567 853 614 804 q 442 901 519 901 l 253 901 l 253 543 m 264 -333 l 396 -132 l 542 -132 l 396 -333 l 264 -333 z "},"S":{"ha":833,"x_min":100,"x_max":733,"o":"m 422 -14 q 252 21 325 -14 q 140 122 179 56 q 100 278 100 188 l 225 278 q 279 145 225 193 q 422 97 333 97 q 560 147 508 97 q 611 278 611 197 q 578 384 611 339 q 485 446 546 429 l 331 489 q 180 588 235 517 q 125 757 125 660 q 161 899 125 838 q 263 994 197 960 q 413 1028 328 1028 q 565 994 499 1028 q 668 899 631 960 q 706 760 706 839 l 581 760 q 533 873 581 829 q 413 917 486 917 q 293 873 339 917 q 247 760 247 829 q 277 665 247 704 q 361 610 307 625 l 519 565 q 677 460 621 538 q 733 278 733 383 q 695 124 733 189 q 587 22 657 58 q 422 -14 517 -14 z "},"Ś":{"ha":833,"x_min":100,"x_max":733,"o":"m 422 -14 q 252 21 325 -14 q 140 122 179 56 q 100 278 100 188 l 225 278 q 279 145 225 193 q 422 97 333 97 q 560 147 508 97 q 611 278 611 197 q 578 384 611 339 q 485 446 546 429 l 331 489 q 180 588 235 517 q 125 757 125 660 q 161 899 125 838 q 263 994 197 960 q 413 1028 328 1028 q 565 994 499 1028 q 668 899 631 960 q 706 760 706 839 l 581 760 q 533 873 581 829 q 413 917 486 917 q 293 873 339 917 q 247 760 247 829 q 277 665 247 704 q 361 610 307 625 l 519 565 q 677 460 621 538 q 733 278 733 383 q 695 124 733 189 q 587 22 657 58 q 422 -14 517 -14 m 336 1125 l 483 1319 l 618 1319 l 464 1125 l 336 1125 z "},"Š":{"ha":833,"x_min":100,"x_max":733,"o":"m 422 -14 q 252 21 325 -14 q 140 122 179 56 q 100 278 100 188 l 225 278 q 279 145 225 193 q 422 97 333 97 q 560 147 508 97 q 611 278 611 197 q 578 384 611 339 q 485 446 546 429 l 331 489 q 180 588 235 517 q 125 757 125 660 q 161 899 125 838 q 263 994 197 960 q 413 1028 328 1028 q 565 994 499 1028 q 668 899 631 960 q 706 760 706 839 l 581 760 q 533 873 581 829 q 413 917 486 917 q 293 873 339 917 q 247 760 247 829 q 277 665 247 704 q 361 610 307 625 l 519 565 q 677 460 621 538 q 733 278 733 383 q 695 124 733 189 q 587 22 657 58 q 422 -14 517 -14 m 360 1125 l 165 1319 l 303 1319 l 417 1211 l 528 1319 l 668 1319 l 475 1125 l 360 1125 z "},"Ş":{"ha":833,"x_min":100,"x_max":733,"o":"m 285 -282 l 285 -206 l 382 -206 q 431 -190 413 -206 q 450 -156 450 -174 q 412 -114 450 -132 q 304 -96 374 -96 l 353 36 l 432 36 l 403 -49 q 478 -67 439 -53 q 543 -106 517 -81 q 569 -167 569 -131 q 524 -248 569 -214 q 403 -282 478 -282 l 285 -282 m 422 -14 q 252 21 325 -14 q 140 122 179 56 q 100 278 100 188 l 225 278 q 279 145 225 193 q 422 97 333 97 q 560 147 508 97 q 611 278 611 197 q 578 384 611 339 q 485 446 546 429 l 331 489 q 180 588 235 517 q 125 757 125 660 q 161 899 125 838 q 263 994 197 960 q 413 1028 328 1028 q 565 994 499 1028 q 668 899 631 960 q 706 760 706 839 l 581 760 q 533 873 581 829 q 413 917 486 917 q 293 873 339 917 q 247 760 247 829 q 277 665 247 704 q 361 610 307 625 l 519 565 q 677 460 621 538 q 733 278 733 383 q 695 124 733 189 q 587 22 657 58 q 422 -14 517 -14 z "},"Ŝ":{"ha":833,"x_min":100,"x_max":733,"o":"m 422 -14 q 252 21 325 -14 q 140 122 179 56 q 100 278 100 188 l 225 278 q 279 145 225 193 q 422 97 333 97 q 560 147 508 97 q 611 278 611 197 q 578 384 611 339 q 485 446 546 429 l 331 489 q 180 588 235 517 q 125 757 125 660 q 161 899 125 838 q 263 994 197 960 q 413 1028 328 1028 q 565 994 499 1028 q 668 899 631 960 q 706 760 706 839 l 581 760 q 533 873 581 829 q 413 917 486 917 q 293 873 339 917 q 247 760 247 829 q 277 665 247 704 q 361 610 307 625 l 519 565 q 677 460 621 538 q 733 278 733 383 q 695 124 733 189 q 587 22 657 58 q 422 -14 517 -14 m 165 1125 l 358 1319 l 474 1319 l 668 1125 l 531 1125 l 417 1233 l 306 1125 l 165 1125 z "},"Ș":{"ha":833,"x_min":100,"x_max":733,"o":"m 422 -14 q 252 21 325 -14 q 140 122 179 56 q 100 278 100 188 l 225 278 q 279 145 225 193 q 422 97 333 97 q 560 147 508 97 q 611 278 611 197 q 578 384 611 339 q 485 446 546 429 l 331 489 q 180 588 235 517 q 125 757 125 660 q 161 899 125 838 q 263 994 197 960 q 413 1028 328 1028 q 565 994 499 1028 q 668 899 631 960 q 706 760 706 839 l 581 760 q 533 873 581 829 q 413 917 486 917 q 293 873 339 917 q 247 760 247 829 q 277 665 247 704 q 361 610 307 625 l 519 565 q 677 460 621 538 q 733 278 733 383 q 695 124 733 189 q 587 22 657 58 q 422 -14 517 -14 m 264 -333 l 396 -132 l 542 -132 l 396 -333 l 264 -333 z "},"ẞ":{"ha":833,"x_min":128,"x_max":750,"o":"m 128 0 l 128 728 q 164 878 128 814 q 266 978 200 943 q 419 1014 332 1014 l 735 1014 l 735 892 l 486 556 l 486 588 q 625 553 565 589 q 717 453 685 518 q 750 299 750 388 q 713 142 750 210 q 608 38 675 75 q 451 0 542 0 l 358 0 l 358 114 l 438 114 q 569 164 521 114 q 618 299 618 214 q 569 431 618 382 q 438 479 521 479 l 375 479 l 375 588 l 603 900 l 419 900 q 298 854 343 900 q 253 728 253 808 l 253 0 l 128 0 z "},"Ə":{"ha":833,"x_min":125,"x_max":708,"o":"m 417 -14 q 261 22 326 -14 q 160 124 196 58 q 125 278 125 190 l 125 556 l 583 556 l 583 738 q 541 870 583 824 q 417 917 499 917 q 293 869 336 917 q 250 736 250 822 l 125 736 q 160 892 125 826 q 260 992 194 957 q 417 1028 325 1028 q 574 993 510 1028 q 674 893 639 958 q 708 736 708 828 l 708 278 q 673 124 708 190 q 572 22 638 58 q 417 -14 507 -14 m 417 90 q 543 139 503 90 q 583 278 583 188 l 583 458 l 240 458 l 250 469 l 250 278 q 291 139 250 188 q 417 90 332 90 z "},"T":{"ha":833,"x_min":76,"x_max":757,"o":"m 354 0 l 354 900 l 76 900 l 76 1014 l 757 1014 l 757 900 l 479 900 l 479 0 l 354 0 z "},"Ŧ":{"ha":833,"x_min":76,"x_max":757,"o":"m 153 410 l 153 514 l 681 514 l 681 410 l 153 410 m 354 0 l 354 900 l 76 900 l 76 1014 l 757 1014 l 757 900 l 479 900 l 479 0 l 354 0 z "},"Ť":{"ha":833,"x_min":76,"x_max":757,"o":"m 354 0 l 354 900 l 76 900 l 76 1014 l 757 1014 l 757 900 l 479 900 l 479 0 l 354 0 m 360 1125 l 165 1319 l 303 1319 l 417 1211 l 528 1319 l 668 1319 l 475 1125 l 360 1125 z "},"Ţ":{"ha":833,"x_min":76,"x_max":757,"o":"m 344 -282 l 344 -206 l 442 -206 q 491 -190 472 -206 q 510 -156 510 -174 q 472 -114 510 -132 q 364 -96 433 -96 l 413 36 l 479 0 l 463 -49 q 538 -67 499 -53 q 603 -106 576 -81 q 629 -167 629 -131 q 583 -248 629 -214 q 463 -282 538 -282 l 344 -282 m 354 0 l 354 900 l 76 900 l 76 1014 l 757 1014 l 757 900 l 479 900 l 479 0 l 354 0 z "},"Ț":{"ha":833,"x_min":76,"x_max":757,"o":"m 354 0 l 354 900 l 76 900 l 76 1014 l 757 1014 l 757 900 l 479 900 l 479 0 l 354 0 m 264 -333 l 396 -132 l 542 -132 l 396 -333 l 264 -333 z "},"U":{"ha":833,"x_min":125,"x_max":708,"o":"m 417 -14 q 200 65 275 -14 q 125 278 125 143 l 125 1014 l 250 1014 l 250 278 q 291 146 250 194 q 417 97 332 97 q 542 146 500 97 q 583 278 583 194 l 583 1014 l 708 1014 l 708 278 q 634 64 708 142 q 417 -14 560 -14 z "},"Ú":{"ha":833,"x_min":125,"x_max":708,"o":"m 417 -14 q 200 65 275 -14 q 125 278 125 143 l 125 1014 l 250 1014 l 250 278 q 291 146 250 194 q 417 97 332 97 q 542 146 500 97 q 583 278 583 194 l 583 1014 l 708 1014 l 708 278 q 634 64 708 142 q 417 -14 560 -14 m 336 1125 l 483 1319 l 618 1319 l 464 1125 l 336 1125 z "},"Ŭ":{"ha":833,"x_min":125,"x_max":708,"o":"m 417 -14 q 200 65 275 -14 q 125 278 125 143 l 125 1014 l 250 1014 l 250 278 q 291 146 250 194 q 417 97 332 97 q 542 146 500 97 q 583 278 583 194 l 583 1014 l 708 1014 l 708 278 q 634 64 708 142 q 417 -14 560 -14 m 417 1118 q 256 1174 317 1118 q 194 1319 194 1229 l 293 1319 q 326 1232 293 1265 q 415 1199 360 1199 q 506 1232 472 1199 q 540 1319 540 1265 l 639 1319 q 578 1174 639 1229 q 417 1118 517 1118 z "},"Û":{"ha":833,"x_min":125,"x_max":708,"o":"m 417 -14 q 200 65 275 -14 q 125 278 125 143 l 125 1014 l 250 1014 l 250 278 q 291 146 250 194 q 417 97 332 97 q 542 146 500 97 q 583 278 583 194 l 583 1014 l 708 1014 l 708 278 q 634 64 708 142 q 417 -14 560 -14 m 165 1125 l 358 1319 l 474 1319 l 668 1125 l 531 1125 l 417 1233 l 306 1125 l 165 1125 z "},"Ü":{"ha":833,"x_min":125,"x_max":708,"o":"m 417 -14 q 200 65 275 -14 q 125 278 125 143 l 125 1014 l 250 1014 l 250 278 q 291 146 250 194 q 417 97 332 97 q 542 146 500 97 q 583 278 583 194 l 583 1014 l 708 1014 l 708 278 q 634 64 708 142 q 417 -14 560 -14 m 571 1135 q 506 1158 531 1135 q 482 1222 482 1182 q 506 1288 482 1264 q 571 1313 531 1313 q 635 1288 611 1313 q 660 1222 660 1264 q 635 1158 660 1182 q 571 1135 611 1135 m 263 1135 q 198 1158 222 1135 q 174 1222 174 1182 q 198 1288 174 1264 q 263 1313 222 1313 q 327 1288 303 1313 q 351 1222 351 1264 q 327 1158 351 1182 q 263 1135 303 1135 z "},"Ụ":{"ha":833,"x_min":125,"x_max":708,"o":"m 417 -14 q 200 65 275 -14 q 125 278 125 143 l 125 1014 l 250 1014 l 250 278 q 291 146 250 194 q 417 97 332 97 q 542 146 500 97 q 583 278 583 194 l 583 1014 l 708 1014 l 708 278 q 634 64 708 142 q 417 -14 560 -14 m 417 -296 q 344 -272 371 -296 q 318 -208 318 -249 q 344 -142 318 -167 q 417 -118 371 -118 q 489 -142 463 -118 q 515 -208 515 -167 q 489 -272 515 -249 q 417 -296 463 -296 z "},"Ù":{"ha":833,"x_min":125,"x_max":708,"o":"m 417 -14 q 200 65 275 -14 q 125 278 125 143 l 125 1014 l 250 1014 l 250 278 q 291 146 250 194 q 417 97 332 97 q 542 146 500 97 q 583 278 583 194 l 583 1014 l 708 1014 l 708 278 q 634 64 708 142 q 417 -14 560 -14 m 371 1125 l 211 1319 l 350 1319 l 503 1125 l 371 1125 z "},"Ủ":{"ha":833,"x_min":125,"x_max":708,"o":"m 417 -14 q 200 65 275 -14 q 125 278 125 143 l 125 1014 l 250 1014 l 250 278 q 291 146 250 194 q 417 97 332 97 q 542 146 500 97 q 583 278 583 194 l 583 1014 l 708 1014 l 708 278 q 634 64 708 142 q 417 -14 560 -14 m 358 1111 l 421 1199 q 440 1243 440 1226 q 396 1271 440 1271 l 292 1271 l 292 1361 l 403 1361 q 508 1333 468 1361 q 549 1257 549 1304 q 525 1183 549 1218 l 476 1111 l 358 1111 z "},"Ư":{"ha":833,"x_min":125,"x_max":826,"o":"m 604 924 l 604 1014 l 674 1014 q 709 1027 696 1014 q 722 1063 722 1040 l 722 1167 l 826 1167 l 826 1056 q 787 960 826 996 q 681 924 747 924 l 604 924 m 417 -14 q 200 65 275 -14 q 125 278 125 143 l 125 1014 l 250 1014 l 250 278 q 291 146 250 194 q 417 97 332 97 q 542 146 500 97 q 583 278 583 194 l 583 1014 l 708 1014 l 708 278 q 634 64 708 142 q 417 -14 560 -14 z "},"Ứ":{"ha":833,"x_min":125,"x_max":826,"o":"m 604 924 l 604 1014 l 674 1014 q 709 1027 696 1014 q 722 1063 722 1040 l 722 1167 l 826 1167 l 826 1056 q 787 960 826 996 q 681 924 747 924 l 604 924 m 417 -14 q 200 65 275 -14 q 125 278 125 143 l 125 1014 l 250 1014 l 250 278 q 291 146 250 194 q 417 97 332 97 q 542 146 500 97 q 583 278 583 194 l 583 1014 l 708 1014 l 708 278 q 634 64 708 142 q 417 -14 560 -14 m 336 1125 l 483 1319 l 618 1319 l 464 1125 l 336 1125 z "},"Ự":{"ha":833,"x_min":125,"x_max":826,"o":"m 604 924 l 604 1014 l 674 1014 q 709 1027 696 1014 q 722 1063 722 1040 l 722 1167 l 826 1167 l 826 1056 q 787 960 826 996 q 681 924 747 924 l 604 924 m 417 -14 q 200 65 275 -14 q 125 278 125 143 l 125 1014 l 250 1014 l 250 278 q 291 146 250 194 q 417 97 332 97 q 542 146 500 97 q 583 278 583 194 l 583 1014 l 708 1014 l 708 278 q 634 64 708 142 q 417 -14 560 -14 m 417 -296 q 344 -272 371 -296 q 318 -208 318 -249 q 344 -142 318 -167 q 417 -118 371 -118 q 489 -142 463 -118 q 515 -208 515 -167 q 489 -272 515 -249 q 417 -296 463 -296 z "},"Ừ":{"ha":833,"x_min":125,"x_max":826,"o":"m 604 924 l 604 1014 l 674 1014 q 709 1027 696 1014 q 722 1063 722 1040 l 722 1167 l 826 1167 l 826 1056 q 787 960 826 996 q 681 924 747 924 l 604 924 m 417 -14 q 200 65 275 -14 q 125 278 125 143 l 125 1014 l 250 1014 l 250 278 q 291 146 250 194 q 417 97 332 97 q 542 146 500 97 q 583 278 583 194 l 583 1014 l 708 1014 l 708 278 q 634 64 708 142 q 417 -14 560 -14 m 371 1125 l 211 1319 l 350 1319 l 503 1125 l 371 1125 z "},"Ử":{"ha":833,"x_min":125,"x_max":826,"o":"m 604 924 l 604 1014 l 674 1014 q 709 1027 696 1014 q 722 1063 722 1040 l 722 1167 l 826 1167 l 826 1056 q 787 960 826 996 q 681 924 747 924 l 604 924 m 417 -14 q 200 65 275 -14 q 125 278 125 143 l 125 1014 l 250 1014 l 250 278 q 291 146 250 194 q 417 97 332 97 q 542 146 500 97 q 583 278 583 194 l 583 1014 l 708 1014 l 708 278 q 634 64 708 142 q 417 -14 560 -14 m 358 1111 l 421 1199 q 440 1243 440 1226 q 396 1271 440 1271 l 292 1271 l 292 1361 l 403 1361 q 508 1333 468 1361 q 549 1257 549 1304 q 525 1183 549 1218 l 476 1111 l 358 1111 z "},"Ữ":{"ha":833,"x_min":125,"x_max":826,"o":"m 604 924 l 604 1014 l 674 1014 q 709 1027 696 1014 q 722 1063 722 1040 l 722 1167 l 826 1167 l 826 1056 q 787 960 826 996 q 681 924 747 924 l 604 924 m 417 -14 q 200 65 275 -14 q 125 278 125 143 l 125 1014 l 250 1014 l 250 278 q 291 146 250 194 q 417 97 332 97 q 542 146 500 97 q 583 278 583 194 l 583 1014 l 708 1014 l 708 278 q 634 64 708 142 q 417 -14 560 -14 m 514 1132 q 446 1147 472 1132 q 401 1181 419 1161 q 367 1215 383 1200 q 326 1229 350 1229 q 297 1217 308 1229 q 285 1181 285 1206 l 285 1139 l 194 1139 l 194 1181 q 229 1278 194 1243 q 319 1313 264 1313 q 388 1298 361 1313 q 432 1264 414 1283 q 467 1230 450 1244 q 507 1215 483 1215 q 538 1227 526 1215 q 549 1264 549 1239 l 549 1306 l 639 1306 l 639 1264 q 605 1167 639 1201 q 514 1132 571 1132 z "},"Ű":{"ha":833,"x_min":125,"x_max":733,"o":"m 417 -14 q 200 65 275 -14 q 125 278 125 143 l 125 1014 l 250 1014 l 250 278 q 291 146 250 194 q 417 97 332 97 q 542 146 500 97 q 583 278 583 194 l 583 1014 l 708 1014 l 708 278 q 634 64 708 142 q 417 -14 560 -14 m 453 1125 l 606 1319 l 733 1319 l 574 1125 l 453 1125 m 204 1125 l 357 1319 l 485 1319 l 325 1125 l 204 1125 z "},"Ū":{"ha":833,"x_min":125,"x_max":708,"o":"m 417 -14 q 200 65 275 -14 q 125 278 125 143 l 125 1014 l 250 1014 l 250 278 q 291 146 250 194 q 417 97 332 97 q 542 146 500 97 q 583 278 583 194 l 583 1014 l 708 1014 l 708 278 q 634 64 708 142 q 417 -14 560 -14 m 194 1167 l 194 1271 l 639 1271 l 639 1167 l 194 1167 z "},"Ų":{"ha":833,"x_min":125,"x_max":708,"o":"m 526 -282 q 403 -245 450 -282 q 357 -153 357 -208 q 366 -110 357 -133 q 392 -62 375 -87 q 435 -14 410 -37 q 426 -14 431 -14 q 417 -14 421 -14 q 260 21 325 -14 q 160 122 194 56 q 125 278 125 188 l 125 1014 l 250 1014 l 250 278 q 293 145 250 192 q 417 99 336 99 q 541 145 499 99 q 583 278 583 192 l 583 1014 l 708 1014 l 708 278 q 680 133 708 196 q 597 35 651 71 l 557 1 q 493 -69 511 -37 q 475 -129 475 -100 q 496 -179 475 -160 q 551 -199 517 -199 l 635 -199 l 635 -282 l 526 -282 z "},"Ů":{"ha":833,"x_min":125,"x_max":708,"o":"m 417 -14 q 200 65 275 -14 q 125 278 125 143 l 125 1014 l 250 1014 l 250 278 q 291 146 250 194 q 417 97 332 97 q 542 146 500 97 q 583 278 583 194 l 583 1014 l 708 1014 l 708 278 q 634 64 708 142 q 417 -14 560 -14 m 417 1064 q 296 1108 342 1064 q 250 1222 250 1151 q 296 1337 250 1293 q 417 1381 342 1381 q 538 1337 492 1381 q 583 1222 583 1293 q 538 1108 583 1151 q 417 1064 492 1064 m 417 1138 q 477 1160 454 1138 q 500 1222 500 1183 q 477 1285 500 1261 q 417 1308 454 1308 q 356 1285 379 1308 q 333 1222 333 1261 q 356 1160 333 1183 q 417 1138 379 1138 z "},"Ũ":{"ha":833,"x_min":125,"x_max":708,"o":"m 417 -14 q 200 65 275 -14 q 125 278 125 143 l 125 1014 l 250 1014 l 250 278 q 291 146 250 194 q 417 97 332 97 q 542 146 500 97 q 583 278 583 194 l 583 1014 l 708 1014 l 708 278 q 634 64 708 142 q 417 -14 560 -14 m 514 1132 q 446 1147 472 1132 q 401 1181 419 1161 q 367 1215 383 1200 q 326 1229 350 1229 q 297 1217 308 1229 q 285 1181 285 1206 l 285 1139 l 194 1139 l 194 1181 q 229 1278 194 1243 q 319 1313 264 1313 q 388 1298 361 1313 q 432 1264 414 1283 q 467 1230 450 1244 q 507 1215 483 1215 q 538 1227 526 1215 q 549 1264 549 1239 l 549 1306 l 639 1306 l 639 1264 q 605 1167 639 1201 q 514 1132 571 1132 z "},"V":{"ha":833,"x_min":69,"x_max":764,"o":"m 331 0 l 69 1014 l 197 1014 l 371 324 q 401 190 389 251 q 418 97 413 129 q 437 191 424 129 q 468 325 450 253 l 635 1014 l 764 1014 l 501 0 l 331 0 z "},"W":{"ha":833,"x_min":28,"x_max":806,"o":"m 149 0 l 28 1014 l 143 1014 l 222 264 q 228 201 226 233 q 233 139 231 168 q 235 90 235 110 q 240 139 238 110 q 245 201 242 168 q 253 264 249 233 l 353 1014 l 488 1014 l 579 264 q 587 201 583 233 q 594 139 590 168 q 599 90 597 110 q 602 139 600 110 q 608 201 604 168 q 614 264 611 233 l 696 1014 l 806 1014 l 682 0 l 525 0 l 433 764 q 428 826 431 796 q 423 883 425 857 q 419 926 421 910 q 416 883 418 910 q 411 826 414 857 q 404 764 408 796 l 306 0 l 149 0 z "},"Ẃ":{"ha":833,"x_min":28,"x_max":806,"o":"m 149 0 l 28 1014 l 143 1014 l 222 264 q 228 201 226 233 q 233 139 231 168 q 235 90 235 110 q 240 139 238 110 q 245 201 242 168 q 253 264 249 233 l 353 1014 l 488 1014 l 579 264 q 587 201 583 233 q 594 139 590 168 q 599 90 597 110 q 602 139 600 110 q 608 201 604 168 q 614 264 611 233 l 696 1014 l 806 1014 l 682 0 l 525 0 l 433 764 q 428 826 431 796 q 423 883 425 857 q 419 926 421 910 q 416 883 418 910 q 411 826 414 857 q 404 764 408 796 l 306 0 l 149 0 m 336 1125 l 483 1319 l 618 1319 l 464 1125 l 336 1125 z "},"Ŵ":{"ha":833,"x_min":28,"x_max":806,"o":"m 149 0 l 28 1014 l 143 1014 l 222 264 q 228 201 226 233 q 233 139 231 168 q 235 90 235 110 q 240 139 238 110 q 245 201 242 168 q 253 264 249 233 l 353 1014 l 488 1014 l 579 264 q 587 201 583 233 q 594 139 590 168 q 599 90 597 110 q 602 139 600 110 q 608 201 604 168 q 614 264 611 233 l 696 1014 l 806 1014 l 682 0 l 525 0 l 433 764 q 428 826 431 796 q 423 883 425 857 q 419 926 421 910 q 416 883 418 910 q 411 826 414 857 q 404 764 408 796 l 306 0 l 149 0 m 165 1125 l 358 1319 l 474 1319 l 668 1125 l 531 1125 l 417 1233 l 306 1125 l 165 1125 z "},"Ẅ":{"ha":833,"x_min":28,"x_max":806,"o":"m 149 0 l 28 1014 l 143 1014 l 222 264 q 228 201 226 233 q 233 139 231 168 q 235 90 235 110 q 240 139 238 110 q 245 201 242 168 q 253 264 249 233 l 353 1014 l 488 1014 l 579 264 q 587 201 583 233 q 594 139 590 168 q 599 90 597 110 q 602 139 600 110 q 608 201 604 168 q 614 264 611 233 l 696 1014 l 806 1014 l 682 0 l 525 0 l 433 764 q 428 826 431 796 q 423 883 425 857 q 419 926 421 910 q 416 883 418 910 q 411 826 414 857 q 404 764 408 796 l 306 0 l 149 0 m 571 1135 q 506 1158 531 1135 q 482 1222 482 1182 q 506 1288 482 1264 q 571 1313 531 1313 q 635 1288 611 1313 q 660 1222 660 1264 q 635 1158 660 1182 q 571 1135 611 1135 m 263 1135 q 198 1158 222 1135 q 174 1222 174 1182 q 198 1288 174 1264 q 263 1313 222 1313 q 327 1288 303 1313 q 351 1222 351 1264 q 327 1158 351 1182 q 263 1135 303 1135 z "},"Ẁ":{"ha":833,"x_min":28,"x_max":806,"o":"m 149 0 l 28 1014 l 143 1014 l 222 264 q 228 201 226 233 q 233 139 231 168 q 235 90 235 110 q 240 139 238 110 q 245 201 242 168 q 253 264 249 233 l 353 1014 l 488 1014 l 579 264 q 587 201 583 233 q 594 139 590 168 q 599 90 597 110 q 602 139 600 110 q 608 201 604 168 q 614 264 611 233 l 696 1014 l 806 1014 l 682 0 l 525 0 l 433 764 q 428 826 431 796 q 423 883 425 857 q 419 926 421 910 q 416 883 418 910 q 411 826 414 857 q 404 764 408 796 l 306 0 l 149 0 m 371 1125 l 211 1319 l 350 1319 l 503 1125 l 371 1125 z "},"X":{"ha":833,"x_min":56,"x_max":778,"o":"m 56 0 l 347 514 l 71 1014 l 215 1014 l 372 714 q 398 663 385 690 q 419 621 411 636 q 440 663 426 636 q 465 714 453 690 l 625 1014 l 763 1014 l 486 522 l 778 0 l 635 0 l 461 322 q 435 373 449 346 q 415 417 422 400 q 395 374 408 400 q 369 324 382 347 l 194 0 l 56 0 z "},"Y":{"ha":833,"x_min":49,"x_max":785,"o":"m 354 0 l 354 379 l 49 1014 l 182 1014 l 379 597 q 406 538 396 563 q 418 503 415 514 q 431 538 421 514 q 458 597 442 563 l 656 1014 l 785 1014 l 479 379 l 479 0 l 354 0 z "},"Ý":{"ha":833,"x_min":49,"x_max":785,"o":"m 354 0 l 354 379 l 49 1014 l 182 1014 l 379 597 q 406 538 396 563 q 418 503 415 514 q 431 538 421 514 q 458 597 442 563 l 656 1014 l 785 1014 l 479 379 l 479 0 l 354 0 m 336 1125 l 483 1319 l 618 1319 l 464 1125 l 336 1125 z "},"Ŷ":{"ha":833,"x_min":49,"x_max":785,"o":"m 354 0 l 354 379 l 49 1014 l 182 1014 l 379 597 q 406 538 396 563 q 418 503 415 514 q 431 538 421 514 q 458 597 442 563 l 656 1014 l 785 1014 l 479 379 l 479 0 l 354 0 m 165 1125 l 358 1319 l 474 1319 l 668 1125 l 531 1125 l 417 1233 l 306 1125 l 165 1125 z "},"Ÿ":{"ha":833,"x_min":49,"x_max":785,"o":"m 354 0 l 354 379 l 49 1014 l 182 1014 l 379 597 q 406 538 396 563 q 418 503 415 514 q 431 538 421 514 q 458 597 442 563 l 656 1014 l 785 1014 l 479 379 l 479 0 l 354 0 m 571 1135 q 506 1158 531 1135 q 482 1222 482 1182 q 506 1288 482 1264 q 571 1313 531 1313 q 635 1288 611 1313 q 660 1222 660 1264 q 635 1158 660 1182 q 571 1135 611 1135 m 263 1135 q 198 1158 222 1135 q 174 1222 174 1182 q 198 1288 174 1264 q 263 1313 222 1313 q 327 1288 303 1313 q 351 1222 351 1264 q 327 1158 351 1182 q 263 1135 303 1135 z "},"Ỵ":{"ha":833,"x_min":49,"x_max":785,"o":"m 354 0 l 354 379 l 49 1014 l 182 1014 l 379 597 q 406 538 396 563 q 418 503 415 514 q 431 538 421 514 q 458 597 442 563 l 656 1014 l 785 1014 l 479 379 l 479 0 l 354 0 m 417 -296 q 344 -272 371 -296 q 318 -208 318 -249 q 344 -142 318 -167 q 417 -118 371 -118 q 489 -142 463 -118 q 515 -208 515 -167 q 489 -272 515 -249 q 417 -296 463 -296 z "},"Ỳ":{"ha":833,"x_min":49,"x_max":785,"o":"m 354 0 l 354 379 l 49 1014 l 182 1014 l 379 597 q 406 538 396 563 q 418 503 415 514 q 431 538 421 514 q 458 597 442 563 l 656 1014 l 785 1014 l 479 379 l 479 0 l 354 0 m 371 1125 l 211 1319 l 350 1319 l 503 1125 l 371 1125 z "},"Ỷ":{"ha":833,"x_min":49,"x_max":785,"o":"m 354 0 l 354 379 l 49 1014 l 182 1014 l 379 597 q 406 538 396 563 q 418 503 415 514 q 431 538 421 514 q 458 597 442 563 l 656 1014 l 785 1014 l 479 379 l 479 0 l 354 0 m 358 1111 l 421 1199 q 440 1243 440 1226 q 396 1271 440 1271 l 292 1271 l 292 1361 l 403 1361 q 508 1333 468 1361 q 549 1257 549 1304 q 525 1183 549 1218 l 476 1111 l 358 1111 z "},"Ȳ":{"ha":833,"x_min":49,"x_max":785,"o":"m 354 0 l 354 379 l 49 1014 l 182 1014 l 379 597 q 406 538 396 563 q 418 503 415 514 q 431 538 421 514 q 458 597 442 563 l 656 1014 l 785 1014 l 479 379 l 479 0 l 354 0 m 194 1167 l 194 1271 l 639 1271 l 639 1167 l 194 1167 z "},"Ỹ":{"ha":833,"x_min":49,"x_max":785,"o":"m 354 0 l 354 379 l 49 1014 l 182 1014 l 379 597 q 406 538 396 563 q 418 503 415 514 q 431 538 421 514 q 458 597 442 563 l 656 1014 l 785 1014 l 479 379 l 479 0 l 354 0 m 514 1132 q 446 1147 472 1132 q 401 1181 419 1161 q 367 1215 383 1200 q 326 1229 350 1229 q 297 1217 308 1229 q 285 1181 285 1206 l 285 1139 l 194 1139 l 194 1181 q 229 1278 194 1243 q 319 1313 264 1313 q 388 1298 361 1313 q 432 1264 414 1283 q 467 1230 450 1244 q 507 1215 483 1215 q 538 1227 526 1215 q 549 1264 549 1239 l 549 1306 l 639 1306 l 639 1264 q 605 1167 639 1201 q 514 1132 571 1132 z "},"Z":{"ha":833,"x_min":118,"x_max":715,"o":"m 118 0 l 118 125 l 575 900 l 125 900 l 125 1014 l 701 1014 l 701 889 l 244 114 l 715 114 l 715 0 l 118 0 z "},"Ź":{"ha":833,"x_min":118,"x_max":715,"o":"m 118 0 l 118 125 l 575 900 l 125 900 l 125 1014 l 701 1014 l 701 889 l 244 114 l 715 114 l 715 0 l 118 0 m 336 1125 l 483 1319 l 618 1319 l 464 1125 l 336 1125 z "},"Ž":{"ha":833,"x_min":118,"x_max":715,"o":"m 118 0 l 118 125 l 575 900 l 125 900 l 125 1014 l 701 1014 l 701 889 l 244 114 l 715 114 l 715 0 l 118 0 m 360 1125 l 165 1319 l 303 1319 l 417 1211 l 528 1319 l 668 1319 l 475 1125 l 360 1125 z "},"Ż":{"ha":833,"x_min":118,"x_max":715,"o":"m 118 0 l 118 125 l 575 900 l 125 900 l 125 1014 l 701 1014 l 701 889 l 244 114 l 715 114 l 715 0 l 118 0 m 417 1133 q 344 1158 371 1133 q 318 1222 318 1182 q 344 1287 318 1263 q 417 1311 371 1311 q 489 1287 463 1311 q 515 1222 515 1263 q 489 1158 515 1182 q 417 1133 463 1133 z "},"a":{"ha":833,"x_min":93,"x_max":706,"o":"m 350 -14 q 163 52 232 -14 q 93 225 93 118 q 125 349 93 296 q 214 431 157 401 q 344 461 271 461 l 581 461 l 581 521 q 540 633 581 596 q 418 669 500 669 q 301 643 346 669 q 254 569 257 617 l 129 569 q 213 719 136 660 q 418 778 290 778 q 631 711 557 778 q 706 525 706 644 l 706 0 l 582 0 l 582 139 l 561 139 l 581 167 q 553 71 581 111 q 474 8 525 31 q 350 -14 422 -14 m 381 92 q 526 136 472 92 q 581 257 581 181 l 581 364 l 358 364 q 259 327 297 364 q 221 229 221 290 q 263 128 221 165 q 381 92 306 92 z "},"á":{"ha":833,"x_min":93,"x_max":706,"o":"m 350 -14 q 163 52 232 -14 q 93 225 93 118 q 125 349 93 296 q 214 431 157 401 q 344 461 271 461 l 581 461 l 581 521 q 540 633 581 596 q 418 669 500 669 q 301 643 346 669 q 254 569 257 617 l 129 569 q 213 719 136 660 q 418 778 290 778 q 631 711 557 778 q 706 525 706 644 l 706 0 l 582 0 l 582 139 l 561 139 l 581 167 q 553 71 581 111 q 474 8 525 31 q 350 -14 422 -14 m 381 92 q 526 136 472 92 q 581 257 581 181 l 581 364 l 358 364 q 259 327 297 364 q 221 229 221 290 q 263 128 221 165 q 381 92 306 92 m 343 896 l 490 1090 l 625 1090 l 471 896 l 343 896 z "},"ă":{"ha":833,"x_min":93,"x_max":706,"o":"m 350 -14 q 163 52 232 -14 q 93 225 93 118 q 125 349 93 296 q 214 431 157 401 q 344 461 271 461 l 581 461 l 581 521 q 540 633 581 596 q 418 669 500 669 q 301 643 346 669 q 254 569 257 617 l 129 569 q 213 719 136 660 q 418 778 290 778 q 631 711 557 778 q 706 525 706 644 l 706 0 l 582 0 l 582 139 l 561 139 l 581 167 q 553 71 581 111 q 474 8 525 31 q 350 -14 422 -14 m 381 92 q 526 136 472 92 q 581 257 581 181 l 581 364 l 358 364 q 259 327 297 364 q 221 229 221 290 q 263 128 221 165 q 381 92 306 92 m 424 889 q 263 944 324 889 q 201 1090 201 1000 l 300 1090 q 333 1003 300 1036 q 422 969 367 969 q 513 1003 479 969 q 547 1090 547 1036 l 646 1090 q 585 944 646 1000 q 424 889 524 889 z "},"ắ":{"ha":833,"x_min":93,"x_max":706,"o":"m 350 -14 q 163 52 232 -14 q 93 225 93 118 q 125 349 93 296 q 214 431 157 401 q 344 461 271 461 l 581 461 l 581 521 q 540 633 581 596 q 418 669 500 669 q 301 643 346 669 q 254 569 257 617 l 129 569 q 213 719 136 660 q 418 778 290 778 q 631 711 557 778 q 706 525 706 644 l 706 0 l 582 0 l 582 139 l 561 139 l 581 167 q 553 71 581 111 q 474 8 525 31 q 350 -14 422 -14 m 381 92 q 526 136 472 92 q 581 257 581 181 l 581 364 l 358 364 q 259 327 297 364 q 221 229 221 290 q 263 128 221 165 q 381 92 306 92 m 424 889 q 253 939 318 889 q 188 1069 188 989 l 285 1069 q 323 999 285 1026 q 424 972 361 972 q 524 999 486 972 q 563 1069 563 1026 l 660 1069 q 595 939 660 989 q 424 889 531 889 m 336 1056 l 496 1236 l 629 1236 l 463 1056 l 336 1056 z "},"ặ":{"ha":833,"x_min":93,"x_max":706,"o":"m 350 -14 q 163 52 232 -14 q 93 225 93 118 q 125 349 93 296 q 214 431 157 401 q 344 461 271 461 l 581 461 l 581 521 q 540 633 581 596 q 418 669 500 669 q 301 643 346 669 q 254 569 257 617 l 129 569 q 213 719 136 660 q 418 778 290 778 q 631 711 557 778 q 706 525 706 644 l 706 0 l 582 0 l 582 139 l 561 139 l 581 167 q 553 71 581 111 q 474 8 525 31 q 350 -14 422 -14 m 381 92 q 526 136 472 92 q 581 257 581 181 l 581 364 l 358 364 q 259 327 297 364 q 221 229 221 290 q 263 128 221 165 q 381 92 306 92 m 424 -296 q 351 -272 378 -296 q 325 -208 325 -249 q 351 -142 325 -167 q 424 -118 378 -118 q 496 -142 469 -118 q 522 -208 522 -167 q 496 -272 522 -249 q 424 -296 469 -296 m 424 889 q 263 944 324 889 q 201 1090 201 1000 l 300 1090 q 333 1003 300 1036 q 422 969 367 969 q 513 1003 479 969 q 547 1090 547 1036 l 646 1090 q 585 944 646 1000 q 424 889 524 889 z "},"ằ":{"ha":833,"x_min":93,"x_max":706,"o":"m 350 -14 q 163 52 232 -14 q 93 225 93 118 q 125 349 93 296 q 214 431 157 401 q 344 461 271 461 l 581 461 l 581 521 q 540 633 581 596 q 418 669 500 669 q 301 643 346 669 q 254 569 257 617 l 129 569 q 213 719 136 660 q 418 778 290 778 q 631 711 557 778 q 706 525 706 644 l 706 0 l 582 0 l 582 139 l 561 139 l 581 167 q 553 71 581 111 q 474 8 525 31 q 350 -14 422 -14 m 381 92 q 526 136 472 92 q 581 257 581 181 l 581 364 l 358 364 q 259 327 297 364 q 221 229 221 290 q 263 128 221 165 q 381 92 306 92 m 424 889 q 253 939 318 889 q 188 1069 188 989 l 285 1069 q 323 999 285 1026 q 424 972 361 972 q 524 999 486 972 q 563 1069 563 1026 l 660 1069 q 595 939 660 989 q 424 889 531 889 m 385 1056 l 218 1236 l 351 1236 l 511 1056 l 385 1056 z "},"ẳ":{"ha":833,"x_min":93,"x_max":706,"o":"m 350 -14 q 163 52 232 -14 q 93 225 93 118 q 125 349 93 296 q 214 431 157 401 q 344 461 271 461 l 581 461 l 581 521 q 540 633 581 596 q 418 669 500 669 q 301 643 346 669 q 254 569 257 617 l 129 569 q 213 719 136 660 q 418 778 290 778 q 631 711 557 778 q 706 525 706 644 l 706 0 l 582 0 l 582 139 l 561 139 l 581 167 q 553 71 581 111 q 474 8 525 31 q 350 -14 422 -14 m 381 92 q 526 136 472 92 q 581 257 581 181 l 581 364 l 358 364 q 259 327 297 364 q 221 229 221 290 q 263 128 221 165 q 381 92 306 92 m 424 889 q 253 939 318 889 q 188 1069 188 989 l 285 1069 q 323 999 285 1026 q 424 972 361 972 q 524 999 486 972 q 563 1069 563 1026 l 660 1069 q 595 939 660 989 q 424 889 531 889 m 358 1056 l 421 1140 q 433 1175 433 1157 q 424 1199 433 1190 q 396 1208 414 1208 l 319 1208 l 319 1292 l 410 1292 q 505 1265 469 1292 q 540 1193 540 1238 q 534 1158 540 1175 q 517 1125 528 1140 l 468 1056 l 358 1056 z "},"ẵ":{"ha":833,"x_min":93,"x_max":706,"o":"m 350 -14 q 163 52 232 -14 q 93 225 93 118 q 125 349 93 296 q 214 431 157 401 q 344 461 271 461 l 581 461 l 581 521 q 540 633 581 596 q 418 669 500 669 q 301 643 346 669 q 254 569 257 617 l 129 569 q 213 719 136 660 q 418 778 290 778 q 631 711 557 778 q 706 525 706 644 l 706 0 l 582 0 l 582 139 l 561 139 l 581 167 q 553 71 581 111 q 474 8 525 31 q 350 -14 422 -14 m 381 92 q 526 136 472 92 q 581 257 581 181 l 581 364 l 358 364 q 259 327 297 364 q 221 229 221 290 q 263 128 221 165 q 381 92 306 92 m 424 896 q 263 946 324 896 q 201 1076 201 996 l 292 1076 q 328 1006 292 1033 q 422 978 364 978 q 519 1006 482 978 q 556 1076 556 1033 l 646 1076 q 585 946 646 996 q 424 896 524 896 m 515 1128 q 447 1141 472 1128 q 404 1172 421 1154 q 372 1202 388 1189 q 333 1215 357 1215 q 303 1205 314 1215 q 292 1174 292 1194 l 292 1139 l 201 1139 l 201 1167 q 238 1256 201 1222 q 332 1289 274 1289 q 402 1276 376 1289 q 444 1245 428 1263 q 475 1215 460 1228 q 514 1201 490 1201 q 556 1243 556 1201 l 556 1278 l 646 1278 l 646 1250 q 610 1161 646 1194 q 515 1128 574 1128 z "},"ǎ":{"ha":833,"x_min":93,"x_max":706,"o":"m 350 -14 q 163 52 232 -14 q 93 225 93 118 q 125 349 93 296 q 214 431 157 401 q 344 461 271 461 l 581 461 l 581 521 q 540 633 581 596 q 418 669 500 669 q 301 643 346 669 q 254 569 257 617 l 129 569 q 213 719 136 660 q 418 778 290 778 q 631 711 557 778 q 706 525 706 644 l 706 0 l 582 0 l 582 139 l 561 139 l 581 167 q 553 71 581 111 q 474 8 525 31 q 350 -14 422 -14 m 381 92 q 526 136 472 92 q 581 257 581 181 l 581 364 l 358 364 q 259 327 297 364 q 221 229 221 290 q 263 128 221 165 q 381 92 306 92 m 367 896 l 172 1090 l 310 1090 l 424 982 l 535 1090 l 675 1090 l 482 896 l 367 896 z "},"â":{"ha":833,"x_min":93,"x_max":706,"o":"m 350 -14 q 163 52 232 -14 q 93 225 93 118 q 125 349 93 296 q 214 431 157 401 q 344 461 271 461 l 581 461 l 581 521 q 540 633 581 596 q 418 669 500 669 q 301 643 346 669 q 254 569 257 617 l 129 569 q 213 719 136 660 q 418 778 290 778 q 631 711 557 778 q 706 525 706 644 l 706 0 l 582 0 l 582 139 l 561 139 l 581 167 q 553 71 581 111 q 474 8 525 31 q 350 -14 422 -14 m 381 92 q 526 136 472 92 q 581 257 581 181 l 581 364 l 358 364 q 259 327 297 364 q 221 229 221 290 q 263 128 221 165 q 381 92 306 92 m 172 896 l 365 1090 l 481 1090 l 675 896 l 538 896 l 424 1004 l 313 896 l 172 896 z "},"ấ":{"ha":833,"x_min":93,"x_max":875,"o":"m 350 -14 q 163 52 232 -14 q 93 225 93 118 q 125 349 93 296 q 214 431 157 401 q 344 461 271 461 l 581 461 l 581 521 q 540 633 581 596 q 418 669 500 669 q 301 643 346 669 q 254 569 257 617 l 129 569 q 213 719 136 660 q 418 778 290 778 q 631 711 557 778 q 706 525 706 644 l 706 0 l 582 0 l 582 139 l 561 139 l 581 167 q 553 71 581 111 q 474 8 525 31 q 350 -14 422 -14 m 381 92 q 526 136 472 92 q 581 257 581 181 l 581 364 l 358 364 q 259 327 297 364 q 221 229 221 290 q 263 128 221 165 q 381 92 306 92 m 576 1056 l 736 1250 l 875 1250 l 708 1056 l 576 1056 m 174 896 l 365 1090 l 482 1090 l 675 896 l 535 896 l 424 1004 l 311 896 l 174 896 z "},"ậ":{"ha":833,"x_min":93,"x_max":706,"o":"m 350 -14 q 163 52 232 -14 q 93 225 93 118 q 125 349 93 296 q 214 431 157 401 q 344 461 271 461 l 581 461 l 581 521 q 540 633 581 596 q 418 669 500 669 q 301 643 346 669 q 254 569 257 617 l 129 569 q 213 719 136 660 q 418 778 290 778 q 631 711 557 778 q 706 525 706 644 l 706 0 l 582 0 l 582 139 l 561 139 l 581 167 q 553 71 581 111 q 474 8 525 31 q 350 -14 422 -14 m 381 92 q 526 136 472 92 q 581 257 581 181 l 581 364 l 358 364 q 259 327 297 364 q 221 229 221 290 q 263 128 221 165 q 381 92 306 92 m 424 -296 q 351 -272 378 -296 q 325 -208 325 -249 q 351 -142 325 -167 q 424 -118 378 -118 q 496 -142 469 -118 q 522 -208 522 -167 q 496 -272 522 -249 q 424 -296 469 -296 m 172 896 l 365 1090 l 481 1090 l 675 896 l 538 896 l 424 1004 l 313 896 l 172 896 z "},"ầ":{"ha":833,"x_min":93,"x_max":764,"o":"m 350 -14 q 163 52 232 -14 q 93 225 93 118 q 125 349 93 296 q 214 431 157 401 q 344 461 271 461 l 581 461 l 581 521 q 540 633 581 596 q 418 669 500 669 q 301 643 346 669 q 254 569 257 617 l 129 569 q 213 719 136 660 q 418 778 290 778 q 631 711 557 778 q 706 525 706 644 l 706 0 l 582 0 l 582 139 l 561 139 l 581 167 q 553 71 581 111 q 474 8 525 31 q 350 -14 422 -14 m 381 92 q 526 136 472 92 q 581 257 581 181 l 581 364 l 358 364 q 259 327 297 364 q 221 229 221 290 q 263 128 221 165 q 381 92 306 92 m 632 1056 l 451 1250 l 590 1250 l 764 1056 l 632 1056 m 174 896 l 365 1090 l 482 1090 l 675 896 l 535 896 l 424 1004 l 311 896 l 174 896 z "},"ẩ":{"ha":833,"x_min":93,"x_max":771,"o":"m 350 -14 q 163 52 232 -14 q 93 225 93 118 q 125 349 93 296 q 214 431 157 401 q 344 461 271 461 l 581 461 l 581 521 q 540 633 581 596 q 418 669 500 669 q 301 643 346 669 q 254 569 257 617 l 129 569 q 213 719 136 660 q 418 778 290 778 q 631 711 557 778 q 706 525 706 644 l 706 0 l 582 0 l 582 139 l 561 139 l 581 167 q 553 71 581 111 q 474 8 525 31 q 350 -14 422 -14 m 381 92 q 526 136 472 92 q 581 257 581 181 l 581 364 l 358 364 q 259 327 297 364 q 221 229 221 290 q 263 128 221 165 q 381 92 306 92 m 594 1056 l 657 1140 q 669 1174 669 1160 q 658 1199 669 1190 q 625 1208 646 1208 l 556 1208 l 556 1292 l 632 1292 q 733 1264 696 1292 q 771 1188 771 1236 q 765 1158 771 1172 q 747 1125 760 1143 l 699 1056 l 594 1056 m 174 896 l 365 1090 l 482 1090 l 675 896 l 535 896 l 424 1004 l 311 896 l 174 896 z "},"ẫ":{"ha":833,"x_min":93,"x_max":706,"o":"m 350 -14 q 163 52 232 -14 q 93 225 93 118 q 125 349 93 296 q 214 431 157 401 q 344 461 271 461 l 581 461 l 581 521 q 540 633 581 596 q 418 669 500 669 q 301 643 346 669 q 254 569 257 617 l 129 569 q 213 719 136 660 q 418 778 290 778 q 631 711 557 778 q 706 525 706 644 l 706 0 l 582 0 l 582 139 l 561 139 l 581 167 q 553 71 581 111 q 474 8 525 31 q 350 -14 422 -14 m 381 92 q 526 136 472 92 q 581 257 581 181 l 581 364 l 358 364 q 259 327 297 364 q 221 229 221 290 q 263 128 221 165 q 381 92 306 92 m 515 1128 q 447 1141 472 1128 q 404 1172 421 1154 q 372 1202 388 1189 q 333 1215 357 1215 q 303 1205 314 1215 q 292 1174 292 1194 l 292 1139 l 201 1139 l 201 1167 q 238 1256 201 1222 q 332 1289 274 1289 q 402 1276 376 1289 q 444 1245 428 1263 q 475 1215 460 1228 q 514 1201 490 1201 q 556 1243 556 1201 l 556 1278 l 646 1278 l 646 1250 q 610 1161 646 1194 q 515 1128 574 1128 m 174 896 l 365 1090 l 482 1090 l 675 896 l 535 896 l 424 1004 l 311 896 l 174 896 z "},"ä":{"ha":833,"x_min":93,"x_max":706,"o":"m 350 -14 q 163 52 232 -14 q 93 225 93 118 q 125 349 93 296 q 214 431 157 401 q 344 461 271 461 l 581 461 l 581 521 q 540 633 581 596 q 418 669 500 669 q 301 643 346 669 q 254 569 257 617 l 129 569 q 213 719 136 660 q 418 778 290 778 q 631 711 557 778 q 706 525 706 644 l 706 0 l 582 0 l 582 139 l 561 139 l 581 167 q 553 71 581 111 q 474 8 525 31 q 350 -14 422 -14 m 381 92 q 526 136 472 92 q 581 257 581 181 l 581 364 l 358 364 q 259 327 297 364 q 221 229 221 290 q 263 128 221 165 q 381 92 306 92 m 578 901 q 513 925 538 901 q 489 989 489 949 q 513 1055 489 1031 q 578 1079 538 1079 q 642 1055 618 1079 q 667 989 667 1031 q 642 925 667 949 q 578 901 618 901 m 269 901 q 205 925 229 901 q 181 989 181 949 q 205 1055 181 1031 q 269 1079 229 1079 q 334 1055 310 1079 q 358 989 358 1031 q 334 925 358 949 q 269 901 310 901 z "},"ạ":{"ha":833,"x_min":93,"x_max":706,"o":"m 350 -14 q 163 52 232 -14 q 93 225 93 118 q 125 349 93 296 q 214 431 157 401 q 344 461 271 461 l 581 461 l 581 521 q 540 633 581 596 q 418 669 500 669 q 301 643 346 669 q 254 569 257 617 l 129 569 q 213 719 136 660 q 418 778 290 778 q 631 711 557 778 q 706 525 706 644 l 706 0 l 582 0 l 582 139 l 561 139 l 581 167 q 553 71 581 111 q 474 8 525 31 q 350 -14 422 -14 m 381 92 q 526 136 472 92 q 581 257 581 181 l 581 364 l 358 364 q 259 327 297 364 q 221 229 221 290 q 263 128 221 165 q 381 92 306 92 m 424 -296 q 351 -272 378 -296 q 325 -208 325 -249 q 351 -142 325 -167 q 424 -118 378 -118 q 496 -142 469 -118 q 522 -208 522 -167 q 496 -272 522 -249 q 424 -296 469 -296 z "},"à":{"ha":833,"x_min":93,"x_max":706,"o":"m 350 -14 q 163 52 232 -14 q 93 225 93 118 q 125 349 93 296 q 214 431 157 401 q 344 461 271 461 l 581 461 l 581 521 q 540 633 581 596 q 418 669 500 669 q 301 643 346 669 q 254 569 257 617 l 129 569 q 213 719 136 660 q 418 778 290 778 q 631 711 557 778 q 706 525 706 644 l 706 0 l 582 0 l 582 139 l 561 139 l 581 167 q 553 71 581 111 q 474 8 525 31 q 350 -14 422 -14 m 381 92 q 526 136 472 92 q 581 257 581 181 l 581 364 l 358 364 q 259 327 297 364 q 221 229 221 290 q 263 128 221 165 q 381 92 306 92 m 378 896 l 218 1090 l 357 1090 l 510 896 l 378 896 z "},"ả":{"ha":833,"x_min":93,"x_max":706,"o":"m 350 -14 q 163 52 232 -14 q 93 225 93 118 q 125 349 93 296 q 214 431 157 401 q 344 461 271 461 l 581 461 l 581 521 q 540 633 581 596 q 418 669 500 669 q 301 643 346 669 q 254 569 257 617 l 129 569 q 213 719 136 660 q 418 778 290 778 q 631 711 557 778 q 706 525 706 644 l 706 0 l 582 0 l 582 139 l 561 139 l 581 167 q 553 71 581 111 q 474 8 525 31 q 350 -14 422 -14 m 381 92 q 526 136 472 92 q 581 257 581 181 l 581 364 l 358 364 q 259 327 297 364 q 221 229 221 290 q 263 128 221 165 q 381 92 306 92 m 365 896 l 435 983 q 454 1028 454 1010 q 410 1056 454 1056 l 299 1056 l 299 1146 l 444 1146 q 530 1119 497 1146 q 563 1043 563 1092 q 539 968 563 999 l 483 896 l 365 896 z "},"ā":{"ha":833,"x_min":93,"x_max":706,"o":"m 350 -14 q 163 52 232 -14 q 93 225 93 118 q 125 349 93 296 q 214 431 157 401 q 344 461 271 461 l 581 461 l 581 521 q 540 633 581 596 q 418 669 500 669 q 301 643 346 669 q 254 569 257 617 l 129 569 q 213 719 136 660 q 418 778 290 778 q 631 711 557 778 q 706 525 706 644 l 706 0 l 582 0 l 582 139 l 561 139 l 581 167 q 553 71 581 111 q 474 8 525 31 q 350 -14 422 -14 m 381 92 q 526 136 472 92 q 581 257 581 181 l 581 364 l 358 364 q 259 327 297 364 q 221 229 221 290 q 263 128 221 165 q 381 92 306 92 m 201 931 l 201 1035 l 646 1035 l 646 931 l 201 931 z "},"ą":{"ha":833,"x_min":93,"x_max":779,"o":"m 671 -282 q 548 -245 594 -282 q 501 -153 501 -208 q 528 -72 501 -112 q 619 14 554 -32 l 708 0 q 640 -69 661 -39 q 619 -129 619 -100 q 640 -179 619 -160 q 696 -199 661 -199 l 779 -199 l 779 -282 l 671 -282 m 350 -14 q 163 52 232 -14 q 93 225 93 118 q 125 349 93 296 q 214 431 157 401 q 344 461 271 461 l 581 461 l 581 521 q 540 633 581 596 q 418 669 500 669 q 301 643 346 669 q 254 569 257 617 l 129 569 q 213 719 136 660 q 418 778 290 778 q 631 711 557 778 q 706 525 706 644 l 706 0 l 582 0 l 582 139 l 561 139 l 581 167 q 553 71 581 111 q 474 8 525 31 q 350 -14 422 -14 m 381 92 q 526 136 472 92 q 581 257 581 181 l 581 364 l 358 364 q 259 327 297 364 q 221 229 221 290 q 263 128 221 165 q 381 92 306 92 z "},"å":{"ha":833,"x_min":93,"x_max":706,"o":"m 350 -14 q 163 52 232 -14 q 93 225 93 118 q 125 349 93 296 q 214 431 157 401 q 344 461 271 461 l 581 461 l 581 521 q 540 633 581 596 q 418 669 500 669 q 301 643 346 669 q 254 569 257 617 l 129 569 q 213 719 136 660 q 418 778 290 778 q 631 711 557 778 q 706 525 706 644 l 706 0 l 582 0 l 582 139 l 561 139 l 581 167 q 553 71 581 111 q 474 8 525 31 q 350 -14 422 -14 m 381 92 q 526 136 472 92 q 581 257 581 181 l 581 364 l 358 364 q 259 327 297 364 q 221 229 221 290 q 263 128 221 165 q 381 92 306 92 m 424 844 q 303 888 349 844 q 257 1003 257 932 q 303 1117 257 1074 q 424 1161 349 1161 q 544 1117 499 1161 q 590 1003 590 1074 q 544 888 590 932 q 424 844 499 844 m 424 918 q 484 941 461 918 q 507 1003 507 964 q 484 1065 507 1042 q 424 1089 461 1089 q 363 1065 386 1089 q 340 1003 340 1042 q 363 941 340 964 q 424 918 386 918 z "},"ã":{"ha":833,"x_min":93,"x_max":706,"o":"m 350 -14 q 163 52 232 -14 q 93 225 93 118 q 125 349 93 296 q 214 431 157 401 q 344 461 271 461 l 581 461 l 581 521 q 540 633 581 596 q 418 669 500 669 q 301 643 346 669 q 254 569 257 617 l 129 569 q 213 719 136 660 q 418 778 290 778 q 631 711 557 778 q 706 525 706 644 l 706 0 l 582 0 l 582 139 l 561 139 l 581 167 q 553 71 581 111 q 474 8 525 31 q 350 -14 422 -14 m 381 92 q 526 136 472 92 q 581 257 581 181 l 581 364 l 358 364 q 259 327 297 364 q 221 229 221 290 q 263 128 221 165 q 381 92 306 92 m 521 903 q 453 917 479 903 q 408 951 426 932 q 374 985 390 971 q 333 1000 357 1000 q 303 988 315 1000 q 292 951 292 976 l 292 910 l 201 910 l 201 951 q 236 1049 201 1014 q 326 1083 271 1083 q 394 1069 368 1083 q 439 1035 421 1054 q 474 1001 457 1015 q 514 986 490 986 q 544 998 533 986 q 556 1035 556 1010 l 556 1076 l 646 1076 l 646 1035 q 612 938 646 972 q 521 903 578 903 z "},"æ":{"ha":833,"x_min":43,"x_max":785,"o":"m 247 -14 q 100 51 157 -14 q 43 221 43 117 q 101 387 43 324 q 253 450 160 450 l 365 450 l 365 554 q 340 642 365 611 q 271 674 315 674 q 201 647 228 674 q 175 575 175 619 l 65 575 q 117 722 65 665 q 253 778 169 778 q 368 744 321 778 q 422 654 415 710 q 474 744 429 710 q 583 778 519 778 q 729 716 674 778 q 785 556 785 654 l 785 356 l 476 356 l 476 208 q 502 122 476 153 q 572 90 528 90 q 642 118 617 90 q 668 190 668 146 l 785 190 q 729 43 785 100 q 583 -14 674 -14 q 478 21 524 -14 q 422 111 433 56 q 363 21 411 56 q 247 -14 314 -14 m 265 90 q 338 122 311 90 q 365 208 365 154 l 365 356 l 256 356 q 186 319 213 356 q 160 222 160 283 q 188 126 160 163 q 265 90 217 90 m 476 450 l 668 450 l 668 556 q 642 642 668 610 q 572 674 617 674 q 503 642 529 674 q 476 556 476 610 l 476 450 z "},"ǽ":{"ha":833,"x_min":43,"x_max":785,"o":"m 247 -14 q 100 51 157 -14 q 43 221 43 117 q 101 387 43 324 q 253 450 160 450 l 365 450 l 365 554 q 340 642 365 611 q 271 674 315 674 q 201 647 228 674 q 175 575 175 619 l 65 575 q 117 722 65 665 q 253 778 169 778 q 368 744 321 778 q 422 654 415 710 q 474 744 429 710 q 583 778 519 778 q 729 716 674 778 q 785 556 785 654 l 785 356 l 476 356 l 476 208 q 502 122 476 153 q 572 90 528 90 q 642 118 617 90 q 668 190 668 146 l 785 190 q 729 43 785 100 q 583 -14 674 -14 q 478 21 524 -14 q 422 111 433 56 q 363 21 411 56 q 247 -14 314 -14 m 265 90 q 338 122 311 90 q 365 208 365 154 l 365 356 l 256 356 q 186 319 213 356 q 160 222 160 283 q 188 126 160 163 q 265 90 217 90 m 476 450 l 668 450 l 668 556 q 642 642 668 610 q 572 674 617 674 q 503 642 529 674 q 476 556 476 610 l 476 450 m 336 896 l 483 1090 l 618 1090 l 464 896 l 336 896 z "},"b":{"ha":833,"x_min":128,"x_max":713,"o":"m 461 -14 q 310 37 367 -14 q 253 175 253 88 l 278 146 l 253 146 l 253 0 l 128 0 l 128 1014 l 253 1014 l 253 792 l 250 618 l 278 618 l 250 589 q 309 726 250 675 q 461 778 368 778 q 644 701 576 778 q 713 493 713 625 l 713 269 q 644 63 713 139 q 461 -14 576 -14 m 419 94 q 543 136 499 94 q 588 271 588 178 l 588 493 q 543 628 588 588 q 419 669 499 669 q 298 621 343 669 q 253 486 253 572 l 253 278 q 298 143 253 192 q 419 94 343 94 z "},"c":{"ha":833,"x_min":122,"x_max":726,"o":"m 428 -14 q 267 21 336 -14 q 160 122 199 56 q 122 278 122 188 l 122 486 q 160 643 122 578 q 267 743 199 708 q 428 778 336 778 q 641 707 560 778 q 726 514 722 636 l 601 514 q 551 627 597 588 q 428 667 506 667 q 297 620 346 667 q 247 488 247 574 l 247 278 q 297 144 247 192 q 428 97 346 97 q 551 138 506 97 q 601 250 597 178 l 726 250 q 641 57 722 128 q 428 -14 560 -14 z "},"ć":{"ha":833,"x_min":122,"x_max":726,"o":"m 428 -14 q 267 21 336 -14 q 160 122 199 56 q 122 278 122 188 l 122 486 q 160 643 122 578 q 267 743 199 708 q 428 778 336 778 q 641 707 560 778 q 726 514 722 636 l 601 514 q 551 627 597 588 q 428 667 506 667 q 297 620 346 667 q 247 488 247 574 l 247 278 q 297 144 247 192 q 428 97 346 97 q 551 138 506 97 q 601 250 597 178 l 726 250 q 641 57 722 128 q 428 -14 560 -14 m 347 896 l 494 1090 l 629 1090 l 475 896 l 347 896 z "},"č":{"ha":833,"x_min":122,"x_max":726,"o":"m 428 -14 q 267 21 336 -14 q 160 122 199 56 q 122 278 122 188 l 122 486 q 160 643 122 578 q 267 743 199 708 q 428 778 336 778 q 641 707 560 778 q 726 514 722 636 l 601 514 q 551 627 597 588 q 428 667 506 667 q 297 620 346 667 q 247 488 247 574 l 247 278 q 297 144 247 192 q 428 97 346 97 q 551 138 506 97 q 601 250 597 178 l 726 250 q 641 57 722 128 q 428 -14 560 -14 m 371 896 l 176 1090 l 314 1090 l 428 982 l 539 1090 l 679 1090 l 486 896 l 371 896 z "},"ç":{"ha":833,"x_min":122,"x_max":726,"o":"m 290 -282 l 290 -206 l 388 -206 q 437 -190 418 -206 q 456 -156 456 -174 q 417 -114 456 -132 q 310 -96 379 -96 l 358 36 l 438 36 l 408 -49 q 483 -67 444 -53 q 549 -106 522 -81 q 575 -167 575 -131 q 529 -248 575 -214 q 408 -282 483 -282 l 290 -282 m 428 -14 q 267 21 336 -14 q 160 122 199 56 q 122 278 122 188 l 122 486 q 160 643 122 578 q 267 743 199 708 q 428 778 336 778 q 641 707 560 778 q 726 514 722 636 l 601 514 q 551 627 597 588 q 428 667 506 667 q 297 620 346 667 q 247 488 247 574 l 247 278 q 297 144 247 192 q 428 97 346 97 q 551 138 506 97 q 601 250 597 178 l 726 250 q 641 57 722 128 q 428 -14 560 -14 z "},"ĉ":{"ha":833,"x_min":122,"x_max":726,"o":"m 428 -14 q 267 21 336 -14 q 160 122 199 56 q 122 278 122 188 l 122 486 q 160 643 122 578 q 267 743 199 708 q 428 778 336 778 q 641 707 560 778 q 726 514 722 636 l 601 514 q 551 627 597 588 q 428 667 506 667 q 297 620 346 667 q 247 488 247 574 l 247 278 q 297 144 247 192 q 428 97 346 97 q 551 138 506 97 q 601 250 597 178 l 726 250 q 641 57 722 128 q 428 -14 560 -14 m 176 896 l 369 1090 l 485 1090 l 679 896 l 542 896 l 428 1004 l 317 896 l 176 896 z "},"ċ":{"ha":833,"x_min":122,"x_max":726,"o":"m 428 -14 q 267 21 336 -14 q 160 122 199 56 q 122 278 122 188 l 122 486 q 160 643 122 578 q 267 743 199 708 q 428 778 336 778 q 641 707 560 778 q 726 514 722 636 l 601 514 q 551 627 597 588 q 428 667 506 667 q 297 620 346 667 q 247 488 247 574 l 247 278 q 297 144 247 192 q 428 97 346 97 q 551 138 506 97 q 601 250 597 178 l 726 250 q 641 57 722 128 q 428 -14 560 -14 m 428 901 q 356 925 382 901 q 329 989 329 949 q 356 1055 329 1031 q 428 1079 382 1079 q 500 1055 474 1079 q 526 989 526 1031 q 500 925 526 949 q 428 901 474 901 z "},"d":{"ha":833,"x_min":121,"x_max":706,"o":"m 372 -14 q 190 63 258 -14 q 121 269 121 139 l 121 493 q 189 701 121 625 q 372 778 257 778 q 525 726 467 778 q 583 589 583 675 l 556 618 l 583 618 l 581 792 l 581 1014 l 706 1014 l 706 0 l 581 0 l 581 146 l 556 146 l 581 175 q 524 37 581 88 q 372 -14 467 -14 m 414 94 q 536 143 492 94 q 581 278 581 192 l 581 486 q 536 621 581 572 q 414 669 492 669 q 290 628 335 669 q 246 493 246 588 l 246 271 q 290 136 246 178 q 414 94 335 94 z "},"ð":{"ha":833,"x_min":97,"x_max":736,"o":"m 415 -14 q 249 25 321 -14 q 137 135 176 64 q 97 299 97 206 q 134 460 97 392 q 237 567 171 529 q 390 606 303 606 q 463 593 431 606 q 517 563 494 581 q 549 528 539 544 l 568 528 q 540 578 563 542 q 479 667 518 615 l 389 793 l 163 688 l 163 799 l 329 876 l 229 1014 l 374 1014 l 435 925 l 640 1021 l 640 910 l 493 842 l 601 685 q 699 497 663 596 q 736 310 736 399 q 696 140 736 213 q 584 26 656 67 q 415 -14 513 -14 m 415 97 q 558 153 504 97 q 611 299 611 208 q 587 405 611 360 q 519 475 563 450 q 415 500 475 500 q 276 444 329 500 q 222 299 222 389 q 276 153 222 208 q 415 97 329 97 z "},"ď":{"ha":833,"x_min":88,"x_max":839,"o":"m 317 -14 q 149 61 211 -14 q 88 263 88 136 l 88 500 q 149 703 88 628 q 317 778 211 778 q 453 726 403 778 q 504 589 504 675 l 479 618 l 507 618 l 504 792 l 504 1014 l 629 1014 l 629 0 l 504 0 l 504 146 l 479 146 l 504 175 q 453 38 504 89 q 317 -14 403 -14 m 358 94 q 466 141 428 94 q 504 271 504 188 l 504 493 q 466 623 504 576 q 358 669 428 669 q 251 623 290 669 q 213 493 213 576 l 213 271 q 251 141 213 188 q 358 94 290 94 m 701 764 l 722 1014 l 839 1014 l 806 764 l 701 764 z "},"đ":{"ha":833,"x_min":125,"x_max":833,"o":"m 372 -14 q 192 63 258 -14 q 125 269 125 139 l 125 410 q 191 618 125 542 q 372 694 257 694 q 522 643 467 694 q 578 506 578 592 l 553 535 l 581 535 l 578 708 l 578 1014 l 703 1014 l 703 0 l 578 0 l 578 146 l 553 146 l 578 175 q 522 37 578 88 q 372 -14 467 -14 m 414 94 q 535 143 492 94 q 578 278 578 192 l 578 403 q 535 538 578 489 q 414 586 492 586 q 292 539 335 586 q 250 403 250 492 l 250 278 q 292 142 250 189 q 414 94 335 94 m 347 792 l 347 896 l 833 896 l 833 792 l 347 792 z "},"e":{"ha":833,"x_min":117,"x_max":717,"o":"m 417 -14 q 259 23 326 -14 q 154 128 192 60 q 117 292 117 197 l 117 472 q 154 636 117 568 q 259 741 192 704 q 417 778 326 778 q 574 742 507 778 q 679 640 642 706 q 717 486 717 575 l 717 350 l 239 350 l 239 278 q 288 144 239 193 q 417 94 336 94 q 531 122 486 94 q 586 194 576 149 l 711 194 q 618 42 699 99 q 417 -14 538 -14 m 594 435 l 594 486 q 548 626 594 576 q 417 675 501 675 q 285 626 332 675 q 239 486 239 576 l 239 447 l 604 447 l 594 435 z "},"é":{"ha":833,"x_min":117,"x_max":717,"o":"m 417 -14 q 259 23 326 -14 q 154 128 192 60 q 117 292 117 197 l 117 472 q 154 636 117 568 q 259 741 192 704 q 417 778 326 778 q 574 742 507 778 q 679 640 642 706 q 717 486 717 575 l 717 350 l 239 350 l 239 278 q 288 144 239 193 q 417 94 336 94 q 531 122 486 94 q 586 194 576 149 l 711 194 q 618 42 699 99 q 417 -14 538 -14 m 594 435 l 594 486 q 548 626 594 576 q 417 675 501 675 q 285 626 332 675 q 239 486 239 576 l 239 447 l 604 447 l 594 435 m 336 896 l 483 1090 l 618 1090 l 464 896 l 336 896 z "},"ĕ":{"ha":833,"x_min":117,"x_max":717,"o":"m 417 -14 q 259 23 326 -14 q 154 128 192 60 q 117 292 117 197 l 117 472 q 154 636 117 568 q 259 741 192 704 q 417 778 326 778 q 574 742 507 778 q 679 640 642 706 q 717 486 717 575 l 717 350 l 239 350 l 239 278 q 288 144 239 193 q 417 94 336 94 q 531 122 486 94 q 586 194 576 149 l 711 194 q 618 42 699 99 q 417 -14 538 -14 m 594 435 l 594 486 q 548 626 594 576 q 417 675 501 675 q 285 626 332 675 q 239 486 239 576 l 239 447 l 604 447 l 594 435 m 417 889 q 256 944 317 889 q 194 1090 194 1000 l 293 1090 q 326 1003 293 1036 q 415 969 360 969 q 506 1003 472 969 q 540 1090 540 1036 l 639 1090 q 578 944 639 1000 q 417 889 517 889 z "},"ě":{"ha":833,"x_min":117,"x_max":717,"o":"m 417 -14 q 259 23 326 -14 q 154 128 192 60 q 117 292 117 197 l 117 472 q 154 636 117 568 q 259 741 192 704 q 417 778 326 778 q 574 742 507 778 q 679 640 642 706 q 717 486 717 575 l 717 350 l 239 350 l 239 278 q 288 144 239 193 q 417 94 336 94 q 531 122 486 94 q 586 194 576 149 l 711 194 q 618 42 699 99 q 417 -14 538 -14 m 594 435 l 594 486 q 548 626 594 576 q 417 675 501 675 q 285 626 332 675 q 239 486 239 576 l 239 447 l 604 447 l 594 435 m 360 896 l 165 1090 l 303 1090 l 417 982 l 528 1090 l 668 1090 l 475 896 l 360 896 z "},"ê":{"ha":833,"x_min":117,"x_max":717,"o":"m 417 -14 q 259 23 326 -14 q 154 128 192 60 q 117 292 117 197 l 117 472 q 154 636 117 568 q 259 741 192 704 q 417 778 326 778 q 574 742 507 778 q 679 640 642 706 q 717 486 717 575 l 717 350 l 239 350 l 239 278 q 288 144 239 193 q 417 94 336 94 q 531 122 486 94 q 586 194 576 149 l 711 194 q 618 42 699 99 q 417 -14 538 -14 m 594 435 l 594 486 q 548 626 594 576 q 417 675 501 675 q 285 626 332 675 q 239 486 239 576 l 239 447 l 604 447 l 594 435 m 165 896 l 358 1090 l 474 1090 l 668 896 l 531 896 l 417 1004 l 306 896 l 165 896 z "},"ế":{"ha":833,"x_min":117,"x_max":868,"o":"m 417 -14 q 259 23 326 -14 q 154 128 192 60 q 117 292 117 197 l 117 472 q 154 636 117 568 q 259 741 192 704 q 417 778 326 778 q 574 742 507 778 q 679 640 642 706 q 717 486 717 575 l 717 350 l 239 350 l 239 278 q 288 144 239 193 q 417 94 336 94 q 531 122 486 94 q 586 194 576 149 l 711 194 q 618 42 699 99 q 417 -14 538 -14 m 594 435 l 594 486 q 548 626 594 576 q 417 675 501 675 q 285 626 332 675 q 239 486 239 576 l 239 447 l 604 447 l 594 435 m 569 1056 l 729 1250 l 868 1250 l 701 1056 l 569 1056 m 167 896 l 358 1090 l 475 1090 l 668 896 l 528 896 l 417 1004 l 304 896 l 167 896 z "},"ệ":{"ha":833,"x_min":117,"x_max":717,"o":"m 417 -14 q 259 23 326 -14 q 154 128 192 60 q 117 292 117 197 l 117 472 q 154 636 117 568 q 259 741 192 704 q 417 778 326 778 q 574 742 507 778 q 679 640 642 706 q 717 486 717 575 l 717 350 l 239 350 l 239 278 q 288 144 239 193 q 417 94 336 94 q 531 122 486 94 q 586 194 576 149 l 711 194 q 618 42 699 99 q 417 -14 538 -14 m 594 435 l 594 486 q 548 626 594 576 q 417 675 501 675 q 285 626 332 675 q 239 486 239 576 l 239 447 l 604 447 l 594 435 m 417 -296 q 344 -272 371 -296 q 318 -208 318 -249 q 344 -142 318 -167 q 417 -118 371 -118 q 489 -142 463 -118 q 515 -208 515 -167 q 489 -272 515 -249 q 417 -296 463 -296 m 165 896 l 358 1090 l 474 1090 l 668 896 l 531 896 l 417 1004 l 306 896 l 165 896 z "},"ề":{"ha":833,"x_min":117,"x_max":757,"o":"m 417 -14 q 259 23 326 -14 q 154 128 192 60 q 117 292 117 197 l 117 472 q 154 636 117 568 q 259 741 192 704 q 417 778 326 778 q 574 742 507 778 q 679 640 642 706 q 717 486 717 575 l 717 350 l 239 350 l 239 278 q 288 144 239 193 q 417 94 336 94 q 531 122 486 94 q 586 194 576 149 l 711 194 q 618 42 699 99 q 417 -14 538 -14 m 594 435 l 594 486 q 548 626 594 576 q 417 675 501 675 q 285 626 332 675 q 239 486 239 576 l 239 447 l 604 447 l 594 435 m 625 1056 l 444 1250 l 583 1250 l 757 1056 l 625 1056 m 167 896 l 358 1090 l 475 1090 l 668 896 l 528 896 l 417 1004 l 304 896 l 167 896 z "},"ể":{"ha":833,"x_min":117,"x_max":764,"o":"m 417 -14 q 259 23 326 -14 q 154 128 192 60 q 117 292 117 197 l 117 472 q 154 636 117 568 q 259 741 192 704 q 417 778 326 778 q 574 742 507 778 q 679 640 642 706 q 717 486 717 575 l 717 350 l 239 350 l 239 278 q 288 144 239 193 q 417 94 336 94 q 531 122 486 94 q 586 194 576 149 l 711 194 q 618 42 699 99 q 417 -14 538 -14 m 594 435 l 594 486 q 548 626 594 576 q 417 675 501 675 q 285 626 332 675 q 239 486 239 576 l 239 447 l 604 447 l 594 435 m 588 1056 l 650 1140 q 663 1174 663 1160 q 651 1199 663 1190 q 618 1208 639 1208 l 549 1208 l 549 1292 l 625 1292 q 726 1264 689 1292 q 764 1188 764 1236 q 758 1158 764 1172 q 740 1125 753 1143 l 692 1056 l 588 1056 m 167 896 l 358 1090 l 475 1090 l 668 896 l 528 896 l 417 1004 l 304 896 l 167 896 z "},"ễ":{"ha":833,"x_min":117,"x_max":717,"o":"m 417 -14 q 259 23 326 -14 q 154 128 192 60 q 117 292 117 197 l 117 472 q 154 636 117 568 q 259 741 192 704 q 417 778 326 778 q 574 742 507 778 q 679 640 642 706 q 717 486 717 575 l 717 350 l 239 350 l 239 278 q 288 144 239 193 q 417 94 336 94 q 531 122 486 94 q 586 194 576 149 l 711 194 q 618 42 699 99 q 417 -14 538 -14 m 594 435 l 594 486 q 548 626 594 576 q 417 675 501 675 q 285 626 332 675 q 239 486 239 576 l 239 447 l 604 447 l 594 435 m 508 1128 q 440 1141 465 1128 q 397 1172 414 1154 q 365 1202 381 1189 q 326 1215 350 1215 q 296 1205 307 1215 q 285 1174 285 1194 l 285 1139 l 194 1139 l 194 1167 q 231 1256 194 1222 q 325 1289 267 1289 q 395 1276 369 1289 q 437 1245 421 1263 q 468 1215 453 1228 q 507 1201 483 1201 q 549 1243 549 1201 l 549 1278 l 639 1278 l 639 1250 q 603 1161 639 1194 q 508 1128 567 1128 m 167 896 l 358 1090 l 475 1090 l 668 896 l 528 896 l 417 1004 l 304 896 l 167 896 z "},"ë":{"ha":833,"x_min":117,"x_max":717,"o":"m 417 -14 q 259 23 326 -14 q 154 128 192 60 q 117 292 117 197 l 117 472 q 154 636 117 568 q 259 741 192 704 q 417 778 326 778 q 574 742 507 778 q 679 640 642 706 q 717 486 717 575 l 717 350 l 239 350 l 239 278 q 288 144 239 193 q 417 94 336 94 q 531 122 486 94 q 586 194 576 149 l 711 194 q 618 42 699 99 q 417 -14 538 -14 m 594 435 l 594 486 q 548 626 594 576 q 417 675 501 675 q 285 626 332 675 q 239 486 239 576 l 239 447 l 604 447 l 594 435 m 571 901 q 506 925 531 901 q 482 989 482 949 q 506 1055 482 1031 q 571 1079 531 1079 q 635 1055 611 1079 q 660 989 660 1031 q 635 925 660 949 q 571 901 611 901 m 263 901 q 198 925 222 901 q 174 989 174 949 q 198 1055 174 1031 q 263 1079 222 1079 q 327 1055 303 1079 q 351 989 351 1031 q 327 925 351 949 q 263 901 303 901 z "},"ė":{"ha":833,"x_min":117,"x_max":717,"o":"m 417 -14 q 259 23 326 -14 q 154 128 192 60 q 117 292 117 197 l 117 472 q 154 636 117 568 q 259 741 192 704 q 417 778 326 778 q 574 742 507 778 q 679 640 642 706 q 717 486 717 575 l 717 350 l 239 350 l 239 278 q 288 144 239 193 q 417 94 336 94 q 531 122 486 94 q 586 194 576 149 l 711 194 q 618 42 699 99 q 417 -14 538 -14 m 594 435 l 594 486 q 548 626 594 576 q 417 675 501 675 q 285 626 332 675 q 239 486 239 576 l 239 447 l 604 447 l 594 435 m 417 901 q 344 925 371 901 q 318 989 318 949 q 344 1055 318 1031 q 417 1079 371 1079 q 489 1055 463 1079 q 515 989 515 1031 q 489 925 515 949 q 417 901 463 901 z "},"ẹ":{"ha":833,"x_min":117,"x_max":717,"o":"m 417 -14 q 259 23 326 -14 q 154 128 192 60 q 117 292 117 197 l 117 472 q 154 636 117 568 q 259 741 192 704 q 417 778 326 778 q 574 742 507 778 q 679 640 642 706 q 717 486 717 575 l 717 350 l 239 350 l 239 278 q 288 144 239 193 q 417 94 336 94 q 531 122 486 94 q 586 194 576 149 l 711 194 q 618 42 699 99 q 417 -14 538 -14 m 594 435 l 594 486 q 548 626 594 576 q 417 675 501 675 q 285 626 332 675 q 239 486 239 576 l 239 447 l 604 447 l 594 435 m 417 -296 q 344 -272 371 -296 q 318 -208 318 -249 q 344 -142 318 -167 q 417 -118 371 -118 q 489 -142 463 -118 q 515 -208 515 -167 q 489 -272 515 -249 q 417 -296 463 -296 z "},"è":{"ha":833,"x_min":117,"x_max":717,"o":"m 417 -14 q 259 23 326 -14 q 154 128 192 60 q 117 292 117 197 l 117 472 q 154 636 117 568 q 259 741 192 704 q 417 778 326 778 q 574 742 507 778 q 679 640 642 706 q 717 486 717 575 l 717 350 l 239 350 l 239 278 q 288 144 239 193 q 417 94 336 94 q 531 122 486 94 q 586 194 576 149 l 711 194 q 618 42 699 99 q 417 -14 538 -14 m 594 435 l 594 486 q 548 626 594 576 q 417 675 501 675 q 285 626 332 675 q 239 486 239 576 l 239 447 l 604 447 l 594 435 m 371 896 l 211 1090 l 350 1090 l 503 896 l 371 896 z "},"ẻ":{"ha":833,"x_min":117,"x_max":717,"o":"m 417 -14 q 259 23 326 -14 q 154 128 192 60 q 117 292 117 197 l 117 472 q 154 636 117 568 q 259 741 192 704 q 417 778 326 778 q 574 742 507 778 q 679 640 642 706 q 717 486 717 575 l 717 350 l 239 350 l 239 278 q 288 144 239 193 q 417 94 336 94 q 531 122 486 94 q 586 194 576 149 l 711 194 q 618 42 699 99 q 417 -14 538 -14 m 594 435 l 594 486 q 548 626 594 576 q 417 675 501 675 q 285 626 332 675 q 239 486 239 576 l 239 447 l 604 447 l 594 435 m 358 896 l 428 983 q 447 1028 447 1010 q 403 1056 447 1056 l 292 1056 l 292 1146 l 438 1146 q 523 1119 490 1146 q 556 1043 556 1092 q 532 968 556 999 l 476 896 l 358 896 z "},"ē":{"ha":833,"x_min":117,"x_max":717,"o":"m 417 -14 q 259 23 326 -14 q 154 128 192 60 q 117 292 117 197 l 117 472 q 154 636 117 568 q 259 741 192 704 q 417 778 326 778 q 574 742 507 778 q 679 640 642 706 q 717 486 717 575 l 717 350 l 239 350 l 239 278 q 288 144 239 193 q 417 94 336 94 q 531 122 486 94 q 586 194 576 149 l 711 194 q 618 42 699 99 q 417 -14 538 -14 m 594 435 l 594 486 q 548 626 594 576 q 417 675 501 675 q 285 626 332 675 q 239 486 239 576 l 239 447 l 604 447 l 594 435 m 194 931 l 194 1035 l 639 1035 l 639 931 l 194 931 z "},"ę":{"ha":833,"x_min":122,"x_max":711,"o":"m 518 -282 q 395 -245 442 -282 q 349 -153 349 -208 q 369 -85 349 -121 q 431 -14 390 -50 q 424 -14 428 -14 q 417 -14 419 -14 q 260 22 326 -14 q 158 124 194 58 q 122 278 122 190 l 122 486 q 158 640 122 575 q 260 742 194 706 q 417 778 326 778 q 573 742 507 778 q 675 640 639 706 q 711 486 711 575 l 711 351 l 244 351 l 244 278 q 288 140 244 188 q 417 92 332 92 q 531 117 489 92 q 583 194 574 143 l 708 194 q 667 90 701 135 q 578 19 632 46 l 556 1 q 488 -69 508 -37 q 467 -129 467 -100 q 488 -179 467 -160 q 543 -199 508 -199 l 626 -199 l 626 -282 l 518 -282 m 589 390 l 589 486 q 546 625 589 576 q 417 674 503 674 q 288 625 332 674 q 244 486 244 576 l 244 446 l 644 446 l 589 390 z "},"ẽ":{"ha":833,"x_min":117,"x_max":717,"o":"m 417 -14 q 259 23 326 -14 q 154 128 192 60 q 117 292 117 197 l 117 472 q 154 636 117 568 q 259 741 192 704 q 417 778 326 778 q 574 742 507 778 q 679 640 642 706 q 717 486 717 575 l 717 350 l 239 350 l 239 278 q 288 144 239 193 q 417 94 336 94 q 531 122 486 94 q 586 194 576 149 l 711 194 q 618 42 699 99 q 417 -14 538 -14 m 594 435 l 594 486 q 548 626 594 576 q 417 675 501 675 q 285 626 332 675 q 239 486 239 576 l 239 447 l 604 447 l 594 435 m 514 903 q 446 917 472 903 q 401 951 419 932 q 367 985 383 971 q 326 1000 350 1000 q 297 988 308 1000 q 285 951 285 976 l 285 910 l 194 910 l 194 951 q 229 1049 194 1014 q 319 1083 264 1083 q 388 1069 361 1083 q 432 1035 414 1054 q 467 1001 450 1015 q 507 986 483 986 q 538 998 526 986 q 549 1035 549 1010 l 549 1076 l 639 1076 l 639 1035 q 605 938 639 972 q 514 903 571 903 z "},"ə":{"ha":833,"x_min":125,"x_max":708,"o":"m 417 -14 q 261 22 326 -14 q 160 124 196 58 q 125 278 125 190 l 125 413 l 586 413 l 586 486 q 544 624 586 576 q 417 672 503 672 q 304 647 344 672 q 253 569 264 621 l 128 569 q 218 722 140 665 q 417 778 296 778 q 572 742 507 778 q 673 640 638 706 q 708 486 708 575 l 708 278 q 673 124 708 190 q 572 22 638 58 q 417 -14 507 -14 m 417 90 q 544 139 503 90 q 586 278 586 188 l 586 318 l 238 318 l 247 329 l 247 278 q 290 139 247 188 q 417 90 332 90 z "},"f":{"ha":833,"x_min":76,"x_max":736,"o":"m 299 0 l 299 546 l 76 546 l 76 660 l 299 660 l 299 819 q 356 962 299 910 q 513 1014 413 1014 l 736 1014 l 736 900 l 513 900 q 447 880 469 900 q 424 819 424 860 l 424 660 l 736 660 l 736 546 l 424 546 l 424 0 l 299 0 z "},"g":{"ha":833,"x_min":122,"x_max":704,"o":"m 224 -250 l 224 -136 l 439 -136 q 542 -99 504 -136 q 579 0 579 -62 l 579 69 l 582 194 l 557 194 l 581 229 q 525 99 581 146 q 376 53 469 53 q 190 128 258 53 q 122 333 122 203 l 122 494 q 190 701 122 625 q 376 778 258 778 q 525 729 469 778 q 581 597 581 681 l 557 632 l 581 632 l 581 764 l 704 764 l 704 0 q 633 -183 704 -115 q 438 -250 561 -250 l 224 -250 m 414 157 q 536 206 492 157 q 581 340 581 254 l 581 486 q 536 621 581 572 q 414 669 492 669 q 291 624 335 669 q 247 500 247 578 l 247 326 q 291 203 247 249 q 414 157 335 157 z "},"ǵ":{"ha":833,"x_min":122,"x_max":704,"o":"m 224 -250 l 224 -136 l 439 -136 q 542 -99 504 -136 q 579 0 579 -62 l 579 69 l 582 194 l 557 194 l 581 229 q 525 99 581 146 q 376 53 469 53 q 190 128 258 53 q 122 333 122 203 l 122 494 q 190 701 122 625 q 376 778 258 778 q 525 729 469 778 q 581 597 581 681 l 557 632 l 581 632 l 581 764 l 704 764 l 704 0 q 633 -183 704 -115 q 438 -250 561 -250 l 224 -250 m 414 157 q 536 206 492 157 q 581 340 581 254 l 581 486 q 536 621 581 572 q 414 669 492 669 q 291 624 335 669 q 247 500 247 578 l 247 326 q 291 203 247 249 q 414 157 335 157 m 332 896 l 479 1090 l 614 1090 l 460 896 l 332 896 z "},"ğ":{"ha":833,"x_min":122,"x_max":704,"o":"m 224 -250 l 224 -136 l 439 -136 q 542 -99 504 -136 q 579 0 579 -62 l 579 69 l 582 194 l 557 194 l 581 229 q 525 99 581 146 q 376 53 469 53 q 190 128 258 53 q 122 333 122 203 l 122 494 q 190 701 122 625 q 376 778 258 778 q 525 729 469 778 q 581 597 581 681 l 557 632 l 581 632 l 581 764 l 704 764 l 704 0 q 633 -183 704 -115 q 438 -250 561 -250 l 224 -250 m 414 157 q 536 206 492 157 q 581 340 581 254 l 581 486 q 536 621 581 572 q 414 669 492 669 q 291 624 335 669 q 247 500 247 578 l 247 326 q 291 203 247 249 q 414 157 335 157 m 413 889 q 251 944 313 889 q 190 1090 190 1000 l 289 1090 q 322 1003 289 1036 q 411 969 356 969 q 502 1003 468 969 q 536 1090 536 1036 l 635 1090 q 574 944 635 1000 q 413 889 513 889 z "},"ǧ":{"ha":833,"x_min":122,"x_max":704,"o":"m 224 -250 l 224 -136 l 439 -136 q 542 -99 504 -136 q 579 0 579 -62 l 579 69 l 582 194 l 557 194 l 581 229 q 525 99 581 146 q 376 53 469 53 q 190 128 258 53 q 122 333 122 203 l 122 494 q 190 701 122 625 q 376 778 258 778 q 525 729 469 778 q 581 597 581 681 l 557 632 l 581 632 l 581 764 l 704 764 l 704 0 q 633 -183 704 -115 q 438 -250 561 -250 l 224 -250 m 414 157 q 536 206 492 157 q 581 340 581 254 l 581 486 q 536 621 581 572 q 414 669 492 669 q 291 624 335 669 q 247 500 247 578 l 247 326 q 291 203 247 249 q 414 157 335 157 m 356 896 l 161 1090 l 299 1090 l 413 982 l 524 1090 l 664 1090 l 471 896 l 356 896 z "},"ĝ":{"ha":833,"x_min":122,"x_max":704,"o":"m 224 -250 l 224 -136 l 439 -136 q 542 -99 504 -136 q 579 0 579 -62 l 579 69 l 582 194 l 557 194 l 581 229 q 525 99 581 146 q 376 53 469 53 q 190 128 258 53 q 122 333 122 203 l 122 494 q 190 701 122 625 q 376 778 258 778 q 525 729 469 778 q 581 597 581 681 l 557 632 l 581 632 l 581 764 l 704 764 l 704 0 q 633 -183 704 -115 q 438 -250 561 -250 l 224 -250 m 414 157 q 536 206 492 157 q 581 340 581 254 l 581 486 q 536 621 581 572 q 414 669 492 669 q 291 624 335 669 q 247 500 247 578 l 247 326 q 291 203 247 249 q 414 157 335 157 m 161 896 l 354 1090 l 469 1090 l 664 896 l 526 896 l 413 1004 l 301 896 l 161 896 z "},"ģ":{"ha":833,"x_min":122,"x_max":704,"o":"m 224 -250 l 224 -136 l 439 -136 q 542 -99 504 -136 q 579 0 579 -62 l 579 69 l 582 194 l 557 194 l 581 229 q 525 99 581 146 q 376 53 469 53 q 190 128 258 53 q 122 333 122 203 l 122 494 q 190 701 122 625 q 376 778 258 778 q 525 729 469 778 q 581 597 581 681 l 557 632 l 581 632 l 581 764 l 704 764 l 704 0 q 633 -183 704 -115 q 438 -250 561 -250 l 224 -250 m 414 157 q 536 206 492 157 q 581 340 581 254 l 581 486 q 536 621 581 572 q 414 669 492 669 q 291 624 335 669 q 247 500 247 578 l 247 326 q 291 203 247 249 q 414 157 335 157 m 572 1222 l 461 896 l 288 896 l 468 1222 l 572 1222 z "},"ġ":{"ha":833,"x_min":122,"x_max":704,"o":"m 224 -250 l 224 -136 l 439 -136 q 542 -99 504 -136 q 579 0 579 -62 l 579 69 l 582 194 l 557 194 l 581 229 q 525 99 581 146 q 376 53 469 53 q 190 128 258 53 q 122 333 122 203 l 122 494 q 190 701 122 625 q 376 778 258 778 q 525 729 469 778 q 581 597 581 681 l 557 632 l 581 632 l 581 764 l 704 764 l 704 0 q 633 -183 704 -115 q 438 -250 561 -250 l 224 -250 m 414 157 q 536 206 492 157 q 581 340 581 254 l 581 486 q 536 621 581 572 q 414 669 492 669 q 291 624 335 669 q 247 500 247 578 l 247 326 q 291 203 247 249 q 414 157 335 157 m 413 901 q 340 925 367 901 q 314 989 314 949 q 340 1055 314 1031 q 413 1079 367 1079 q 485 1055 458 1079 q 511 989 511 1031 q 485 925 511 949 q 413 901 458 901 z "},"h":{"ha":833,"x_min":128,"x_max":708,"o":"m 128 0 l 128 1014 l 253 1014 l 253 764 l 253 618 l 279 618 l 253 589 q 307 728 253 679 q 457 778 361 778 q 640 707 572 778 q 708 514 708 636 l 708 0 l 583 0 l 583 493 q 540 626 583 579 q 421 672 496 672 q 298 624 343 672 q 253 486 253 575 l 253 0 l 128 0 z "},"ħ":{"ha":833,"x_min":0,"x_max":708,"o":"m 0 792 l 0 896 l 128 896 l 128 1014 l 253 1014 l 253 896 l 486 896 l 486 792 l 253 792 l 253 681 l 253 535 l 254 535 q 317 653 264 611 q 457 694 369 694 q 640 624 572 694 q 708 431 708 553 l 708 0 l 583 0 l 583 417 q 540 544 583 499 q 421 589 496 589 q 298 540 343 589 q 253 403 253 492 l 253 0 l 128 0 l 128 792 l 0 792 z "},"ĥ":{"ha":833,"x_min":-61,"x_max":708,"o":"m 128 0 l 128 1014 l 253 1014 l 253 764 l 253 618 l 279 618 l 253 589 q 307 728 253 679 q 457 778 361 778 q 640 707 572 778 q 708 514 708 636 l 708 0 l 583 0 l 583 493 q 540 626 583 579 q 421 672 496 672 q 298 624 343 672 q 253 486 253 575 l 253 0 l 128 0 m -61 1146 l 132 1340 l 247 1340 l 442 1146 l 304 1146 l 190 1254 l 79 1146 l -61 1146 z "},"i":{"ha":833,"x_min":118,"x_max":771,"o":"m 118 0 l 118 114 l 389 114 l 389 650 l 146 650 l 146 764 l 514 764 l 514 114 l 771 114 l 771 0 l 118 0 m 438 901 q 365 925 392 901 q 339 989 339 949 q 365 1055 339 1031 q 438 1079 392 1079 q 510 1055 483 1079 q 536 989 536 1031 q 510 925 536 949 q 438 901 483 901 z "},"ı":{"ha":833,"x_min":118,"x_max":771,"o":"m 118 0 l 118 114 l 389 114 l 389 650 l 146 650 l 146 764 l 514 764 l 514 114 l 771 114 l 771 0 l 118 0 z "},"í":{"ha":833,"x_min":118,"x_max":771,"o":"m 118 0 l 118 114 l 389 114 l 389 650 l 146 650 l 146 764 l 514 764 l 514 114 l 771 114 l 771 0 l 118 0 m 357 896 l 504 1090 l 639 1090 l 485 896 l 357 896 z "},"ĭ":{"ha":833,"x_min":118,"x_max":771,"o":"m 118 0 l 118 114 l 389 114 l 389 650 l 146 650 l 146 764 l 514 764 l 514 114 l 771 114 l 771 0 l 118 0 m 438 889 q 276 944 338 889 q 215 1090 215 1000 l 314 1090 q 347 1003 314 1036 q 436 969 381 969 q 527 1003 493 969 q 561 1090 561 1036 l 660 1090 q 599 944 660 1000 q 438 889 538 889 z "},"ǐ":{"ha":833,"x_min":118,"x_max":771,"o":"m 118 0 l 118 114 l 389 114 l 389 650 l 146 650 l 146 764 l 514 764 l 514 114 l 771 114 l 771 0 l 118 0 m 381 896 l 186 1090 l 324 1090 l 438 982 l 549 1090 l 689 1090 l 496 896 l 381 896 z "},"î":{"ha":833,"x_min":118,"x_max":771,"o":"m 118 0 l 118 114 l 389 114 l 389 650 l 146 650 l 146 764 l 514 764 l 514 114 l 771 114 l 771 0 l 118 0 m 186 896 l 379 1090 l 494 1090 l 689 896 l 551 896 l 438 1004 l 326 896 l 186 896 z "},"ï":{"ha":833,"x_min":118,"x_max":771,"o":"m 118 0 l 118 114 l 389 114 l 389 650 l 146 650 l 146 764 l 514 764 l 514 114 l 771 114 l 771 0 l 118 0 m 592 901 q 527 925 551 901 q 503 989 503 949 q 527 1055 503 1031 q 592 1079 551 1079 q 656 1055 632 1079 q 681 989 681 1031 q 656 925 681 949 q 592 901 632 901 m 283 901 q 219 925 243 901 q 194 989 194 949 q 219 1055 194 1031 q 283 1079 243 1079 q 348 1055 324 1079 q 372 989 372 1031 q 348 925 372 949 q 283 901 324 901 z "},"ị":{"ha":833,"x_min":118,"x_max":771,"o":"m 118 0 l 118 114 l 389 114 l 389 650 l 146 650 l 146 764 l 514 764 l 514 114 l 771 114 l 771 0 l 118 0 m 438 901 q 365 925 392 901 q 339 989 339 949 q 365 1055 339 1031 q 438 1079 392 1079 q 510 1055 483 1079 q 536 989 536 1031 q 510 925 536 949 q 438 901 483 901 m 438 -296 q 365 -272 392 -296 q 339 -208 339 -249 q 365 -142 339 -167 q 438 -118 392 -118 q 510 -142 483 -118 q 536 -208 536 -167 q 510 -272 536 -249 q 438 -296 483 -296 z "},"ì":{"ha":833,"x_min":118,"x_max":771,"o":"m 118 0 l 118 114 l 389 114 l 389 650 l 146 650 l 146 764 l 514 764 l 514 114 l 771 114 l 771 0 l 118 0 m 392 896 l 232 1090 l 371 1090 l 524 896 l 392 896 z "},"ỉ":{"ha":833,"x_min":118,"x_max":771,"o":"m 118 0 l 118 114 l 389 114 l 389 650 l 146 650 l 146 764 l 514 764 l 514 114 l 771 114 l 771 0 l 118 0 m 379 896 l 449 983 q 468 1028 468 1010 q 424 1056 468 1056 l 313 1056 l 313 1146 l 458 1146 q 544 1119 511 1146 q 576 1043 576 1092 q 553 968 576 999 l 497 896 l 379 896 z "},"ī":{"ha":833,"x_min":118,"x_max":771,"o":"m 118 0 l 118 114 l 389 114 l 389 650 l 146 650 l 146 764 l 514 764 l 514 114 l 771 114 l 771 0 l 118 0 m 215 931 l 215 1035 l 660 1035 l 660 931 l 215 931 z "},"į":{"ha":833,"x_min":118,"x_max":771,"o":"m 447 -282 q 324 -245 371 -282 q 278 -153 278 -208 q 304 -72 278 -112 q 396 14 331 -32 l 500 14 l 485 1 q 417 -69 438 -37 q 396 -129 396 -100 q 417 -179 396 -160 q 472 -199 438 -199 l 556 -199 l 556 -282 l 447 -282 m 118 0 l 118 114 l 389 114 l 389 650 l 146 650 l 146 764 l 514 764 l 514 114 l 771 114 l 771 0 l 118 0 m 438 901 q 365 925 392 901 q 339 989 339 949 q 365 1055 339 1031 q 438 1079 392 1079 q 510 1055 483 1079 q 536 989 536 1031 q 510 925 536 949 q 438 901 483 901 z "},"ĩ":{"ha":833,"x_min":118,"x_max":771,"o":"m 118 0 l 118 114 l 389 114 l 389 650 l 146 650 l 146 764 l 514 764 l 514 114 l 771 114 l 771 0 l 118 0 m 535 903 q 467 917 493 903 q 422 951 440 932 q 388 985 404 971 q 347 1000 371 1000 q 317 988 329 1000 q 306 951 306 976 l 306 910 l 215 910 l 215 951 q 250 1049 215 1014 q 340 1083 285 1083 q 408 1069 382 1083 q 453 1035 435 1054 q 488 1001 471 1015 q 528 986 504 986 q 558 998 547 986 q 569 1035 569 1010 l 569 1076 l 660 1076 l 660 1035 q 626 938 660 972 q 535 903 592 903 z "},"j":{"ha":833,"x_min":118,"x_max":626,"o":"m 125 -250 l 125 -136 l 297 -136 q 431 -89 383 -136 q 479 43 479 -42 l 479 650 l 118 650 l 118 764 l 604 764 l 604 43 q 521 -171 604 -92 q 297 -250 438 -250 l 125 -250 m 528 901 q 456 925 482 901 q 429 989 429 949 q 456 1055 429 1031 q 528 1079 482 1079 q 600 1055 574 1079 q 626 989 626 1031 q 600 925 626 949 q 528 901 574 901 z "},"ȷ":{"ha":833,"x_min":118,"x_max":604,"o":"m 125 -250 l 125 -136 l 297 -136 q 431 -89 383 -136 q 479 43 479 -42 l 479 650 l 118 650 l 118 764 l 604 764 l 604 43 q 521 -171 604 -92 q 297 -250 438 -250 l 125 -250 z "},"ĵ":{"ha":833,"x_min":118,"x_max":779,"o":"m 125 -250 l 125 -136 l 297 -136 q 431 -89 383 -136 q 479 43 479 -42 l 479 650 l 118 650 l 118 764 l 604 764 l 604 43 q 521 -171 604 -92 q 297 -250 438 -250 l 125 -250 m 276 896 l 469 1090 l 585 1090 l 779 896 l 642 896 l 528 1004 l 417 896 l 276 896 z "},"k":{"ha":833,"x_min":135,"x_max":776,"o":"m 135 0 l 135 1014 l 260 1014 l 260 449 l 406 449 l 619 764 l 763 764 l 517 400 l 776 0 l 631 0 l 408 340 l 260 340 l 260 0 l 135 0 z "},"ķ":{"ha":833,"x_min":135,"x_max":776,"o":"m 135 0 l 135 1014 l 260 1014 l 260 449 l 406 449 l 619 764 l 763 764 l 517 400 l 776 0 l 631 0 l 408 340 l 260 340 l 260 0 l 135 0 m 264 -333 l 396 -132 l 542 -132 l 396 -333 l 264 -333 z "},"ĸ":{"ha":833,"x_min":143,"x_max":785,"o":"m 143 0 l 143 764 l 268 764 l 268 449 l 417 449 l 628 764 l 771 764 l 524 397 l 785 0 l 639 0 l 418 335 l 268 335 l 268 0 l 143 0 z "},"l":{"ha":833,"x_min":42,"x_max":764,"o":"m 528 0 q 411 26 461 0 q 333 101 361 53 q 306 215 306 150 l 306 900 l 42 900 l 42 1014 l 431 1014 l 431 215 q 457 141 431 168 q 528 114 483 114 l 764 114 l 764 0 l 528 0 z "},"ĺ":{"ha":833,"x_min":42,"x_max":764,"o":"m 528 0 q 411 26 461 0 q 333 101 361 53 q 306 215 306 150 l 306 900 l 42 900 l 42 1014 l 431 1014 l 431 215 q 457 141 431 168 q 528 114 483 114 l 764 114 l 764 0 l 528 0 m 253 1125 l 400 1319 l 535 1319 l 381 1125 l 253 1125 z "},"ƛ":{"ha":833,"x_min":69,"x_max":764,"o":"m 125 653 l 125 764 l 653 1028 l 653 917 l 125 653 m 69 0 l 353 751 l 250 1014 l 383 1014 l 764 0 l 631 0 l 449 496 q 422 582 431 544 q 407 640 414 619 q 401 582 407 619 q 379 496 396 544 l 204 0 l 69 0 z "},"ľ":{"ha":833,"x_min":42,"x_max":764,"o":"m 528 0 q 411 26 461 0 q 333 101 361 53 q 306 215 306 150 l 306 900 l 42 900 l 42 1014 l 431 1014 l 431 215 q 457 141 431 168 q 528 114 483 114 l 764 114 l 764 0 l 528 0 m 569 764 l 590 1014 l 707 1014 l 674 764 l 569 764 z "},"ļ":{"ha":833,"x_min":42,"x_max":764,"o":"m 528 0 q 411 26 461 0 q 333 101 361 53 q 306 215 306 150 l 306 900 l 42 900 l 42 1014 l 431 1014 l 431 215 q 457 141 431 168 q 528 114 483 114 l 764 114 l 764 0 l 528 0 m 292 -333 l 424 -132 l 569 -132 l 424 -333 l 292 -333 z "},"ŀ":{"ha":833,"x_min":14,"x_max":874,"o":"m 500 0 q 383 26 433 0 q 306 101 333 53 q 278 215 278 150 l 278 900 l 14 900 l 14 1014 l 403 1014 l 403 215 q 429 141 403 168 q 500 114 456 114 l 736 114 l 736 0 l 500 0 m 760 368 q 677 399 708 368 q 646 478 646 429 q 677 561 646 529 q 760 593 708 593 q 842 561 811 593 q 874 478 874 529 q 842 399 874 429 q 760 368 811 368 z "},"ł":{"ha":833,"x_min":42,"x_max":764,"o":"m 139 319 l 139 431 l 653 778 l 653 667 l 139 319 m 528 0 q 411 26 461 0 q 333 101 361 53 q 306 215 306 150 l 306 900 l 42 900 l 42 1014 l 431 1014 l 431 215 q 457 141 431 168 q 528 114 483 114 l 764 114 l 764 0 l 528 0 z "},"m":{"ha":833,"x_min":83,"x_max":750,"o":"m 83 0 l 83 764 l 192 764 l 192 663 l 219 663 l 193 639 q 228 739 193 700 q 322 778 264 778 q 428 728 389 778 q 467 597 467 678 l 429 669 l 488 669 l 456 639 q 493 740 457 703 q 589 778 529 778 q 706 723 663 778 q 750 581 750 668 l 750 0 l 633 0 l 633 582 q 611 655 633 628 q 550 682 589 682 q 490 656 513 682 q 468 583 468 629 l 468 0 l 365 0 l 365 582 q 343 655 365 628 q 283 682 321 682 q 222 656 244 682 q 200 583 200 629 l 200 0 l 83 0 z "},"n":{"ha":833,"x_min":128,"x_max":708,"o":"m 128 0 l 128 764 l 253 764 l 253 618 l 279 618 l 253 589 q 307 728 253 679 q 457 778 361 778 q 640 707 572 778 q 708 514 708 636 l 708 0 l 583 0 l 583 492 q 540 626 583 579 q 421 672 496 672 q 298 624 343 672 q 253 486 253 575 l 253 0 l 128 0 z "},"ń":{"ha":833,"x_min":128,"x_max":708,"o":"m 128 0 l 128 764 l 253 764 l 253 618 l 279 618 l 253 589 q 307 728 253 679 q 457 778 361 778 q 640 707 572 778 q 708 514 708 636 l 708 0 l 583 0 l 583 492 q 540 626 583 579 q 421 672 496 672 q 298 624 343 672 q 253 486 253 575 l 253 0 l 128 0 m 343 896 l 490 1090 l 625 1090 l 471 896 l 343 896 z "},"ŉ":{"ha":833,"x_min":-14,"x_max":708,"o":"m 128 0 l 128 764 l 253 764 l 253 618 l 279 618 l 253 589 q 307 728 253 679 q 457 778 361 778 q 640 707 572 778 q 708 514 708 636 l 708 0 l 583 0 l 583 492 q 540 626 583 579 q 421 672 496 672 q 298 624 343 672 q 253 486 253 575 l 253 0 l 128 0 m -14 896 l 118 1097 l 264 1097 l 118 896 l -14 896 z "},"ň":{"ha":833,"x_min":128,"x_max":708,"o":"m 128 0 l 128 764 l 253 764 l 253 618 l 279 618 l 253 589 q 307 728 253 679 q 457 778 361 778 q 640 707 572 778 q 708 514 708 636 l 708 0 l 583 0 l 583 492 q 540 626 583 579 q 421 672 496 672 q 298 624 343 672 q 253 486 253 575 l 253 0 l 128 0 m 367 896 l 172 1090 l 310 1090 l 424 982 l 535 1090 l 675 1090 l 482 896 l 367 896 z "},"ņ":{"ha":833,"x_min":128,"x_max":708,"o":"m 128 0 l 128 764 l 253 764 l 253 618 l 279 618 l 253 589 q 307 728 253 679 q 457 778 361 778 q 640 707 572 778 q 708 514 708 636 l 708 0 l 583 0 l 583 492 q 540 626 583 579 q 421 672 496 672 q 298 624 343 672 q 253 486 253 575 l 253 0 l 128 0 m 264 -333 l 396 -132 l 542 -132 l 396 -333 l 264 -333 z "},"ŋ":{"ha":833,"x_min":131,"x_max":706,"o":"m 333 -250 l 333 -136 l 421 -136 q 538 -94 494 -136 q 581 21 581 -51 l 581 500 q 538 627 581 582 q 421 672 496 672 q 299 624 343 672 q 256 486 256 575 l 256 0 l 131 0 l 131 764 l 256 764 l 256 618 l 282 618 l 256 589 q 308 728 256 679 q 457 778 361 778 q 639 707 572 778 q 706 514 706 636 l 706 21 q 670 -122 706 -61 q 571 -217 635 -183 q 421 -250 507 -250 l 333 -250 z "},"ñ":{"ha":833,"x_min":128,"x_max":708,"o":"m 128 0 l 128 764 l 253 764 l 253 618 l 279 618 l 253 589 q 307 728 253 679 q 457 778 361 778 q 640 707 572 778 q 708 514 708 636 l 708 0 l 583 0 l 583 492 q 540 626 583 579 q 421 672 496 672 q 298 624 343 672 q 253 486 253 575 l 253 0 l 128 0 m 521 903 q 453 917 479 903 q 408 951 426 932 q 374 985 390 971 q 333 1000 357 1000 q 303 988 315 1000 q 292 951 292 976 l 292 910 l 201 910 l 201 951 q 236 1049 201 1014 q 326 1083 271 1083 q 394 1069 368 1083 q 439 1035 421 1054 q 474 1001 457 1015 q 514 986 490 986 q 544 998 533 986 q 556 1035 556 1010 l 556 1076 l 646 1076 l 646 1035 q 612 938 646 972 q 521 903 578 903 z "},"o":{"ha":833,"x_min":117,"x_max":717,"o":"m 417 -11 q 258 25 325 -11 q 153 130 190 61 q 117 294 117 199 l 117 469 q 153 635 117 567 q 258 739 190 703 q 417 775 325 775 q 576 739 510 775 q 680 635 643 703 q 717 469 717 567 l 717 294 q 680 130 717 199 q 576 25 643 61 q 417 -11 508 -11 m 417 100 q 545 146 499 100 q 592 281 592 192 l 592 483 q 545 618 592 572 q 417 664 499 664 q 289 618 336 664 q 242 483 242 572 l 242 281 q 289 146 242 192 q 417 100 336 100 z "},"ó":{"ha":833,"x_min":117,"x_max":717,"o":"m 417 -11 q 258 25 325 -11 q 153 130 190 61 q 117 294 117 199 l 117 469 q 153 635 117 567 q 258 739 190 703 q 417 775 325 775 q 576 739 510 775 q 680 635 643 703 q 717 469 717 567 l 717 294 q 680 130 717 199 q 576 25 643 61 q 417 -11 508 -11 m 417 100 q 545 146 499 100 q 592 281 592 192 l 592 483 q 545 618 592 572 q 417 664 499 664 q 289 618 336 664 q 242 483 242 572 l 242 281 q 289 146 242 192 q 417 100 336 100 m 336 896 l 483 1090 l 618 1090 l 464 896 l 336 896 z "},"ŏ":{"ha":833,"x_min":117,"x_max":717,"o":"m 417 -11 q 258 25 325 -11 q 153 130 190 61 q 117 294 117 199 l 117 469 q 153 635 117 567 q 258 739 190 703 q 417 775 325 775 q 576 739 510 775 q 680 635 643 703 q 717 469 717 567 l 717 294 q 680 130 717 199 q 576 25 643 61 q 417 -11 508 -11 m 417 100 q 545 146 499 100 q 592 281 592 192 l 592 483 q 545 618 592 572 q 417 664 499 664 q 289 618 336 664 q 242 483 242 572 l 242 281 q 289 146 242 192 q 417 100 336 100 m 417 889 q 256 944 317 889 q 194 1090 194 1000 l 293 1090 q 326 1003 293 1036 q 415 969 360 969 q 506 1003 472 969 q 540 1090 540 1036 l 639 1090 q 578 944 639 1000 q 417 889 517 889 z "},"ǒ":{"ha":833,"x_min":117,"x_max":717,"o":"m 417 -11 q 258 25 325 -11 q 153 130 190 61 q 117 294 117 199 l 117 469 q 153 635 117 567 q 258 739 190 703 q 417 775 325 775 q 576 739 510 775 q 680 635 643 703 q 717 469 717 567 l 717 294 q 680 130 717 199 q 576 25 643 61 q 417 -11 508 -11 m 417 100 q 545 146 499 100 q 592 281 592 192 l 592 483 q 545 618 592 572 q 417 664 499 664 q 289 618 336 664 q 242 483 242 572 l 242 281 q 289 146 242 192 q 417 100 336 100 m 360 896 l 165 1090 l 303 1090 l 417 982 l 528 1090 l 668 1090 l 475 896 l 360 896 z "},"ô":{"ha":833,"x_min":117,"x_max":717,"o":"m 417 -11 q 258 25 325 -11 q 153 130 190 61 q 117 294 117 199 l 117 469 q 153 635 117 567 q 258 739 190 703 q 417 775 325 775 q 576 739 510 775 q 680 635 643 703 q 717 469 717 567 l 717 294 q 680 130 717 199 q 576 25 643 61 q 417 -11 508 -11 m 417 100 q 545 146 499 100 q 592 281 592 192 l 592 483 q 545 618 592 572 q 417 664 499 664 q 289 618 336 664 q 242 483 242 572 l 242 281 q 289 146 242 192 q 417 100 336 100 m 165 896 l 358 1090 l 474 1090 l 668 896 l 531 896 l 417 1004 l 306 896 l 165 896 z "},"ố":{"ha":833,"x_min":117,"x_max":868,"o":"m 417 -11 q 258 25 325 -11 q 153 130 190 61 q 117 294 117 199 l 117 469 q 153 635 117 567 q 258 739 190 703 q 417 775 325 775 q 576 739 510 775 q 680 635 643 703 q 717 469 717 567 l 717 294 q 680 130 717 199 q 576 25 643 61 q 417 -11 508 -11 m 417 100 q 545 146 499 100 q 592 281 592 192 l 592 483 q 545 618 592 572 q 417 664 499 664 q 289 618 336 664 q 242 483 242 572 l 242 281 q 289 146 242 192 q 417 100 336 100 m 569 1056 l 729 1250 l 868 1250 l 701 1056 l 569 1056 m 167 896 l 358 1090 l 475 1090 l 668 896 l 528 896 l 417 1004 l 304 896 l 167 896 z "},"ộ":{"ha":833,"x_min":117,"x_max":717,"o":"m 417 -11 q 258 25 325 -11 q 153 130 190 61 q 117 294 117 199 l 117 469 q 153 635 117 567 q 258 739 190 703 q 417 775 325 775 q 576 739 510 775 q 680 635 643 703 q 717 469 717 567 l 717 294 q 680 130 717 199 q 576 25 643 61 q 417 -11 508 -11 m 417 100 q 545 146 499 100 q 592 281 592 192 l 592 483 q 545 618 592 572 q 417 664 499 664 q 289 618 336 664 q 242 483 242 572 l 242 281 q 289 146 242 192 q 417 100 336 100 m 417 -296 q 344 -272 371 -296 q 318 -208 318 -249 q 344 -142 318 -167 q 417 -118 371 -118 q 489 -142 463 -118 q 515 -208 515 -167 q 489 -272 515 -249 q 417 -296 463 -296 m 165 896 l 358 1090 l 474 1090 l 668 896 l 531 896 l 417 1004 l 306 896 l 165 896 z "},"ồ":{"ha":833,"x_min":117,"x_max":757,"o":"m 417 -11 q 258 25 325 -11 q 153 130 190 61 q 117 294 117 199 l 117 469 q 153 635 117 567 q 258 739 190 703 q 417 775 325 775 q 576 739 510 775 q 680 635 643 703 q 717 469 717 567 l 717 294 q 680 130 717 199 q 576 25 643 61 q 417 -11 508 -11 m 417 100 q 545 146 499 100 q 592 281 592 192 l 592 483 q 545 618 592 572 q 417 664 499 664 q 289 618 336 664 q 242 483 242 572 l 242 281 q 289 146 242 192 q 417 100 336 100 m 625 1056 l 444 1250 l 583 1250 l 757 1056 l 625 1056 m 167 896 l 358 1090 l 475 1090 l 668 896 l 528 896 l 417 1004 l 304 896 l 167 896 z "},"ổ":{"ha":833,"x_min":117,"x_max":764,"o":"m 417 -11 q 258 25 325 -11 q 153 130 190 61 q 117 294 117 199 l 117 469 q 153 635 117 567 q 258 739 190 703 q 417 775 325 775 q 576 739 510 775 q 680 635 643 703 q 717 469 717 567 l 717 294 q 680 130 717 199 q 576 25 643 61 q 417 -11 508 -11 m 417 100 q 545 146 499 100 q 592 281 592 192 l 592 483 q 545 618 592 572 q 417 664 499 664 q 289 618 336 664 q 242 483 242 572 l 242 281 q 289 146 242 192 q 417 100 336 100 m 588 1056 l 650 1140 q 663 1174 663 1160 q 651 1199 663 1190 q 618 1208 639 1208 l 549 1208 l 549 1292 l 625 1292 q 726 1264 689 1292 q 764 1188 764 1236 q 758 1158 764 1172 q 740 1125 753 1143 l 692 1056 l 588 1056 m 167 896 l 358 1090 l 475 1090 l 668 896 l 528 896 l 417 1004 l 304 896 l 167 896 z "},"ỗ":{"ha":833,"x_min":117,"x_max":717,"o":"m 417 -11 q 258 25 325 -11 q 153 130 190 61 q 117 294 117 199 l 117 469 q 153 635 117 567 q 258 739 190 703 q 417 775 325 775 q 576 739 510 775 q 680 635 643 703 q 717 469 717 567 l 717 294 q 680 130 717 199 q 576 25 643 61 q 417 -11 508 -11 m 417 100 q 545 146 499 100 q 592 281 592 192 l 592 483 q 545 618 592 572 q 417 664 499 664 q 289 618 336 664 q 242 483 242 572 l 242 281 q 289 146 242 192 q 417 100 336 100 m 508 1128 q 440 1141 465 1128 q 397 1172 414 1154 q 365 1202 381 1189 q 326 1215 350 1215 q 296 1205 307 1215 q 285 1174 285 1194 l 285 1139 l 194 1139 l 194 1167 q 231 1256 194 1222 q 325 1289 267 1289 q 395 1276 369 1289 q 437 1245 421 1263 q 468 1215 453 1228 q 507 1201 483 1201 q 549 1243 549 1201 l 549 1278 l 639 1278 l 639 1250 q 603 1161 639 1194 q 508 1128 567 1128 m 167 896 l 358 1090 l 475 1090 l 668 896 l 528 896 l 417 1004 l 304 896 l 167 896 z "},"ö":{"ha":833,"x_min":117,"x_max":717,"o":"m 417 -11 q 258 25 325 -11 q 153 130 190 61 q 117 294 117 199 l 117 469 q 153 635 117 567 q 258 739 190 703 q 417 775 325 775 q 576 739 510 775 q 680 635 643 703 q 717 469 717 567 l 717 294 q 680 130 717 199 q 576 25 643 61 q 417 -11 508 -11 m 417 100 q 545 146 499 100 q 592 281 592 192 l 592 483 q 545 618 592 572 q 417 664 499 664 q 289 618 336 664 q 242 483 242 572 l 242 281 q 289 146 242 192 q 417 100 336 100 m 571 901 q 506 925 531 901 q 482 989 482 949 q 506 1055 482 1031 q 571 1079 531 1079 q 635 1055 611 1079 q 660 989 660 1031 q 635 925 660 949 q 571 901 611 901 m 263 901 q 198 925 222 901 q 174 989 174 949 q 198 1055 174 1031 q 263 1079 222 1079 q 327 1055 303 1079 q 351 989 351 1031 q 327 925 351 949 q 263 901 303 901 z "},"ọ":{"ha":833,"x_min":117,"x_max":717,"o":"m 417 -11 q 258 25 325 -11 q 153 130 190 61 q 117 294 117 199 l 117 469 q 153 635 117 567 q 258 739 190 703 q 417 775 325 775 q 576 739 510 775 q 680 635 643 703 q 717 469 717 567 l 717 294 q 680 130 717 199 q 576 25 643 61 q 417 -11 508 -11 m 417 100 q 545 146 499 100 q 592 281 592 192 l 592 483 q 545 618 592 572 q 417 664 499 664 q 289 618 336 664 q 242 483 242 572 l 242 281 q 289 146 242 192 q 417 100 336 100 m 417 -296 q 344 -272 371 -296 q 318 -208 318 -249 q 344 -142 318 -167 q 417 -118 371 -118 q 489 -142 463 -118 q 515 -208 515 -167 q 489 -272 515 -249 q 417 -296 463 -296 z "},"ò":{"ha":833,"x_min":117,"x_max":717,"o":"m 417 -11 q 258 25 325 -11 q 153 130 190 61 q 117 294 117 199 l 117 469 q 153 635 117 567 q 258 739 190 703 q 417 775 325 775 q 576 739 510 775 q 680 635 643 703 q 717 469 717 567 l 717 294 q 680 130 717 199 q 576 25 643 61 q 417 -11 508 -11 m 417 100 q 545 146 499 100 q 592 281 592 192 l 592 483 q 545 618 592 572 q 417 664 499 664 q 289 618 336 664 q 242 483 242 572 l 242 281 q 289 146 242 192 q 417 100 336 100 m 371 896 l 211 1090 l 350 1090 l 503 896 l 371 896 z "},"ỏ":{"ha":833,"x_min":117,"x_max":717,"o":"m 417 -11 q 258 25 325 -11 q 153 130 190 61 q 117 294 117 199 l 117 469 q 153 635 117 567 q 258 739 190 703 q 417 775 325 775 q 576 739 510 775 q 680 635 643 703 q 717 469 717 567 l 717 294 q 680 130 717 199 q 576 25 643 61 q 417 -11 508 -11 m 417 100 q 545 146 499 100 q 592 281 592 192 l 592 483 q 545 618 592 572 q 417 664 499 664 q 289 618 336 664 q 242 483 242 572 l 242 281 q 289 146 242 192 q 417 100 336 100 m 358 896 l 428 983 q 447 1028 447 1010 q 403 1056 447 1056 l 292 1056 l 292 1146 l 438 1146 q 523 1119 490 1146 q 556 1043 556 1092 q 532 968 556 999 l 476 896 l 358 896 z "},"ơ":{"ha":833,"x_min":117,"x_max":750,"o":"m 550 646 l 550 736 l 597 736 q 633 749 621 736 q 646 785 646 761 l 646 889 l 750 889 l 750 778 q 710 682 750 718 q 604 646 669 646 l 550 646 m 417 -11 q 258 25 325 -11 q 153 130 190 61 q 117 294 117 199 l 117 469 q 153 635 117 567 q 258 739 190 703 q 417 775 325 775 q 576 739 510 775 q 680 635 643 703 q 717 469 717 567 l 717 294 q 680 130 717 199 q 576 25 643 61 q 417 -11 508 -11 m 417 100 q 545 146 499 100 q 592 281 592 192 l 592 483 q 545 618 592 572 q 417 664 499 664 q 289 618 336 664 q 242 483 242 572 l 242 281 q 289 146 242 192 q 417 100 336 100 z "},"ớ":{"ha":833,"x_min":117,"x_max":750,"o":"m 550 646 l 550 736 l 597 736 q 633 749 621 736 q 646 785 646 761 l 646 889 l 750 889 l 750 778 q 710 682 750 718 q 604 646 669 646 l 550 646 m 417 -11 q 258 25 325 -11 q 153 130 190 61 q 117 294 117 199 l 117 469 q 153 635 117 567 q 258 739 190 703 q 417 775 325 775 q 576 739 510 775 q 680 635 643 703 q 717 469 717 567 l 717 294 q 680 130 717 199 q 576 25 643 61 q 417 -11 508 -11 m 417 100 q 545 146 499 100 q 592 281 592 192 l 592 483 q 545 618 592 572 q 417 664 499 664 q 289 618 336 664 q 242 483 242 572 l 242 281 q 289 146 242 192 q 417 100 336 100 m 322 896 l 469 1090 l 604 1090 l 450 896 l 322 896 z "},"ợ":{"ha":833,"x_min":117,"x_max":750,"o":"m 550 646 l 550 736 l 597 736 q 633 749 621 736 q 646 785 646 761 l 646 889 l 750 889 l 750 778 q 710 682 750 718 q 604 646 669 646 l 550 646 m 417 -11 q 258 25 325 -11 q 153 130 190 61 q 117 294 117 199 l 117 469 q 153 635 117 567 q 258 739 190 703 q 417 775 325 775 q 576 739 510 775 q 680 635 643 703 q 717 469 717 567 l 717 294 q 680 130 717 199 q 576 25 643 61 q 417 -11 508 -11 m 417 100 q 545 146 499 100 q 592 281 592 192 l 592 483 q 545 618 592 572 q 417 664 499 664 q 289 618 336 664 q 242 483 242 572 l 242 281 q 289 146 242 192 q 417 100 336 100 m 417 -296 q 344 -272 371 -296 q 318 -208 318 -249 q 344 -142 318 -167 q 417 -118 371 -118 q 489 -142 463 -118 q 515 -208 515 -167 q 489 -272 515 -249 q 417 -296 463 -296 z "},"ờ":{"ha":833,"x_min":117,"x_max":750,"o":"m 550 646 l 550 736 l 597 736 q 633 749 621 736 q 646 785 646 761 l 646 889 l 750 889 l 750 778 q 710 682 750 718 q 604 646 669 646 l 550 646 m 417 -11 q 258 25 325 -11 q 153 130 190 61 q 117 294 117 199 l 117 469 q 153 635 117 567 q 258 739 190 703 q 417 775 325 775 q 576 739 510 775 q 680 635 643 703 q 717 469 717 567 l 717 294 q 680 130 717 199 q 576 25 643 61 q 417 -11 508 -11 m 417 100 q 545 146 499 100 q 592 281 592 192 l 592 483 q 545 618 592 572 q 417 664 499 664 q 289 618 336 664 q 242 483 242 572 l 242 281 q 289 146 242 192 q 417 100 336 100 m 357 896 l 197 1090 l 336 1090 l 489 896 l 357 896 z "},"ở":{"ha":833,"x_min":117,"x_max":750,"o":"m 550 646 l 550 736 l 597 736 q 633 749 621 736 q 646 785 646 761 l 646 889 l 750 889 l 750 778 q 710 682 750 718 q 604 646 669 646 l 550 646 m 417 -11 q 258 25 325 -11 q 153 130 190 61 q 117 294 117 199 l 117 469 q 153 635 117 567 q 258 739 190 703 q 417 775 325 775 q 576 739 510 775 q 680 635 643 703 q 717 469 717 567 l 717 294 q 680 130 717 199 q 576 25 643 61 q 417 -11 508 -11 m 417 100 q 545 146 499 100 q 592 281 592 192 l 592 483 q 545 618 592 572 q 417 664 499 664 q 289 618 336 664 q 242 483 242 572 l 242 281 q 289 146 242 192 q 417 100 336 100 m 344 896 l 414 983 q 433 1028 433 1010 q 389 1056 433 1056 l 278 1056 l 278 1146 l 424 1146 q 509 1119 476 1146 q 542 1043 542 1092 q 518 968 542 999 l 463 896 l 344 896 z "},"ỡ":{"ha":833,"x_min":117,"x_max":750,"o":"m 550 646 l 550 736 l 597 736 q 633 749 621 736 q 646 785 646 761 l 646 889 l 750 889 l 750 778 q 710 682 750 718 q 604 646 669 646 l 550 646 m 417 -11 q 258 25 325 -11 q 153 130 190 61 q 117 294 117 199 l 117 469 q 153 635 117 567 q 258 739 190 703 q 417 775 325 775 q 576 739 510 775 q 680 635 643 703 q 717 469 717 567 l 717 294 q 680 130 717 199 q 576 25 643 61 q 417 -11 508 -11 m 417 100 q 545 146 499 100 q 592 281 592 192 l 592 483 q 545 618 592 572 q 417 664 499 664 q 289 618 336 664 q 242 483 242 572 l 242 281 q 289 146 242 192 q 417 100 336 100 m 500 903 q 432 917 458 903 q 388 951 406 932 q 353 985 369 971 q 313 1000 336 1000 q 283 988 294 1000 q 271 951 271 976 l 271 910 l 181 910 l 181 951 q 215 1049 181 1014 q 306 1083 250 1083 q 374 1069 347 1083 q 418 1035 400 1054 q 453 1001 436 1015 q 493 986 469 986 q 524 998 513 986 q 535 1035 535 1010 l 535 1076 l 625 1076 l 625 1035 q 591 938 625 972 q 500 903 557 903 z "},"ő":{"ha":833,"x_min":117,"x_max":733,"o":"m 417 -11 q 258 25 325 -11 q 153 130 190 61 q 117 294 117 199 l 117 469 q 153 635 117 567 q 258 739 190 703 q 417 775 325 775 q 576 739 510 775 q 680 635 643 703 q 717 469 717 567 l 717 294 q 680 130 717 199 q 576 25 643 61 q 417 -11 508 -11 m 417 100 q 545 146 499 100 q 592 281 592 192 l 592 483 q 545 618 592 572 q 417 664 499 664 q 289 618 336 664 q 242 483 242 572 l 242 281 q 289 146 242 192 q 417 100 336 100 m 453 896 l 606 1090 l 733 1090 l 574 896 l 453 896 m 204 896 l 357 1090 l 485 1090 l 325 896 l 204 896 z "},"ō":{"ha":833,"x_min":117,"x_max":717,"o":"m 417 -11 q 258 25 325 -11 q 153 130 190 61 q 117 294 117 199 l 117 469 q 153 635 117 567 q 258 739 190 703 q 417 775 325 775 q 576 739 510 775 q 680 635 643 703 q 717 469 717 567 l 717 294 q 680 130 717 199 q 576 25 643 61 q 417 -11 508 -11 m 417 100 q 545 146 499 100 q 592 281 592 192 l 592 483 q 545 618 592 572 q 417 664 499 664 q 289 618 336 664 q 242 483 242 572 l 242 281 q 289 146 242 192 q 417 100 336 100 m 194 931 l 194 1035 l 639 1035 l 639 931 l 194 931 z "},"ǫ":{"ha":833,"x_min":122,"x_max":711,"o":"m 517 -282 q 394 -245 440 -282 q 347 -153 347 -208 q 365 -90 347 -122 q 429 -14 382 -57 q 426 -14 428 -14 q 422 -14 424 -14 q 417 -14 419 -14 q 259 21 325 -14 q 158 122 193 56 q 122 278 122 188 l 122 486 q 158 643 122 578 q 259 743 193 708 q 417 778 325 778 q 574 743 508 778 q 676 643 640 708 q 711 488 711 578 l 711 278 q 679 128 711 192 q 588 29 647 65 l 554 1 q 486 -69 507 -37 q 465 -129 465 -100 q 486 -179 465 -160 q 542 -199 507 -199 l 625 -199 l 625 -282 l 517 -282 m 417 97 q 542 143 499 97 q 586 278 586 189 l 586 486 q 542 621 586 575 q 417 667 499 667 q 292 621 336 667 q 247 486 247 575 l 247 278 q 292 143 247 189 q 417 97 336 97 z "},"ø":{"ha":833,"x_min":49,"x_max":785,"o":"m 49 -42 l 658 819 l 785 819 l 174 -42 l 49 -42 m 417 -14 q 259 21 325 -14 q 158 122 193 56 q 122 278 122 188 l 122 486 q 158 643 122 578 q 259 743 193 708 q 417 778 325 778 q 574 743 508 778 q 676 643 640 708 q 711 488 711 578 l 711 278 q 676 122 711 188 q 574 21 640 56 q 417 -14 508 -14 m 417 97 q 547 145 500 97 q 593 278 593 193 l 593 486 q 547 619 593 572 q 417 667 500 667 q 287 619 333 667 q 240 486 240 572 l 240 278 q 287 145 240 193 q 417 97 333 97 z "},"ǿ":{"ha":833,"x_min":49,"x_max":785,"o":"m 49 -42 l 658 819 l 785 819 l 174 -42 l 49 -42 m 417 -14 q 259 21 325 -14 q 158 122 193 56 q 122 278 122 188 l 122 486 q 158 643 122 578 q 259 743 193 708 q 417 778 325 778 q 574 743 508 778 q 676 643 640 708 q 711 488 711 578 l 711 278 q 676 122 711 188 q 574 21 640 56 q 417 -14 508 -14 m 417 97 q 547 145 500 97 q 593 278 593 193 l 593 486 q 547 619 593 572 q 417 667 500 667 q 287 619 333 667 q 240 486 240 572 l 240 278 q 287 145 240 193 q 417 97 333 97 m 336 896 l 483 1090 l 618 1090 l 464 896 l 336 896 z "},"õ":{"ha":833,"x_min":117,"x_max":717,"o":"m 417 -11 q 258 25 325 -11 q 153 130 190 61 q 117 294 117 199 l 117 469 q 153 635 117 567 q 258 739 190 703 q 417 775 325 775 q 576 739 510 775 q 680 635 643 703 q 717 469 717 567 l 717 294 q 680 130 717 199 q 576 25 643 61 q 417 -11 508 -11 m 417 100 q 545 146 499 100 q 592 281 592 192 l 592 483 q 545 618 592 572 q 417 664 499 664 q 289 618 336 664 q 242 483 242 572 l 242 281 q 289 146 242 192 q 417 100 336 100 m 514 903 q 446 917 472 903 q 401 951 419 932 q 367 985 383 971 q 326 1000 350 1000 q 297 988 308 1000 q 285 951 285 976 l 285 910 l 194 910 l 194 951 q 229 1049 194 1014 q 319 1083 264 1083 q 388 1069 361 1083 q 432 1035 414 1054 q 467 1001 450 1015 q 507 986 483 986 q 538 998 526 986 q 549 1035 549 1010 l 549 1076 l 639 1076 l 639 1035 q 605 938 639 972 q 514 903 571 903 z "},"œ":{"ha":833,"x_min":49,"x_max":785,"o":"m 250 -14 q 103 47 157 -14 q 49 208 49 107 l 49 556 q 103 718 49 658 q 250 778 157 778 q 341 760 306 778 q 394 716 376 742 q 414 667 413 690 l 419 667 q 440 716 422 690 q 492 760 457 742 q 583 778 528 778 q 731 718 676 778 q 785 556 785 658 l 785 347 l 476 347 l 476 208 q 501 124 476 156 q 569 93 526 93 q 631 115 606 93 q 663 174 657 138 l 781 174 q 714 37 767 88 q 583 -14 661 -14 q 492 4 528 -14 q 440 48 457 22 q 419 97 422 74 l 414 97 q 394 48 413 74 q 341 4 376 22 q 250 -14 306 -14 m 264 93 q 332 124 307 93 q 357 208 357 156 l 357 556 q 332 640 357 608 q 264 671 307 671 q 193 640 219 671 q 167 556 167 608 l 167 208 q 193 124 167 156 q 264 93 219 93 m 476 449 l 667 449 l 667 556 q 640 640 667 608 q 569 671 614 671 q 501 640 526 671 q 476 556 476 608 l 476 449 z "},"p":{"ha":833,"x_min":128,"x_max":713,"o":"m 128 -250 l 128 764 l 253 764 l 253 618 l 278 618 l 253 589 q 310 727 253 676 q 461 778 367 778 q 594 744 538 778 q 681 646 650 710 q 713 494 713 582 l 713 271 q 682 119 713 183 q 595 21 651 56 q 461 -14 539 -14 q 310 38 368 -14 q 253 175 253 89 l 278 146 l 250 146 l 253 -28 l 253 -250 l 128 -250 m 419 94 q 543 136 499 94 q 588 271 588 178 l 588 493 q 543 628 588 588 q 419 669 499 669 q 298 621 343 669 q 253 486 253 572 l 253 278 q 298 143 253 192 q 419 94 343 94 z "},"þ":{"ha":833,"x_min":121,"x_max":706,"o":"m 121 -236 l 121 82 l 246 82 l 246 -236 l 121 -236 m 454 -14 q 303 37 360 -14 q 246 175 246 88 l 271 146 l 246 146 l 246 0 l 121 0 l 121 1014 l 246 1014 l 246 792 l 243 618 l 271 618 l 243 589 q 302 726 243 675 q 454 778 361 778 q 638 701 569 778 q 706 493 706 625 l 706 269 q 638 63 706 139 q 454 -14 569 -14 m 413 94 q 536 136 492 94 q 581 271 581 178 l 581 493 q 536 628 581 588 q 413 669 492 669 q 291 621 336 669 q 246 486 246 572 l 246 278 q 291 143 246 192 q 413 94 336 94 z "},"q":{"ha":833,"x_min":121,"x_max":706,"o":"m 581 -250 l 581 -28 l 583 146 l 556 146 l 581 175 q 524 38 581 89 q 372 -14 467 -14 q 189 63 257 -14 q 121 271 121 139 l 121 494 q 190 702 121 626 q 372 778 258 778 q 524 727 467 778 q 581 589 581 676 l 556 618 l 581 618 l 581 764 l 706 764 l 706 -250 l 581 -250 m 414 94 q 536 143 492 94 q 581 278 581 192 l 581 486 q 536 621 581 572 q 414 669 492 669 q 290 629 335 669 q 246 500 246 589 l 246 264 q 290 135 246 175 q 414 94 335 94 z "},"r":{"ha":833,"x_min":156,"x_max":736,"o":"m 156 0 l 156 764 l 281 764 l 281 618 l 307 618 l 281 585 q 335 726 281 674 q 488 778 390 778 q 672 706 607 778 q 736 503 736 635 l 736 438 l 611 438 l 611 503 q 569 628 611 588 q 449 669 528 669 q 324 622 367 669 q 281 486 281 575 l 281 0 l 156 0 z "},"ŕ":{"ha":833,"x_min":156,"x_max":736,"o":"m 156 0 l 156 764 l 281 764 l 281 618 l 307 618 l 281 585 q 335 726 281 674 q 488 778 390 778 q 672 706 607 778 q 736 503 736 635 l 736 438 l 611 438 l 611 503 q 569 628 611 588 q 449 669 528 669 q 324 622 367 669 q 281 486 281 575 l 281 0 l 156 0 m 364 896 l 511 1090 l 646 1090 l 492 896 l 364 896 z "},"ř":{"ha":833,"x_min":156,"x_max":736,"o":"m 156 0 l 156 764 l 281 764 l 281 618 l 307 618 l 281 585 q 335 726 281 674 q 488 778 390 778 q 672 706 607 778 q 736 503 736 635 l 736 438 l 611 438 l 611 503 q 569 628 611 588 q 449 669 528 669 q 324 622 367 669 q 281 486 281 575 l 281 0 l 156 0 m 388 896 l 193 1090 l 331 1090 l 444 982 l 556 1090 l 696 1090 l 503 896 l 388 896 z "},"ŗ":{"ha":833,"x_min":49,"x_max":736,"o":"m 156 0 l 156 764 l 281 764 l 281 618 l 307 618 l 281 585 q 335 726 281 674 q 488 778 390 778 q 672 706 607 778 q 736 503 736 635 l 736 438 l 611 438 l 611 503 q 569 628 611 588 q 449 669 528 669 q 324 622 367 669 q 281 486 281 575 l 281 0 l 156 0 m 49 -333 l 181 -132 l 326 -132 l 181 -333 l 49 -333 z "},"s":{"ha":833,"x_min":118,"x_max":715,"o":"m 386 -11 q 241 15 301 -11 q 149 90 181 40 q 118 210 118 139 l 243 210 q 281 127 243 157 q 386 97 318 97 l 447 97 q 555 128 517 97 q 593 214 593 158 q 571 292 593 264 q 503 325 549 319 l 292 356 q 171 420 214 367 q 128 561 128 474 q 197 718 128 661 q 386 775 265 775 l 447 775 q 628 720 558 775 q 704 576 699 665 l 578 576 q 540 643 575 617 q 447 669 504 669 l 386 669 q 286 640 322 669 q 250 561 250 611 q 269 499 250 522 q 324 469 288 475 l 521 442 q 667 371 618 428 q 715 214 715 314 q 645 48 715 107 q 447 -11 575 -11 l 386 -11 z "},"ś":{"ha":833,"x_min":118,"x_max":715,"o":"m 386 -11 q 241 15 301 -11 q 149 90 181 40 q 118 210 118 139 l 243 210 q 281 127 243 157 q 386 97 318 97 l 447 97 q 555 128 517 97 q 593 214 593 158 q 571 292 593 264 q 503 325 549 319 l 292 356 q 171 420 214 367 q 128 561 128 474 q 197 718 128 661 q 386 775 265 775 l 447 775 q 628 720 558 775 q 704 576 699 665 l 578 576 q 540 643 575 617 q 447 669 504 669 l 386 669 q 286 640 322 669 q 250 561 250 611 q 269 499 250 522 q 324 469 288 475 l 521 442 q 667 371 618 428 q 715 214 715 314 q 645 48 715 107 q 447 -11 575 -11 l 386 -11 m 336 896 l 483 1090 l 618 1090 l 464 896 l 336 896 z "},"š":{"ha":833,"x_min":118,"x_max":715,"o":"m 386 -11 q 241 15 301 -11 q 149 90 181 40 q 118 210 118 139 l 243 210 q 281 127 243 157 q 386 97 318 97 l 447 97 q 555 128 517 97 q 593 214 593 158 q 571 292 593 264 q 503 325 549 319 l 292 356 q 171 420 214 367 q 128 561 128 474 q 197 718 128 661 q 386 775 265 775 l 447 775 q 628 720 558 775 q 704 576 699 665 l 578 576 q 540 643 575 617 q 447 669 504 669 l 386 669 q 286 640 322 669 q 250 561 250 611 q 269 499 250 522 q 324 469 288 475 l 521 442 q 667 371 618 428 q 715 214 715 314 q 645 48 715 107 q 447 -11 575 -11 l 386 -11 m 360 896 l 165 1090 l 303 1090 l 417 982 l 528 1090 l 668 1090 l 475 896 l 360 896 z "},"ş":{"ha":833,"x_min":118,"x_max":715,"o":"m 299 -282 l 299 -206 l 396 -206 q 445 -190 426 -206 q 464 -156 464 -174 q 426 -114 464 -132 q 318 -96 388 -96 l 367 36 l 446 36 l 417 -49 q 492 -67 453 -53 q 557 -106 531 -81 q 583 -167 583 -131 q 538 -248 583 -214 q 417 -282 492 -282 l 299 -282 m 386 -11 q 241 15 301 -11 q 149 90 181 40 q 118 210 118 139 l 243 210 q 281 127 243 157 q 386 97 318 97 l 447 97 q 555 128 517 97 q 593 214 593 158 q 571 292 593 264 q 503 325 549 319 l 292 356 q 171 420 214 367 q 128 561 128 474 q 197 718 128 661 q 386 775 265 775 l 447 775 q 628 720 558 775 q 704 576 699 665 l 578 576 q 540 643 575 617 q 447 669 504 669 l 386 669 q 286 640 322 669 q 250 561 250 611 q 269 499 250 522 q 324 469 288 475 l 521 442 q 667 371 618 428 q 715 214 715 314 q 645 48 715 107 q 447 -11 575 -11 l 386 -11 z "},"ŝ":{"ha":833,"x_min":118,"x_max":715,"o":"m 386 -11 q 241 15 301 -11 q 149 90 181 40 q 118 210 118 139 l 243 210 q 281 127 243 157 q 386 97 318 97 l 447 97 q 555 128 517 97 q 593 214 593 158 q 571 292 593 264 q 503 325 549 319 l 292 356 q 171 420 214 367 q 128 561 128 474 q 197 718 128 661 q 386 775 265 775 l 447 775 q 628 720 558 775 q 704 576 699 665 l 578 576 q 540 643 575 617 q 447 669 504 669 l 386 669 q 286 640 322 669 q 250 561 250 611 q 269 499 250 522 q 324 469 288 475 l 521 442 q 667 371 618 428 q 715 214 715 314 q 645 48 715 107 q 447 -11 575 -11 l 386 -11 m 165 896 l 358 1090 l 474 1090 l 668 896 l 531 896 l 417 1004 l 306 896 l 165 896 z "},"ș":{"ha":833,"x_min":118,"x_max":715,"o":"m 386 -11 q 241 15 301 -11 q 149 90 181 40 q 118 210 118 139 l 243 210 q 281 127 243 157 q 386 97 318 97 l 447 97 q 555 128 517 97 q 593 214 593 158 q 571 292 593 264 q 503 325 549 319 l 292 356 q 171 420 214 367 q 128 561 128 474 q 197 718 128 661 q 386 775 265 775 l 447 775 q 628 720 558 775 q 704 576 699 665 l 578 576 q 540 643 575 617 q 447 669 504 669 l 386 669 q 286 640 322 669 q 250 561 250 611 q 269 499 250 522 q 324 469 288 475 l 521 442 q 667 371 618 428 q 715 214 715 314 q 645 48 715 107 q 447 -11 575 -11 l 386 -11 m 264 -333 l 396 -132 l 542 -132 l 396 -333 l 264 -333 z "},"ß":{"ha":833,"x_min":128,"x_max":744,"o":"m 128 0 l 128 742 q 165 891 128 826 q 267 992 201 956 q 421 1028 333 1028 q 574 995 508 1028 q 676 906 639 963 q 713 772 713 849 q 667 628 713 690 q 550 547 622 565 l 550 543 q 690 456 636 528 q 744 283 744 383 q 706 136 744 200 q 598 36 667 72 q 438 0 529 0 l 357 0 l 357 114 l 424 114 q 563 164 510 114 q 617 294 617 214 q 567 425 617 375 q 436 475 517 475 l 357 475 l 357 586 l 421 586 q 541 632 494 586 q 588 751 588 678 q 541 871 588 825 q 421 917 494 917 q 299 868 346 917 q 253 742 253 819 l 253 0 l 128 0 z "},"ſ":{"ha":833,"x_min":229,"x_max":708,"o":"m 229 0 l 229 793 q 294 953 229 892 q 464 1014 358 1014 l 708 1014 l 708 903 l 464 903 q 385 872 415 903 q 354 792 354 842 l 354 0 l 229 0 z "},"t":{"ha":833,"x_min":65,"x_max":722,"o":"m 493 0 q 342 55 399 0 q 285 201 285 110 l 285 650 l 65 650 l 65 764 l 285 764 l 285 979 l 410 979 l 410 764 l 722 764 l 722 650 l 410 650 l 410 201 q 433 138 410 163 q 493 114 456 114 l 715 114 l 715 0 l 493 0 z "},"ŧ":{"ha":833,"x_min":65,"x_max":722,"o":"m 118 332 l 118 436 l 660 436 l 660 332 l 118 332 m 493 0 q 342 55 399 0 q 285 201 285 110 l 285 650 l 65 650 l 65 764 l 285 764 l 285 979 l 410 979 l 410 764 l 722 764 l 722 650 l 410 650 l 410 201 q 433 138 410 163 q 493 114 456 114 l 715 114 l 715 0 l 493 0 z "},"ť":{"ha":833,"x_min":65,"x_max":722,"o":"m 493 0 q 342 55 399 0 q 285 201 285 110 l 285 650 l 65 650 l 65 764 l 285 764 l 285 979 l 410 979 l 410 764 l 722 764 l 722 650 l 410 650 l 410 201 q 433 138 410 163 q 493 114 456 114 l 715 114 l 715 0 l 493 0 m 514 863 l 535 1113 l 651 1113 l 618 863 l 514 863 z "},"ţ":{"ha":833,"x_min":65,"x_max":722,"o":"m 368 -282 l 368 -206 l 465 -206 q 515 -190 496 -206 q 533 -156 533 -174 q 495 -114 533 -132 q 388 -96 457 -96 l 436 36 l 515 36 l 486 -49 q 561 -67 522 -53 q 626 -106 600 -81 q 653 -167 653 -131 q 607 -248 653 -214 q 486 -282 561 -282 l 368 -282 m 493 0 q 342 55 399 0 q 285 201 285 110 l 285 650 l 65 650 l 65 764 l 285 764 l 285 979 l 410 979 l 410 764 l 722 764 l 722 650 l 410 650 l 410 201 q 433 138 410 163 q 493 114 456 114 l 715 114 l 715 0 l 493 0 z "},"ț":{"ha":833,"x_min":65,"x_max":722,"o":"m 493 0 q 342 55 399 0 q 285 201 285 110 l 285 650 l 65 650 l 65 764 l 285 764 l 285 979 l 410 979 l 410 764 l 722 764 l 722 650 l 410 650 l 410 201 q 433 138 410 163 q 493 114 456 114 l 715 114 l 715 0 l 493 0 m 347 -333 l 479 -132 l 625 -132 l 479 -333 l 347 -333 z "},"u":{"ha":833,"x_min":125,"x_max":708,"o":"m 415 -14 q 204 65 283 -14 q 125 278 125 143 l 125 764 l 250 764 l 250 278 q 294 145 250 194 q 415 96 339 96 q 538 145 493 96 q 583 278 583 194 l 583 764 l 708 764 l 708 278 q 628 65 708 143 q 415 -14 547 -14 z "},"ú":{"ha":833,"x_min":125,"x_max":708,"o":"m 415 -14 q 204 65 283 -14 q 125 278 125 143 l 125 764 l 250 764 l 250 278 q 294 145 250 194 q 415 96 339 96 q 538 145 493 96 q 583 278 583 194 l 583 764 l 708 764 l 708 278 q 628 65 708 143 q 415 -14 547 -14 m 336 896 l 483 1090 l 618 1090 l 464 896 l 336 896 z "},"ŭ":{"ha":833,"x_min":125,"x_max":708,"o":"m 415 -14 q 204 65 283 -14 q 125 278 125 143 l 125 764 l 250 764 l 250 278 q 294 145 250 194 q 415 96 339 96 q 538 145 493 96 q 583 278 583 194 l 583 764 l 708 764 l 708 278 q 628 65 708 143 q 415 -14 547 -14 m 417 889 q 256 944 317 889 q 194 1090 194 1000 l 293 1090 q 326 1003 293 1036 q 415 969 360 969 q 506 1003 472 969 q 540 1090 540 1036 l 639 1090 q 578 944 639 1000 q 417 889 517 889 z "},"ǔ":{"ha":833,"x_min":125,"x_max":708,"o":"m 415 -14 q 204 65 283 -14 q 125 278 125 143 l 125 764 l 250 764 l 250 278 q 294 145 250 194 q 415 96 339 96 q 538 145 493 96 q 583 278 583 194 l 583 764 l 708 764 l 708 278 q 628 65 708 143 q 415 -14 547 -14 m 360 896 l 165 1090 l 303 1090 l 417 982 l 528 1090 l 668 1090 l 475 896 l 360 896 z "},"û":{"ha":833,"x_min":125,"x_max":708,"o":"m 415 -14 q 204 65 283 -14 q 125 278 125 143 l 125 764 l 250 764 l 250 278 q 294 145 250 194 q 415 96 339 96 q 538 145 493 96 q 583 278 583 194 l 583 764 l 708 764 l 708 278 q 628 65 708 143 q 415 -14 547 -14 m 165 896 l 358 1090 l 474 1090 l 668 896 l 531 896 l 417 1004 l 306 896 l 165 896 z "},"ü":{"ha":833,"x_min":125,"x_max":708,"o":"m 415 -14 q 204 65 283 -14 q 125 278 125 143 l 125 764 l 250 764 l 250 278 q 294 145 250 194 q 415 96 339 96 q 538 145 493 96 q 583 278 583 194 l 583 764 l 708 764 l 708 278 q 628 65 708 143 q 415 -14 547 -14 m 571 901 q 506 925 531 901 q 482 989 482 949 q 506 1055 482 1031 q 571 1079 531 1079 q 635 1055 611 1079 q 660 989 660 1031 q 635 925 660 949 q 571 901 611 901 m 263 901 q 198 925 222 901 q 174 989 174 949 q 198 1055 174 1031 q 263 1079 222 1079 q 327 1055 303 1079 q 351 989 351 1031 q 327 925 351 949 q 263 901 303 901 z "},"ǘ":{"ha":833,"x_min":125,"x_max":708,"o":"m 415 -14 q 204 65 283 -14 q 125 278 125 143 l 125 764 l 250 764 l 250 278 q 294 145 250 194 q 415 96 339 96 q 538 145 493 96 q 583 278 583 194 l 583 764 l 708 764 l 708 278 q 628 65 708 143 q 415 -14 547 -14 m 571 901 q 506 925 531 901 q 482 989 482 949 q 506 1055 482 1031 q 571 1079 531 1079 q 635 1055 611 1079 q 660 989 660 1031 q 635 925 660 949 q 571 901 611 901 m 263 901 q 198 925 222 901 q 174 989 174 949 q 198 1055 174 1031 q 263 1079 222 1079 q 327 1055 303 1079 q 351 989 351 1031 q 327 925 351 949 q 263 901 303 901 m 336 1211 l 483 1406 l 618 1406 l 464 1211 l 336 1211 z "},"ǚ":{"ha":833,"x_min":125,"x_max":708,"o":"m 415 -14 q 204 65 283 -14 q 125 278 125 143 l 125 764 l 250 764 l 250 278 q 294 145 250 194 q 415 96 339 96 q 538 145 493 96 q 583 278 583 194 l 583 764 l 708 764 l 708 278 q 628 65 708 143 q 415 -14 547 -14 m 571 901 q 506 925 531 901 q 482 989 482 949 q 506 1055 482 1031 q 571 1079 531 1079 q 635 1055 611 1079 q 660 989 660 1031 q 635 925 660 949 q 571 901 611 901 m 263 901 q 198 925 222 901 q 174 989 174 949 q 198 1055 174 1031 q 263 1079 222 1079 q 327 1055 303 1079 q 351 989 351 1031 q 327 925 351 949 q 263 901 303 901 m 360 1211 l 165 1406 l 303 1406 l 417 1297 l 528 1406 l 668 1406 l 475 1211 l 360 1211 z "},"ǜ":{"ha":833,"x_min":125,"x_max":708,"o":"m 415 -14 q 204 65 283 -14 q 125 278 125 143 l 125 764 l 250 764 l 250 278 q 294 145 250 194 q 415 96 339 96 q 538 145 493 96 q 583 278 583 194 l 583 764 l 708 764 l 708 278 q 628 65 708 143 q 415 -14 547 -14 m 571 901 q 506 925 531 901 q 482 989 482 949 q 506 1055 482 1031 q 571 1079 531 1079 q 635 1055 611 1079 q 660 989 660 1031 q 635 925 660 949 q 571 901 611 901 m 263 901 q 198 925 222 901 q 174 989 174 949 q 198 1055 174 1031 q 263 1079 222 1079 q 327 1055 303 1079 q 351 989 351 1031 q 327 925 351 949 q 263 901 303 901 m 371 1211 l 211 1406 l 350 1406 l 503 1211 l 371 1211 z "},"ǖ":{"ha":833,"x_min":125,"x_max":708,"o":"m 415 -14 q 204 65 283 -14 q 125 278 125 143 l 125 764 l 250 764 l 250 278 q 294 145 250 194 q 415 96 339 96 q 538 145 493 96 q 583 278 583 194 l 583 764 l 708 764 l 708 278 q 628 65 708 143 q 415 -14 547 -14 m 571 901 q 506 925 531 901 q 482 989 482 949 q 506 1055 482 1031 q 571 1079 531 1079 q 635 1055 611 1079 q 660 989 660 1031 q 635 925 660 949 q 571 901 611 901 m 263 901 q 198 925 222 901 q 174 989 174 949 q 198 1055 174 1031 q 263 1079 222 1079 q 327 1055 303 1079 q 351 989 351 1031 q 327 925 351 949 q 263 901 303 901 m 194 1246 l 194 1350 l 639 1350 l 639 1246 l 194 1246 z "},"ụ":{"ha":833,"x_min":125,"x_max":708,"o":"m 415 -14 q 204 65 283 -14 q 125 278 125 143 l 125 764 l 250 764 l 250 278 q 294 145 250 194 q 415 96 339 96 q 538 145 493 96 q 583 278 583 194 l 583 764 l 708 764 l 708 278 q 628 65 708 143 q 415 -14 547 -14 m 417 -296 q 344 -272 371 -296 q 318 -208 318 -249 q 344 -142 318 -167 q 417 -118 371 -118 q 489 -142 463 -118 q 515 -208 515 -167 q 489 -272 515 -249 q 417 -296 463 -296 z "},"ù":{"ha":833,"x_min":125,"x_max":708,"o":"m 415 -14 q 204 65 283 -14 q 125 278 125 143 l 125 764 l 250 764 l 250 278 q 294 145 250 194 q 415 96 339 96 q 538 145 493 96 q 583 278 583 194 l 583 764 l 708 764 l 708 278 q 628 65 708 143 q 415 -14 547 -14 m 371 896 l 211 1090 l 350 1090 l 503 896 l 371 896 z "},"ủ":{"ha":833,"x_min":125,"x_max":708,"o":"m 415 -14 q 204 65 283 -14 q 125 278 125 143 l 125 764 l 250 764 l 250 278 q 294 145 250 194 q 415 96 339 96 q 538 145 493 96 q 583 278 583 194 l 583 764 l 708 764 l 708 278 q 628 65 708 143 q 415 -14 547 -14 m 358 896 l 428 983 q 447 1028 447 1010 q 403 1056 447 1056 l 292 1056 l 292 1146 l 438 1146 q 523 1119 490 1146 q 556 1043 556 1092 q 532 968 556 999 l 476 896 l 358 896 z "},"ư":{"ha":833,"x_min":125,"x_max":833,"o":"m 125 278 l 125 764 l 250 764 l 250 278 q 294 144 250 192 q 415 96 339 96 q 538 144 493 96 q 583 278 583 192 l 583 764 l 681 764 q 717 776 704 764 q 729 813 729 789 l 729 917 l 833 917 l 833 806 q 803 710 833 746 q 708 674 774 674 l 708 278 q 628 65 708 143 q 415 -14 547 -14 q 204 65 283 -14 q 125 278 125 143 z "},"ứ":{"ha":833,"x_min":125,"x_max":833,"o":"m 125 278 l 125 764 l 250 764 l 250 278 q 294 144 250 192 q 415 96 339 96 q 538 144 493 96 q 583 278 583 192 l 583 764 l 681 764 q 717 776 704 764 q 729 813 729 789 l 729 917 l 833 917 l 833 806 q 803 710 833 746 q 708 674 774 674 l 708 278 q 628 65 708 143 q 415 -14 547 -14 q 204 65 283 -14 q 125 278 125 143 m 336 896 l 483 1090 l 618 1090 l 464 896 l 336 896 z "},"ự":{"ha":833,"x_min":125,"x_max":833,"o":"m 125 278 l 125 764 l 250 764 l 250 278 q 294 144 250 192 q 415 96 339 96 q 538 144 493 96 q 583 278 583 192 l 583 764 l 681 764 q 717 776 704 764 q 729 813 729 789 l 729 917 l 833 917 l 833 806 q 803 710 833 746 q 708 674 774 674 l 708 278 q 628 65 708 143 q 415 -14 547 -14 q 204 65 283 -14 q 125 278 125 143 m 415 -296 q 343 -272 369 -296 q 317 -208 317 -249 q 343 -142 317 -167 q 415 -118 369 -118 q 488 -142 461 -118 q 514 -208 514 -167 q 488 -272 514 -249 q 415 -296 461 -296 z "},"ừ":{"ha":833,"x_min":125,"x_max":833,"o":"m 125 278 l 125 764 l 250 764 l 250 278 q 294 144 250 192 q 415 96 339 96 q 538 144 493 96 q 583 278 583 192 l 583 764 l 681 764 q 717 776 704 764 q 729 813 729 789 l 729 917 l 833 917 l 833 806 q 803 710 833 746 q 708 674 774 674 l 708 278 q 628 65 708 143 q 415 -14 547 -14 q 204 65 283 -14 q 125 278 125 143 m 371 896 l 211 1090 l 350 1090 l 503 896 l 371 896 z "},"ử":{"ha":833,"x_min":125,"x_max":833,"o":"m 125 278 l 125 764 l 250 764 l 250 278 q 294 144 250 192 q 415 96 339 96 q 538 144 493 96 q 583 278 583 192 l 583 764 l 681 764 q 717 776 704 764 q 729 813 729 789 l 729 917 l 833 917 l 833 806 q 803 710 833 746 q 708 674 774 674 l 708 278 q 628 65 708 143 q 415 -14 547 -14 q 204 65 283 -14 q 125 278 125 143 m 358 896 l 428 983 q 447 1028 447 1010 q 403 1056 447 1056 l 292 1056 l 292 1146 l 438 1146 q 523 1119 490 1146 q 556 1043 556 1092 q 532 968 556 999 l 476 896 l 358 896 z "},"ữ":{"ha":833,"x_min":125,"x_max":833,"o":"m 125 278 l 125 764 l 250 764 l 250 278 q 294 144 250 192 q 415 96 339 96 q 538 144 493 96 q 583 278 583 192 l 583 764 l 681 764 q 717 776 704 764 q 729 813 729 789 l 729 917 l 833 917 l 833 806 q 803 710 833 746 q 708 674 774 674 l 708 278 q 628 65 708 143 q 415 -14 547 -14 q 204 65 283 -14 q 125 278 125 143 m 514 903 q 446 917 472 903 q 401 951 419 932 q 367 985 383 971 q 326 1000 350 1000 q 297 988 308 1000 q 285 951 285 976 l 285 910 l 194 910 l 194 951 q 229 1049 194 1014 q 319 1083 264 1083 q 388 1069 361 1083 q 432 1035 414 1054 q 467 1001 450 1015 q 507 986 483 986 q 538 998 526 986 q 549 1035 549 1010 l 549 1076 l 639 1076 l 639 1035 q 605 938 639 972 q 514 903 571 903 z "},"ű":{"ha":833,"x_min":125,"x_max":733,"o":"m 415 -14 q 204 65 283 -14 q 125 278 125 143 l 125 764 l 250 764 l 250 278 q 294 145 250 194 q 415 96 339 96 q 538 145 493 96 q 583 278 583 194 l 583 764 l 708 764 l 708 278 q 628 65 708 143 q 415 -14 547 -14 m 453 896 l 606 1090 l 733 1090 l 574 896 l 453 896 m 204 896 l 357 1090 l 485 1090 l 325 896 l 204 896 z "},"ū":{"ha":833,"x_min":125,"x_max":708,"o":"m 415 -14 q 204 65 283 -14 q 125 278 125 143 l 125 764 l 250 764 l 250 278 q 294 145 250 194 q 415 96 339 96 q 538 145 493 96 q 583 278 583 194 l 583 764 l 708 764 l 708 278 q 628 65 708 143 q 415 -14 547 -14 m 194 931 l 194 1035 l 639 1035 l 639 931 l 194 931 z "},"ų":{"ha":833,"x_min":125,"x_max":708,"o":"m 517 -282 q 394 -245 440 -282 q 347 -153 347 -208 q 365 -90 347 -122 q 429 -14 382 -57 q 426 -14 428 -14 q 422 -14 424 -14 q 417 -14 419 -14 q 203 64 281 -14 q 125 278 125 142 l 125 764 l 250 764 l 250 278 q 293 143 250 189 q 417 97 336 97 q 541 143 499 97 q 583 278 583 189 l 583 764 l 708 764 l 708 278 q 678 128 708 192 q 588 29 647 65 l 554 1 q 486 -69 507 -37 q 465 -129 465 -100 q 486 -179 465 -160 q 542 -199 507 -199 l 625 -199 l 625 -282 l 517 -282 z "},"ů":{"ha":833,"x_min":125,"x_max":708,"o":"m 415 -14 q 204 65 283 -14 q 125 278 125 143 l 125 764 l 250 764 l 250 278 q 294 145 250 194 q 415 96 339 96 q 538 145 493 96 q 583 278 583 194 l 583 764 l 708 764 l 708 278 q 628 65 708 143 q 415 -14 547 -14 m 417 844 q 296 888 342 844 q 250 1003 250 932 q 296 1117 250 1074 q 417 1161 342 1161 q 538 1117 492 1161 q 583 1003 583 1074 q 538 888 583 932 q 417 844 492 844 m 417 918 q 477 941 454 918 q 500 1003 500 964 q 477 1065 500 1042 q 417 1089 454 1089 q 356 1065 379 1089 q 333 1003 333 1042 q 356 941 333 964 q 417 918 379 918 z "},"ũ":{"ha":833,"x_min":125,"x_max":708,"o":"m 415 -14 q 204 65 283 -14 q 125 278 125 143 l 125 764 l 250 764 l 250 278 q 294 145 250 194 q 415 96 339 96 q 538 145 493 96 q 583 278 583 194 l 583 764 l 708 764 l 708 278 q 628 65 708 143 q 415 -14 547 -14 m 514 903 q 446 917 472 903 q 401 951 419 932 q 367 985 383 971 q 326 1000 350 1000 q 297 988 308 1000 q 285 951 285 976 l 285 910 l 194 910 l 194 951 q 229 1049 194 1014 q 319 1083 264 1083 q 388 1069 361 1083 q 432 1035 414 1054 q 467 1001 450 1015 q 507 986 483 986 q 538 998 526 986 q 549 1035 549 1010 l 549 1076 l 639 1076 l 639 1035 q 605 938 639 972 q 514 903 571 903 z "},"v":{"ha":833,"x_min":75,"x_max":758,"o":"m 335 0 l 75 764 l 210 764 l 376 250 q 403 162 392 204 q 419 96 414 119 q 436 162 426 119 q 460 250 446 204 l 626 764 l 758 764 l 499 0 l 335 0 z "},"w":{"ha":833,"x_min":43,"x_max":790,"o":"m 168 0 l 43 764 l 151 764 l 229 225 q 238 158 233 194 q 243 97 242 121 q 249 158 246 121 q 258 225 253 194 l 354 764 l 479 764 l 575 225 q 585 158 581 194 q 592 97 590 121 q 599 158 594 121 q 607 225 603 194 l 688 764 l 790 764 l 660 0 l 522 0 l 435 528 q 424 610 429 567 q 417 678 419 654 q 413 637 415 663 q 406 583 410 611 q 397 528 401 554 l 306 0 l 168 0 z "},"ẃ":{"ha":833,"x_min":43,"x_max":790,"o":"m 168 0 l 43 764 l 151 764 l 229 225 q 238 158 233 194 q 243 97 242 121 q 249 158 246 121 q 258 225 253 194 l 354 764 l 479 764 l 575 225 q 585 158 581 194 q 592 97 590 121 q 599 158 594 121 q 607 225 603 194 l 688 764 l 790 764 l 660 0 l 522 0 l 435 528 q 424 610 429 567 q 417 678 419 654 q 413 637 415 663 q 406 583 410 611 q 397 528 401 554 l 306 0 l 168 0 m 336 896 l 483 1090 l 618 1090 l 464 896 l 336 896 z "},"ŵ":{"ha":833,"x_min":43,"x_max":790,"o":"m 168 0 l 43 764 l 151 764 l 229 225 q 238 158 233 194 q 243 97 242 121 q 249 158 246 121 q 258 225 253 194 l 354 764 l 479 764 l 575 225 q 585 158 581 194 q 592 97 590 121 q 599 158 594 121 q 607 225 603 194 l 688 764 l 790 764 l 660 0 l 522 0 l 435 528 q 424 610 429 567 q 417 678 419 654 q 413 637 415 663 q 406 583 410 611 q 397 528 401 554 l 306 0 l 168 0 m 165 896 l 358 1090 l 474 1090 l 668 896 l 531 896 l 417 1004 l 306 896 l 165 896 z "},"ẅ":{"ha":833,"x_min":43,"x_max":790,"o":"m 168 0 l 43 764 l 151 764 l 229 225 q 238 158 233 194 q 243 97 242 121 q 249 158 246 121 q 258 225 253 194 l 354 764 l 479 764 l 575 225 q 585 158 581 194 q 592 97 590 121 q 599 158 594 121 q 607 225 603 194 l 688 764 l 790 764 l 660 0 l 522 0 l 435 528 q 424 610 429 567 q 417 678 419 654 q 413 637 415 663 q 406 583 410 611 q 397 528 401 554 l 306 0 l 168 0 m 571 901 q 506 925 531 901 q 482 989 482 949 q 506 1055 482 1031 q 571 1079 531 1079 q 635 1055 611 1079 q 660 989 660 1031 q 635 925 660 949 q 571 901 611 901 m 263 901 q 198 925 222 901 q 174 989 174 949 q 198 1055 174 1031 q 263 1079 222 1079 q 327 1055 303 1079 q 351 989 351 1031 q 327 925 351 949 q 263 901 303 901 z "},"ẁ":{"ha":833,"x_min":43,"x_max":790,"o":"m 168 0 l 43 764 l 151 764 l 229 225 q 238 158 233 194 q 243 97 242 121 q 249 158 246 121 q 258 225 253 194 l 354 764 l 479 764 l 575 225 q 585 158 581 194 q 592 97 590 121 q 599 158 594 121 q 607 225 603 194 l 688 764 l 790 764 l 660 0 l 522 0 l 435 528 q 424 610 429 567 q 417 678 419 654 q 413 637 415 663 q 406 583 410 611 q 397 528 401 554 l 306 0 l 168 0 m 371 896 l 211 1090 l 350 1090 l 503 896 l 371 896 z "},"x":{"ha":833,"x_min":69,"x_max":764,"o":"m 69 0 l 340 393 l 86 764 l 233 764 l 385 528 q 403 494 394 513 q 418 465 413 476 q 431 494 422 476 q 450 528 440 513 l 601 764 l 749 764 l 494 392 l 764 0 l 617 0 l 453 250 q 434 285 443 265 q 418 318 425 306 q 402 285 413 306 q 381 250 392 265 l 217 0 l 69 0 z "},"y":{"ha":833,"x_min":75,"x_max":758,"o":"m 247 -250 l 360 47 l 75 764 l 210 764 l 390 292 q 411 233 401 264 q 425 181 421 203 q 439 233 429 203 q 458 292 449 264 l 626 764 l 758 764 l 378 -250 l 247 -250 z "},"ý":{"ha":833,"x_min":75,"x_max":758,"o":"m 247 -250 l 360 47 l 75 764 l 210 764 l 390 292 q 411 233 401 264 q 425 181 421 203 q 439 233 429 203 q 458 292 449 264 l 626 764 l 758 764 l 378 -250 l 247 -250 m 336 896 l 483 1090 l 618 1090 l 464 896 l 336 896 z "},"ŷ":{"ha":833,"x_min":75,"x_max":758,"o":"m 247 -250 l 360 47 l 75 764 l 210 764 l 390 292 q 411 233 401 264 q 425 181 421 203 q 439 233 429 203 q 458 292 449 264 l 626 764 l 758 764 l 378 -250 l 247 -250 m 165 896 l 358 1090 l 474 1090 l 668 896 l 531 896 l 417 1004 l 306 896 l 165 896 z "},"ÿ":{"ha":833,"x_min":75,"x_max":758,"o":"m 247 -250 l 360 47 l 75 764 l 210 764 l 390 292 q 411 233 401 264 q 425 181 421 203 q 439 233 429 203 q 458 292 449 264 l 626 764 l 758 764 l 378 -250 l 247 -250 m 571 901 q 506 925 531 901 q 482 989 482 949 q 506 1055 482 1031 q 571 1079 531 1079 q 635 1055 611 1079 q 660 989 660 1031 q 635 925 660 949 q 571 901 611 901 m 263 901 q 198 925 222 901 q 174 989 174 949 q 198 1055 174 1031 q 263 1079 222 1079 q 327 1055 303 1079 q 351 989 351 1031 q 327 925 351 949 q 263 901 303 901 z "},"ỵ":{"ha":833,"x_min":75,"x_max":758,"o":"m 247 -250 l 360 47 l 75 764 l 210 764 l 390 292 q 411 233 401 264 q 425 181 421 203 q 439 233 429 203 q 458 292 449 264 l 626 764 l 758 764 l 378 -250 l 247 -250 m 639 -296 q 567 -272 593 -296 q 540 -208 540 -249 q 567 -142 540 -167 q 639 -118 593 -118 q 711 -142 685 -118 q 738 -208 738 -167 q 711 -272 738 -249 q 639 -296 685 -296 z "},"ỳ":{"ha":833,"x_min":75,"x_max":758,"o":"m 247 -250 l 360 47 l 75 764 l 210 764 l 390 292 q 411 233 401 264 q 425 181 421 203 q 439 233 429 203 q 458 292 449 264 l 626 764 l 758 764 l 378 -250 l 247 -250 m 371 896 l 211 1090 l 350 1090 l 503 896 l 371 896 z "},"ỷ":{"ha":833,"x_min":75,"x_max":758,"o":"m 247 -250 l 360 47 l 75 764 l 210 764 l 390 292 q 411 233 401 264 q 425 181 421 203 q 439 233 429 203 q 458 292 449 264 l 626 764 l 758 764 l 378 -250 l 247 -250 m 358 896 l 428 983 q 447 1028 447 1010 q 403 1056 447 1056 l 292 1056 l 292 1146 l 438 1146 q 523 1119 490 1146 q 556 1043 556 1092 q 532 968 556 999 l 476 896 l 358 896 z "},"ȳ":{"ha":833,"x_min":75,"x_max":758,"o":"m 247 -250 l 360 47 l 75 764 l 210 764 l 390 292 q 411 233 401 264 q 425 181 421 203 q 439 233 429 203 q 458 292 449 264 l 626 764 l 758 764 l 378 -250 l 247 -250 m 194 931 l 194 1035 l 639 1035 l 639 931 l 194 931 z "},"ỹ":{"ha":833,"x_min":75,"x_max":758,"o":"m 247 -250 l 360 47 l 75 764 l 210 764 l 390 292 q 411 233 401 264 q 425 181 421 203 q 439 233 429 203 q 458 292 449 264 l 626 764 l 758 764 l 378 -250 l 247 -250 m 514 903 q 446 917 472 903 q 401 951 419 932 q 367 985 383 971 q 326 1000 350 1000 q 297 988 308 1000 q 285 951 285 976 l 285 910 l 194 910 l 194 951 q 229 1049 194 1014 q 319 1083 264 1083 q 388 1069 361 1083 q 432 1035 414 1054 q 467 1001 450 1015 q 507 986 483 986 q 538 998 526 986 q 549 1035 549 1010 l 549 1076 l 639 1076 l 639 1035 q 605 938 639 972 q 514 903 571 903 z "},"z":{"ha":833,"x_min":125,"x_max":708,"o":"m 125 0 l 125 125 l 553 650 l 136 650 l 136 764 l 693 764 l 693 639 l 257 114 l 708 114 l 708 0 l 125 0 z "},"ź":{"ha":833,"x_min":125,"x_max":708,"o":"m 125 0 l 125 125 l 553 650 l 136 650 l 136 764 l 693 764 l 693 639 l 257 114 l 708 114 l 708 0 l 125 0 m 336 896 l 483 1090 l 618 1090 l 464 896 l 336 896 z "},"ž":{"ha":833,"x_min":125,"x_max":708,"o":"m 125 0 l 125 125 l 553 650 l 136 650 l 136 764 l 693 764 l 693 639 l 257 114 l 708 114 l 708 0 l 125 0 m 360 896 l 165 1090 l 303 1090 l 417 982 l 528 1090 l 668 1090 l 475 896 l 360 896 z "},"ż":{"ha":833,"x_min":125,"x_max":708,"o":"m 125 0 l 125 125 l 553 650 l 136 650 l 136 764 l 693 764 l 693 639 l 257 114 l 708 114 l 708 0 l 125 0 m 417 901 q 344 925 371 901 q 318 989 318 949 q 344 1055 318 1031 q 417 1079 371 1079 q 489 1055 463 1079 q 515 989 515 1031 q 489 925 515 949 q 417 901 463 901 z "},"ª":{"ha":833,"x_min":243,"x_max":583,"o":"m 518 632 l 518 708 l 514 708 l 514 903 q 490 953 514 935 q 424 972 465 972 q 363 957 388 972 q 333 917 338 942 l 264 917 q 313 999 271 969 q 424 1028 356 1028 q 540 994 497 1028 q 583 903 583 961 l 583 632 l 518 632 m 381 625 q 281 658 318 625 q 243 744 243 690 q 282 831 243 799 q 389 863 321 863 l 529 863 l 529 807 l 389 807 q 333 790 353 807 q 313 744 313 774 q 336 696 313 714 q 399 678 360 678 q 483 703 453 678 q 514 771 514 728 l 529 771 l 529 708 l 514 708 q 465 647 500 669 q 381 625 429 625 z "},"º":{"ha":833,"x_min":257,"x_max":576,"o":"m 417 618 q 301 658 344 618 q 257 764 257 699 l 257 875 q 301 981 257 940 q 417 1021 344 1021 q 533 981 489 1021 q 576 875 576 940 l 576 764 q 533 658 576 699 q 417 618 489 618 m 417 674 q 482 699 457 674 q 507 764 507 724 l 507 875 q 482 940 507 915 q 417 965 457 965 q 351 940 376 965 q 326 875 326 915 l 326 764 q 351 699 326 724 q 417 674 376 674 z "},"А":{"ha":833,"x_min":69,"x_max":764,"o":"m 69 0 l 333 1014 l 501 1014 l 764 0 l 638 0 l 571 269 l 264 269 l 197 0 l 69 0 m 289 375 l 544 375 l 467 688 q 432 836 444 776 q 417 914 419 896 q 401 836 414 896 q 367 689 389 776 l 289 375 z "},"Б":{"ha":833,"x_min":131,"x_max":736,"o":"m 131 0 l 131 1014 l 694 1014 l 694 900 l 256 900 l 256 600 l 424 600 q 590 563 521 600 q 698 458 660 525 q 736 300 736 390 q 698 142 736 210 q 590 38 660 75 q 424 0 521 0 l 131 0 m 256 114 l 424 114 q 558 165 510 114 q 607 300 607 215 q 558 436 607 386 q 424 486 510 486 l 256 486 l 256 114 z "},"В":{"ha":833,"x_min":129,"x_max":736,"o":"m 129 0 l 129 1014 l 417 1014 q 576 983 510 1014 q 677 892 642 951 q 713 751 713 833 q 690 654 713 700 q 628 576 668 608 q 535 533 588 544 l 535 529 q 640 488 594 522 q 710 399 685 453 q 736 282 736 346 q 700 132 736 196 q 597 34 664 68 q 438 0 531 0 l 129 0 m 251 113 l 424 113 q 562 159 511 113 q 613 286 613 206 q 562 422 613 369 q 424 474 511 474 l 251 474 l 251 113 m 251 582 l 415 582 q 542 625 496 582 q 589 742 589 668 q 543 858 589 815 q 417 901 497 901 l 251 901 l 251 582 z "},"Г":{"ha":833,"x_min":181,"x_max":771,"o":"m 181 0 l 181 1014 l 771 1014 l 771 900 l 306 900 l 306 0 l 181 0 z "},"Ѓ":{"ha":833,"x_min":181,"x_max":771,"o":"m 181 0 l 181 1014 l 771 1014 l 771 900 l 306 900 l 306 0 l 181 0 m 364 1125 l 511 1319 l 646 1319 l 492 1125 l 364 1125 z "},"Ґ":{"ha":833,"x_min":181,"x_max":771,"o":"m 181 0 l 181 1014 l 653 1014 l 653 1146 l 771 1146 l 771 900 l 306 900 l 306 0 l 181 0 z "},"Д":{"ha":833,"x_min":35,"x_max":799,"o":"m 35 -194 l 35 107 l 97 107 q 129 182 113 135 q 158 289 146 229 q 172 414 171 349 l 182 1014 l 701 1014 l 701 107 l 799 107 l 799 -194 l 688 -194 l 688 0 l 146 0 l 146 -194 l 35 -194 m 228 107 l 576 107 l 576 903 l 301 903 l 294 414 q 283 282 294 343 q 257 176 272 221 q 228 107 242 131 z "},"Е":{"ha":833,"x_min":139,"x_max":722,"o":"m 139 0 l 139 1014 l 722 1014 l 722 900 l 263 900 l 263 586 l 674 586 l 674 475 l 263 475 l 263 114 l 722 114 l 722 0 l 139 0 z "},"Ё":{"ha":833,"x_min":139,"x_max":722,"o":"m 139 0 l 139 1014 l 722 1014 l 722 900 l 263 900 l 263 586 l 674 586 l 674 475 l 263 475 l 263 114 l 722 114 l 722 0 l 139 0 m 585 1135 q 520 1158 544 1135 q 496 1222 496 1182 q 520 1288 496 1264 q 585 1313 544 1313 q 649 1288 625 1313 q 674 1222 674 1264 q 649 1158 674 1182 q 585 1135 625 1135 m 276 1135 q 212 1158 236 1135 q 188 1222 188 1182 q 212 1288 188 1264 q 276 1313 236 1313 q 341 1288 317 1313 q 365 1222 365 1264 q 341 1158 365 1182 q 276 1135 317 1135 z "},"Ж":{"ha":833,"x_min":8,"x_max":825,"o":"m 8 0 l 194 526 l 22 1014 l 153 1014 l 300 571 l 364 571 l 364 1014 l 469 1014 l 469 571 l 536 571 l 681 1014 l 811 1014 l 638 525 l 825 0 l 696 0 l 533 476 l 469 476 l 469 0 l 364 0 l 364 476 l 297 476 l 136 0 l 8 0 z "},"З":{"ha":833,"x_min":72,"x_max":742,"o":"m 404 -14 q 233 23 307 -14 q 116 126 158 60 q 72 278 74 192 l 197 278 q 258 147 200 197 q 406 97 315 97 q 556 149 499 97 q 614 285 614 201 q 556 420 614 368 q 406 472 499 472 l 286 472 l 286 583 l 407 583 q 535 631 486 583 q 585 753 585 678 q 536 872 585 826 q 410 917 488 917 q 276 867 328 917 q 225 736 225 817 l 100 736 q 140 889 100 824 q 249 991 179 954 q 410 1028 318 1028 q 566 994 499 1028 q 672 902 633 961 q 710 765 710 843 q 665 619 710 682 q 547 538 619 556 l 547 533 q 688 447 633 518 q 742 276 742 375 q 699 125 742 190 q 581 23 657 60 q 404 -14 504 -14 z "},"И":{"ha":833,"x_min":125,"x_max":708,"o":"m 125 0 l 125 1014 l 246 1014 l 246 444 q 244 338 246 394 q 239 231 242 282 q 233 146 236 181 l 542 1014 l 708 1014 l 708 0 l 588 0 l 588 569 q 590 677 588 621 q 595 784 592 733 q 601 868 599 835 l 292 0 l 125 0 z "},"Й":{"ha":833,"x_min":125,"x_max":708,"o":"m 125 0 l 125 1014 l 246 1014 l 246 444 q 244 338 246 394 q 239 231 242 282 q 233 146 236 181 l 542 1014 l 708 1014 l 708 0 l 588 0 l 588 569 q 590 677 588 621 q 595 784 592 733 q 601 868 599 835 l 292 0 l 125 0 m 417 1118 q 256 1174 317 1118 q 194 1319 194 1229 l 293 1319 q 326 1232 293 1265 q 415 1199 360 1199 q 506 1232 472 1199 q 540 1319 540 1265 l 639 1319 q 578 1174 639 1229 q 417 1118 517 1118 z "},"К":{"ha":833,"x_min":128,"x_max":778,"o":"m 128 0 l 128 1014 l 253 1014 l 253 578 l 403 578 l 628 1014 l 764 1014 l 513 525 l 778 0 l 635 0 l 399 468 l 253 468 l 253 0 l 128 0 z "},"Ќ":{"ha":833,"x_min":128,"x_max":778,"o":"m 128 0 l 128 1014 l 253 1014 l 253 578 l 403 578 l 628 1014 l 764 1014 l 513 525 l 778 0 l 635 0 l 399 468 l 253 468 l 253 0 l 128 0 m 336 1125 l 483 1319 l 618 1319 l 464 1125 l 336 1125 z "},"Л":{"ha":833,"x_min":28,"x_max":703,"o":"m 28 -7 l 28 110 l 53 110 q 141 165 114 110 q 169 353 168 219 l 181 1014 l 703 1014 l 703 0 l 578 0 l 578 900 l 304 900 l 294 353 q 235 80 292 167 q 60 -7 179 -7 l 28 -7 z "},"М":{"ha":833,"x_min":100,"x_max":733,"o":"m 100 0 l 100 1014 l 285 1014 l 414 575 l 549 1014 l 733 1014 l 733 0 l 613 0 l 613 479 q 615 635 613 547 q 621 814 617 724 q 631 976 625 904 l 467 453 l 358 453 l 201 964 q 214 818 210 896 q 219 656 218 740 q 221 479 221 571 l 221 0 l 100 0 z "},"Н":{"ha":833,"x_min":129,"x_max":704,"o":"m 129 0 l 129 1014 l 254 1014 l 254 581 l 579 581 l 579 1014 l 704 1014 l 704 0 l 579 0 l 579 467 l 254 467 l 254 0 l 129 0 z "},"О":{"ha":833,"x_min":122,"x_max":711,"o":"m 417 -14 q 201 65 281 -14 q 122 292 122 144 l 122 722 q 201 949 122 869 q 417 1028 281 1028 q 632 949 553 1028 q 711 724 711 869 l 711 292 q 632 65 711 144 q 417 -14 553 -14 m 417 99 q 542 145 499 99 q 586 278 586 192 l 586 736 q 542 869 586 822 q 417 915 499 915 q 292 869 336 915 q 247 736 247 822 l 247 278 q 292 145 247 192 q 417 99 336 99 z "},"П":{"ha":833,"x_min":131,"x_max":703,"o":"m 131 0 l 131 1014 l 703 1014 l 703 0 l 578 0 l 578 900 l 256 900 l 256 0 l 131 0 z "},"Р":{"ha":833,"x_min":128,"x_max":764,"o":"m 128 0 l 128 1014 l 454 1014 q 618 977 549 1014 q 726 874 688 940 q 764 715 764 807 q 726 558 764 625 q 618 453 688 490 q 454 417 549 417 l 253 417 l 253 0 l 128 0 m 253 529 l 454 529 q 585 580 536 529 q 635 715 635 631 q 585 851 635 801 q 454 901 536 901 l 253 901 l 253 529 z "},"С":{"ha":833,"x_min":128,"x_max":725,"o":"m 428 -14 q 269 21 336 -14 q 165 122 201 56 q 128 278 128 188 l 128 736 q 165 893 128 828 q 269 993 201 958 q 428 1028 336 1028 q 586 992 519 1028 q 689 892 653 957 q 725 736 725 826 l 600 736 q 555 869 600 822 q 428 915 510 915 q 299 869 346 915 q 253 736 253 822 l 253 278 q 299 145 253 192 q 428 99 346 99 q 555 145 510 99 q 600 278 600 192 l 725 278 q 689 123 725 189 q 586 22 653 57 q 428 -14 519 -14 z "},"Т":{"ha":833,"x_min":76,"x_max":757,"o":"m 354 0 l 354 900 l 76 900 l 76 1014 l 757 1014 l 757 900 l 479 900 l 479 0 l 354 0 z "},"У":{"ha":833,"x_min":69,"x_max":764,"o":"m 265 0 l 368 263 l 69 1014 l 206 1014 l 388 518 q 417 428 406 471 q 431 365 428 386 q 443 428 433 386 q 468 518 453 471 l 628 1014 l 764 1014 l 399 0 l 265 0 z "},"Ў":{"ha":833,"x_min":69,"x_max":764,"o":"m 265 0 l 368 263 l 69 1014 l 206 1014 l 388 518 q 417 428 406 471 q 431 365 428 386 q 443 428 433 386 q 468 518 453 471 l 628 1014 l 764 1014 l 399 0 l 265 0 m 417 1118 q 256 1174 317 1118 q 194 1319 194 1229 l 293 1319 q 326 1232 293 1265 q 415 1199 360 1199 q 506 1232 472 1199 q 540 1319 540 1265 l 639 1319 q 578 1174 639 1229 q 417 1118 517 1118 z "},"Ф":{"ha":833,"x_min":64,"x_max":769,"o":"m 354 -35 l 354 76 q 206 113 271 76 q 102 213 140 149 q 64 365 64 278 l 64 669 q 101 826 64 760 q 205 928 139 892 q 354 965 271 965 l 354 1069 l 479 1069 l 479 965 q 629 928 564 965 q 732 826 694 892 q 769 669 769 760 l 769 365 q 731 213 769 278 q 628 113 693 149 q 479 76 563 76 l 479 -35 l 354 -35 m 360 182 l 360 860 q 267 837 308 860 q 203 772 226 814 q 181 669 181 729 l 181 365 q 203 267 181 308 q 267 204 226 226 q 360 182 308 182 m 474 182 q 567 204 526 182 q 630 267 607 226 q 653 365 653 308 l 653 669 q 630 772 653 729 q 567 837 607 814 q 474 860 526 860 l 474 182 z "},"Х":{"ha":833,"x_min":56,"x_max":778,"o":"m 56 0 l 347 514 l 71 1014 l 215 1014 l 372 714 q 398 663 385 690 q 419 621 411 636 q 440 663 426 636 q 465 714 453 690 l 625 1014 l 763 1014 l 486 522 l 778 0 l 635 0 l 461 322 q 435 373 449 346 q 415 417 422 400 q 395 374 408 400 q 369 324 382 347 l 194 0 l 56 0 z "},"Ч":{"ha":833,"x_min":104,"x_max":701,"o":"m 576 0 l 576 376 l 382 376 q 178 443 251 376 q 104 626 104 510 l 104 1014 l 229 1014 l 229 626 q 273 524 229 560 q 396 488 317 488 l 576 488 l 576 1014 l 701 1014 l 701 0 l 576 0 z "},"Ц":{"ha":833,"x_min":131,"x_max":785,"o":"m 674 -194 l 674 0 l 131 0 l 131 1014 l 256 1014 l 256 111 l 556 111 l 556 1014 l 681 1014 l 681 111 l 785 111 l 785 -194 l 674 -194 z "},"Ш":{"ha":833,"x_min":83,"x_max":750,"o":"m 86 0 l 83 1014 l 201 1014 l 201 108 l 367 108 l 367 1014 l 469 1014 l 469 108 l 633 108 l 633 1014 l 750 1014 l 750 0 l 86 0 z "},"Щ":{"ha":833,"x_min":83,"x_max":826,"o":"m 715 -194 l 715 0 l 83 0 l 83 1014 l 196 1014 l 196 108 l 363 108 l 363 1014 l 460 1014 l 460 108 l 626 108 l 626 1014 l 739 1014 l 739 108 l 826 108 l 826 -194 l 715 -194 z "},"Џ":{"ha":833,"x_min":131,"x_max":703,"o":"m 354 -174 l 354 0 l 131 0 l 131 1014 l 256 1014 l 256 114 l 578 114 l 578 1014 l 703 1014 l 703 0 l 479 0 l 479 -174 l 354 -174 z "},"Ь":{"ha":833,"x_min":131,"x_max":764,"o":"m 131 0 l 131 1014 l 256 1014 l 256 597 l 458 597 q 619 560 550 597 q 726 456 688 522 q 764 299 764 389 q 726 142 764 210 q 619 38 688 75 q 458 0 550 0 l 131 0 m 256 114 l 451 114 q 584 165 533 114 q 635 299 635 215 q 584 433 635 382 q 451 483 533 483 l 256 483 l 256 114 z "},"Ъ":{"ha":833,"x_min":-7,"x_max":764,"o":"m 188 0 l 188 900 l -7 900 l -7 1014 l 313 1014 l 313 597 l 458 597 q 619 560 550 597 q 726 456 688 522 q 764 299 764 389 q 726 142 764 210 q 619 38 688 75 q 458 0 550 0 l 188 0 m 313 114 l 451 114 q 584 165 533 114 q 635 299 635 215 q 584 433 635 382 q 451 483 533 483 l 313 483 l 313 114 z "},"Ы":{"ha":833,"x_min":83,"x_max":750,"o":"m 83 0 l 83 1014 l 200 1014 l 200 597 l 264 597 q 463 526 389 597 q 536 333 536 456 l 536 263 q 463 71 536 142 q 264 0 389 0 l 83 0 m 200 110 l 264 110 q 377 151 335 110 q 419 264 419 193 l 419 333 q 377 446 419 404 q 264 488 335 488 l 200 488 l 200 110 m 633 0 l 633 1014 l 750 1014 l 750 0 l 633 0 z "},"Љ":{"ha":833,"x_min":-7,"x_max":806,"o":"m -7 -7 l -7 104 l 18 104 q 76 144 58 104 q 96 269 94 183 l 103 1014 l 500 1014 l 500 597 l 583 597 q 744 538 683 597 q 806 382 806 479 l 806 215 q 744 59 806 118 q 583 0 683 0 l 389 0 l 389 910 l 218 910 l 213 269 q 190 112 213 172 q 124 22 168 51 q 14 -7 81 -7 l -7 -7 m 500 104 l 583 104 q 661 135 633 104 q 689 215 689 165 l 689 382 q 661 463 689 432 q 583 493 633 493 l 500 493 l 500 104 z "},"Њ":{"ha":833,"x_min":74,"x_max":806,"o":"m 74 0 l 74 1014 l 185 1014 l 185 597 l 389 597 l 389 1014 l 500 1014 l 500 597 l 583 597 q 746 539 686 597 q 806 382 806 481 l 806 215 q 746 58 806 117 q 583 0 686 0 l 389 0 l 389 493 l 185 493 l 185 0 l 74 0 m 500 104 l 583 104 q 665 134 636 104 q 694 215 694 164 l 694 382 q 665 464 694 435 q 583 493 636 493 l 500 493 l 500 104 z "},"Ѕ":{"ha":833,"x_min":100,"x_max":733,"o":"m 422 -14 q 252 21 325 -14 q 140 122 179 56 q 100 278 100 188 l 225 278 q 279 145 225 193 q 422 97 333 97 q 560 147 508 97 q 611 278 611 197 q 578 384 611 339 q 485 446 546 429 l 331 489 q 180 588 235 517 q 125 757 125 660 q 161 899 125 838 q 263 994 197 960 q 413 1028 328 1028 q 565 994 499 1028 q 668 899 631 960 q 706 760 706 839 l 581 760 q 533 873 581 829 q 413 917 486 917 q 293 873 339 917 q 247 760 247 829 q 277 665 247 704 q 361 610 307 625 l 519 565 q 677 460 621 538 q 733 278 733 383 q 695 124 733 189 q 587 22 657 58 q 422 -14 517 -14 z "},"Є":{"ha":833,"x_min":128,"x_max":725,"o":"m 250 582 l 563 582 l 563 468 l 250 468 l 250 582 m 428 -14 q 269 21 336 -14 q 165 122 201 56 q 128 278 128 188 l 128 736 q 165 893 128 828 q 269 993 201 958 q 428 1028 336 1028 q 586 992 519 1028 q 689 892 653 957 q 725 736 725 826 l 600 736 q 555 869 600 822 q 428 915 510 915 q 299 869 346 915 q 253 736 253 822 l 253 278 q 299 145 253 192 q 428 99 346 99 q 555 145 510 99 q 600 278 600 192 l 725 278 q 689 123 725 189 q 586 22 653 57 q 428 -14 519 -14 z "},"Э":{"ha":833,"x_min":108,"x_max":706,"o":"m 108 278 l 233 278 q 279 145 233 192 q 406 99 325 99 q 534 145 488 99 q 581 278 581 192 l 581 468 l 271 468 l 271 582 l 581 582 l 581 736 q 534 869 581 822 q 406 915 488 915 q 279 869 325 915 q 233 736 233 822 l 108 736 q 144 892 108 826 q 248 992 181 957 q 406 1028 315 1028 q 565 993 499 1028 q 669 893 632 958 q 706 736 706 828 l 706 278 q 669 122 706 188 q 565 21 632 56 q 406 -14 499 -14 q 248 22 315 -14 q 144 123 181 57 q 108 278 108 189 z "},"І":{"ha":833,"x_min":146,"x_max":688,"o":"m 146 0 l 146 114 l 353 114 l 353 900 l 146 900 l 146 1014 l 688 1014 l 688 900 l 481 900 l 481 114 l 688 114 l 688 0 l 146 0 z "},"Ї":{"ha":833,"x_min":146,"x_max":688,"o":"m 146 0 l 146 114 l 353 114 l 353 900 l 146 900 l 146 1014 l 688 1014 l 688 900 l 481 900 l 481 114 l 688 114 l 688 0 l 146 0 m 571 1135 q 506 1158 531 1135 q 482 1222 482 1182 q 506 1288 482 1264 q 571 1313 531 1313 q 635 1288 611 1313 q 660 1222 660 1264 q 635 1158 660 1182 q 571 1135 611 1135 m 263 1135 q 198 1158 222 1135 q 174 1222 174 1182 q 198 1288 174 1264 q 263 1313 222 1313 q 327 1288 303 1313 q 351 1222 351 1264 q 327 1158 351 1182 q 263 1135 303 1135 z "},"Ј":{"ha":833,"x_min":63,"x_max":688,"o":"m 375 -14 q 146 68 229 -14 q 63 292 63 150 l 188 292 q 237 148 188 199 q 375 97 286 97 q 513 148 464 97 q 563 292 563 199 l 563 1014 l 688 1014 l 688 292 q 603 68 688 150 q 375 -14 519 -14 z "},"Ћ":{"ha":833,"x_min":0,"x_max":743,"o":"m 153 0 l 153 904 l 0 904 l 0 1014 l 444 1014 l 444 904 l 278 904 l 278 557 l 300 581 q 526 694 406 694 q 684 627 625 694 q 743 446 743 560 l 743 0 l 618 0 l 618 418 q 587 543 618 503 q 497 583 556 583 q 349 499 429 583 l 278 424 l 278 0 l 153 0 z "},"Ю":{"ha":833,"x_min":83,"x_max":792,"o":"m 556 -14 q 390 56 451 -14 q 329 243 329 125 l 329 468 l 199 468 l 199 0 l 83 0 l 83 1014 l 199 1014 l 199 579 l 329 579 l 329 771 q 390 959 329 890 q 556 1028 451 1028 q 728 959 664 1028 q 792 771 792 890 l 792 243 q 728 56 792 125 q 556 -14 664 -14 m 556 89 q 644 129 613 89 q 676 243 676 169 l 676 771 q 644 885 676 844 q 556 925 613 925 q 467 885 499 925 q 435 771 435 844 l 435 243 q 467 129 435 169 q 556 89 499 89 z "},"Я":{"ha":833,"x_min":78,"x_max":701,"o":"m 78 0 l 286 444 q 142 546 194 472 q 89 722 89 619 q 126 875 89 810 q 232 977 164 940 q 390 1014 300 1014 l 701 1014 l 701 0 l 576 0 l 576 431 l 415 431 l 222 0 l 78 0 m 390 542 l 576 542 l 576 903 l 390 903 q 266 853 314 903 q 218 722 218 804 q 265 592 218 642 q 390 542 313 542 z "},"Ђ":{"ha":833,"x_min":0,"x_max":743,"o":"m 361 -250 l 361 -136 l 458 -136 q 575 -94 532 -136 q 618 21 618 -51 l 618 418 q 587 543 618 503 q 497 583 556 583 q 349 499 429 583 l 278 424 l 278 0 l 153 0 l 153 904 l 0 904 l 0 1014 l 444 1014 l 444 904 l 278 904 l 278 557 l 300 581 q 526 694 406 694 q 684 627 625 694 q 743 446 743 560 l 743 21 q 708 -122 743 -61 q 608 -217 672 -183 q 458 -250 544 -250 l 361 -250 z "},"Ғ":{"ha":833,"x_min":42,"x_max":771,"o":"m 42 453 l 42 564 l 528 564 l 528 453 l 42 453 m 181 0 l 181 1014 l 771 1014 l 771 900 l 306 900 l 306 0 l 181 0 z "},"Қ":{"ha":833,"x_min":113,"x_max":813,"o":"m 701 -194 l 701 111 l 813 111 l 813 -194 l 701 -194 m 113 0 l 113 1014 l 238 1014 l 238 578 l 388 578 l 613 1014 l 749 1014 l 497 525 l 763 0 l 619 0 l 383 468 l 238 468 l 238 0 l 113 0 z "},"Ң":{"ha":833,"x_min":124,"x_max":764,"o":"m 653 -194 l 653 111 l 764 111 l 764 -194 l 653 -194 m 124 0 l 124 1014 l 249 1014 l 249 581 l 574 581 l 574 1014 l 699 1014 l 699 0 l 574 0 l 574 467 l 249 467 l 249 0 l 124 0 z "}}}
